<?xml version="1.0" encoding="utf-8" standalone="no"?>
<!DOCTYPE svg PUBLIC "-//W3C//DTD SVG 1.1//EN"
  "http://www.w3.org/Graphics/SVG/1.1/DTD/svg11.dtd">
<svg xmlns:xlink="http://www.w3.org/1999/xlink" width="684pt" height="418.875pt" viewBox="0 0 684 418.875" xmlns="http://www.w3.org/2000/svg" version="1.1">
 <metadata>
  <rdf:RDF xmlns:dc="http://purl.org/dc/elements/1.1/" xmlns:cc="http://creativecommons.org/ns#" xmlns:rdf="http://www.w3.org/1999/02/22-rdf-syntax-ns#">
   <cc:Work>
    <dc:type rdf:resource="http://purl.org/dc/dcmitype/StillImage"/>
    <dc:date>2025-01-27T06:40:09.273860</dc:date>
    <dc:format>image/svg+xml</dc:format>
    <dc:creator>
     <cc:Agent>
      <dc:title>Matplotlib v3.10.0, https://matplotlib.org/</dc:title>
     </cc:Agent>
    </dc:creator>
   </cc:Work>
  </rdf:RDF>
 </metadata>
 <defs>
  <style type="text/css">*{stroke-linejoin: round; stroke-linecap: butt}</style>
 </defs>
 <g id="figure_1">
  <g id="patch_1">
   <path d="M 0 418.875 
L 684 418.875 
L 684 0 
L 0 0 
z
" style="fill: #ffffff"/>
  </g>
  <g id="axes_1">
   <g id="patch_2">
    <path d="M 190.799856 245.355203 
C 190.799856 274.871634 199.442896 303.751921 215.657502 328.415787 
C 231.872108 353.079652 254.959359 372.463975 282.057138 384.165688 
C 309.154916 395.867402 339.095189 399.38211 368.166273 394.274097 
C 397.237356 389.166084 424.186159 375.655527 445.671849 355.417325 
L 342.000077 245.355203 
z
" style="fill: #41b883"/>
   </g>
   <g id="patch_3">
    <path d="M 445.67185 355.417327 
C 463.535786 338.5906 477.03734 317.664973 485.006446 294.453934 
C 492.975551 271.242895 495.175131 246.436937 491.414551 222.185812 
C 487.653979 197.934686 478.045107 174.959767 463.4207 155.252261 
C 448.796293 135.544755 429.591408 119.690872 407.470376 109.064536 
L 342.000077 245.355203 
z
" style="fill: #f1e05a"/>
   </g>
   <g id="patch_4">
    <path d="M 407.470376 109.064536 
C 390.454158 100.890412 372.056594 95.974886 353.231031 94.572672 
C 334.405469 93.170468 315.482773 95.306187 297.443346 100.869206 
L 342.000077 245.355203 
z
" style="fill: #e34c26"/>
   </g>
   <g id="patch_5">
    <path d="M 297.443346 100.869206 
C 273.645741 108.207932 252.025758 121.313633 234.511388 139.017584 
C 216.997019 156.721535 204.124843 178.481379 197.042749 202.356616 
L 342.000077 245.355203 
z
" style="fill: #663399"/>
   </g>
   <g id="patch_6">
    <path d="M 197.042749 202.356616 
C 196.825924 203.087576 196.614605 203.82023 196.408864 204.554385 
C 196.203124 205.288539 196.002962 206.024172 195.808352 206.761355 
L 342.000077 245.355203 
z
" style="fill: #a53b70"/>
   </g>
   <g id="patch_7">
    <path d="M 195.808352 206.761355 
C 195.088662 209.487506 194.44536 212.233253 193.87922 214.995377 
C 193.31308 217.757501 192.824302 220.534921 192.413479 223.324379 
L 342.000077 245.355203 
z
" style="fill: #c6538c"/>
   </g>
   <g id="patch_8">
    <path d="M 192.413479 223.324379 
C 191.979882 226.26846 191.633299 229.224699 191.37417 232.189236 
C 191.115041 235.153774 190.943493 238.125313 190.859743 241.099975 
L 342.000077 245.355203 
z
" style="fill: #3178c6"/>
   </g>
   <g id="patch_9">
    <path d="M 190.859743 241.099975 
C 190.839781 241.808996 190.824811 242.518148 190.814826 243.22738 
C 190.80484 243.936612 190.799856 244.645905 190.799856 245.355207 
L 342.000077 245.355203 
z
" style="fill: #3572a5"/>
   </g>
   <g id="matplotlib.axis_1"/>
   <g id="matplotlib.axis_2"/>
   <g id="text_1">
    <!-- Vue (37.0%) -->
    <g transform="translate(214.658108 400.806091) scale(0.1 -0.1)">
     <defs>
      <path id="DejaVuSans-56" d="M 1831 0 
L 50 4666 
L 709 4666 
L 2188 738 
L 3669 4666 
L 4325 4666 
L 2547 0 
L 1831 0 
z
" transform="scale(0.015625)"/>
      <path id="DejaVuSans-75" d="M 544 1381 
L 544 3500 
L 1119 3500 
L 1119 1403 
Q 1119 906 1312 657 
Q 1506 409 1894 409 
Q 2359 409 2629 706 
Q 2900 1003 2900 1516 
L 2900 3500 
L 3475 3500 
L 3475 0 
L 2900 0 
L 2900 538 
Q 2691 219 2414 64 
Q 2138 -91 1772 -91 
Q 1169 -91 856 284 
Q 544 659 544 1381 
z
M 1991 3584 
L 1991 3584 
z
" transform="scale(0.015625)"/>
      <path id="DejaVuSans-65" d="M 3597 1894 
L 3597 1613 
L 953 1613 
Q 991 1019 1311 708 
Q 1631 397 2203 397 
Q 2534 397 2845 478 
Q 3156 559 3463 722 
L 3463 178 
Q 3153 47 2828 -22 
Q 2503 -91 2169 -91 
Q 1331 -91 842 396 
Q 353 884 353 1716 
Q 353 2575 817 3079 
Q 1281 3584 2069 3584 
Q 2775 3584 3186 3129 
Q 3597 2675 3597 1894 
z
M 3022 2063 
Q 3016 2534 2758 2815 
Q 2500 3097 2075 3097 
Q 1594 3097 1305 2825 
Q 1016 2553 972 2059 
L 3022 2063 
z
" transform="scale(0.015625)"/>
      <path id="DejaVuSans-20" transform="scale(0.015625)"/>
      <path id="DejaVuSans-28" d="M 1984 4856 
Q 1566 4138 1362 3434 
Q 1159 2731 1159 2009 
Q 1159 1288 1364 580 
Q 1569 -128 1984 -844 
L 1484 -844 
Q 1016 -109 783 600 
Q 550 1309 550 2009 
Q 550 2706 781 3412 
Q 1013 4119 1484 4856 
L 1984 4856 
z
" transform="scale(0.015625)"/>
      <path id="DejaVuSans-33" d="M 2597 2516 
Q 3050 2419 3304 2112 
Q 3559 1806 3559 1356 
Q 3559 666 3084 287 
Q 2609 -91 1734 -91 
Q 1441 -91 1130 -33 
Q 819 25 488 141 
L 488 750 
Q 750 597 1062 519 
Q 1375 441 1716 441 
Q 2309 441 2620 675 
Q 2931 909 2931 1356 
Q 2931 1769 2642 2001 
Q 2353 2234 1838 2234 
L 1294 2234 
L 1294 2753 
L 1863 2753 
Q 2328 2753 2575 2939 
Q 2822 3125 2822 3475 
Q 2822 3834 2567 4026 
Q 2313 4219 1838 4219 
Q 1578 4219 1281 4162 
Q 984 4106 628 3988 
L 628 4550 
Q 988 4650 1302 4700 
Q 1616 4750 1894 4750 
Q 2613 4750 3031 4423 
Q 3450 4097 3450 3541 
Q 3450 3153 3228 2886 
Q 3006 2619 2597 2516 
z
" transform="scale(0.015625)"/>
      <path id="DejaVuSans-37" d="M 525 4666 
L 3525 4666 
L 3525 4397 
L 1831 0 
L 1172 0 
L 2766 4134 
L 525 4134 
L 525 4666 
z
" transform="scale(0.015625)"/>
      <path id="DejaVuSans-2e" d="M 684 794 
L 1344 794 
L 1344 0 
L 684 0 
L 684 794 
z
" transform="scale(0.015625)"/>
      <path id="DejaVuSans-30" d="M 2034 4250 
Q 1547 4250 1301 3770 
Q 1056 3291 1056 2328 
Q 1056 1369 1301 889 
Q 1547 409 2034 409 
Q 2525 409 2770 889 
Q 3016 1369 3016 2328 
Q 3016 3291 2770 3770 
Q 2525 4250 2034 4250 
z
M 2034 4750 
Q 2819 4750 3233 4129 
Q 3647 3509 3647 2328 
Q 3647 1150 3233 529 
Q 2819 -91 2034 -91 
Q 1250 -91 836 529 
Q 422 1150 422 2328 
Q 422 3509 836 4129 
Q 1250 4750 2034 4750 
z
" transform="scale(0.015625)"/>
      <path id="DejaVuSans-25" d="M 4653 2053 
Q 4381 2053 4226 1822 
Q 4072 1591 4072 1178 
Q 4072 772 4226 539 
Q 4381 306 4653 306 
Q 4919 306 5073 539 
Q 5228 772 5228 1178 
Q 5228 1588 5073 1820 
Q 4919 2053 4653 2053 
z
M 4653 2450 
Q 5147 2450 5437 2106 
Q 5728 1763 5728 1178 
Q 5728 594 5436 251 
Q 5144 -91 4653 -91 
Q 4153 -91 3862 251 
Q 3572 594 3572 1178 
Q 3572 1766 3864 2108 
Q 4156 2450 4653 2450 
z
M 1428 4353 
Q 1159 4353 1004 4120 
Q 850 3888 850 3481 
Q 850 3069 1003 2837 
Q 1156 2606 1428 2606 
Q 1700 2606 1854 2837 
Q 2009 3069 2009 3481 
Q 2009 3884 1853 4118 
Q 1697 4353 1428 4353 
z
M 4250 4750 
L 4750 4750 
L 1831 -91 
L 1331 -91 
L 4250 4750 
z
M 1428 4750 
Q 1922 4750 2215 4408 
Q 2509 4066 2509 3481 
Q 2509 2891 2217 2550 
Q 1925 2209 1428 2209 
Q 931 2209 642 2551 
Q 353 2894 353 3481 
Q 353 4063 643 4406 
Q 934 4750 1428 4750 
z
" transform="scale(0.015625)"/>
      <path id="DejaVuSans-29" d="M 513 4856 
L 1013 4856 
Q 1481 4119 1714 3412 
Q 1947 2706 1947 2009 
Q 1947 1309 1714 600 
Q 1481 -109 1013 -844 
L 513 -844 
Q 928 -128 1133 580 
Q 1338 1288 1338 2009 
Q 1338 2731 1133 3434 
Q 928 4138 513 4856 
z
" transform="scale(0.015625)"/>
     </defs>
     <use xlink:href="#DejaVuSans-56"/>
     <use xlink:href="#DejaVuSans-75" transform="translate(61.658203 0)"/>
     <use xlink:href="#DejaVuSans-65" transform="translate(125.037109 0)"/>
     <use xlink:href="#DejaVuSans-20" transform="translate(186.560547 0)"/>
     <use xlink:href="#DejaVuSans-28" transform="translate(218.347656 0)"/>
     <use xlink:href="#DejaVuSans-33" transform="translate(257.361328 0)"/>
     <use xlink:href="#DejaVuSans-37" transform="translate(320.984375 0)"/>
     <use xlink:href="#DejaVuSans-2e" transform="translate(384.607422 0)"/>
     <use xlink:href="#DejaVuSans-30" transform="translate(416.394531 0)"/>
     <use xlink:href="#DejaVuSans-25" transform="translate(480.017578 0)"/>
     <use xlink:href="#DejaVuSans-29" transform="translate(575.037109 0)"/>
    </g>
   </g>
   <g id="text_2">
    <!-- JavaScript (30.8%) -->
    <g transform="translate(506.35599 222.628169) scale(0.1 -0.1)">
     <defs>
      <path id="DejaVuSans-4a" d="M 628 4666 
L 1259 4666 
L 1259 325 
Q 1259 -519 939 -900 
Q 619 -1281 -91 -1281 
L -331 -1281 
L -331 -750 
L -134 -750 
Q 284 -750 456 -515 
Q 628 -281 628 325 
L 628 4666 
z
" transform="scale(0.015625)"/>
      <path id="DejaVuSans-61" d="M 2194 1759 
Q 1497 1759 1228 1600 
Q 959 1441 959 1056 
Q 959 750 1161 570 
Q 1363 391 1709 391 
Q 2188 391 2477 730 
Q 2766 1069 2766 1631 
L 2766 1759 
L 2194 1759 
z
M 3341 1997 
L 3341 0 
L 2766 0 
L 2766 531 
Q 2569 213 2275 61 
Q 1981 -91 1556 -91 
Q 1019 -91 701 211 
Q 384 513 384 1019 
Q 384 1609 779 1909 
Q 1175 2209 1959 2209 
L 2766 2209 
L 2766 2266 
Q 2766 2663 2505 2880 
Q 2244 3097 1772 3097 
Q 1472 3097 1187 3025 
Q 903 2953 641 2809 
L 641 3341 
Q 956 3463 1253 3523 
Q 1550 3584 1831 3584 
Q 2591 3584 2966 3190 
Q 3341 2797 3341 1997 
z
" transform="scale(0.015625)"/>
      <path id="DejaVuSans-76" d="M 191 3500 
L 800 3500 
L 1894 563 
L 2988 3500 
L 3597 3500 
L 2284 0 
L 1503 0 
L 191 3500 
z
" transform="scale(0.015625)"/>
      <path id="DejaVuSans-53" d="M 3425 4513 
L 3425 3897 
Q 3066 4069 2747 4153 
Q 2428 4238 2131 4238 
Q 1616 4238 1336 4038 
Q 1056 3838 1056 3469 
Q 1056 3159 1242 3001 
Q 1428 2844 1947 2747 
L 2328 2669 
Q 3034 2534 3370 2195 
Q 3706 1856 3706 1288 
Q 3706 609 3251 259 
Q 2797 -91 1919 -91 
Q 1588 -91 1214 -16 
Q 841 59 441 206 
L 441 856 
Q 825 641 1194 531 
Q 1563 422 1919 422 
Q 2459 422 2753 634 
Q 3047 847 3047 1241 
Q 3047 1584 2836 1778 
Q 2625 1972 2144 2069 
L 1759 2144 
Q 1053 2284 737 2584 
Q 422 2884 422 3419 
Q 422 4038 858 4394 
Q 1294 4750 2059 4750 
Q 2388 4750 2728 4690 
Q 3069 4631 3425 4513 
z
" transform="scale(0.015625)"/>
      <path id="DejaVuSans-63" d="M 3122 3366 
L 3122 2828 
Q 2878 2963 2633 3030 
Q 2388 3097 2138 3097 
Q 1578 3097 1268 2742 
Q 959 2388 959 1747 
Q 959 1106 1268 751 
Q 1578 397 2138 397 
Q 2388 397 2633 464 
Q 2878 531 3122 666 
L 3122 134 
Q 2881 22 2623 -34 
Q 2366 -91 2075 -91 
Q 1284 -91 818 406 
Q 353 903 353 1747 
Q 353 2603 823 3093 
Q 1294 3584 2113 3584 
Q 2378 3584 2631 3529 
Q 2884 3475 3122 3366 
z
" transform="scale(0.015625)"/>
      <path id="DejaVuSans-72" d="M 2631 2963 
Q 2534 3019 2420 3045 
Q 2306 3072 2169 3072 
Q 1681 3072 1420 2755 
Q 1159 2438 1159 1844 
L 1159 0 
L 581 0 
L 581 3500 
L 1159 3500 
L 1159 2956 
Q 1341 3275 1631 3429 
Q 1922 3584 2338 3584 
Q 2397 3584 2469 3576 
Q 2541 3569 2628 3553 
L 2631 2963 
z
" transform="scale(0.015625)"/>
      <path id="DejaVuSans-69" d="M 603 3500 
L 1178 3500 
L 1178 0 
L 603 0 
L 603 3500 
z
M 603 4863 
L 1178 4863 
L 1178 4134 
L 603 4134 
L 603 4863 
z
" transform="scale(0.015625)"/>
      <path id="DejaVuSans-70" d="M 1159 525 
L 1159 -1331 
L 581 -1331 
L 581 3500 
L 1159 3500 
L 1159 2969 
Q 1341 3281 1617 3432 
Q 1894 3584 2278 3584 
Q 2916 3584 3314 3078 
Q 3713 2572 3713 1747 
Q 3713 922 3314 415 
Q 2916 -91 2278 -91 
Q 1894 -91 1617 61 
Q 1341 213 1159 525 
z
M 3116 1747 
Q 3116 2381 2855 2742 
Q 2594 3103 2138 3103 
Q 1681 3103 1420 2742 
Q 1159 2381 1159 1747 
Q 1159 1113 1420 752 
Q 1681 391 2138 391 
Q 2594 391 2855 752 
Q 3116 1113 3116 1747 
z
" transform="scale(0.015625)"/>
      <path id="DejaVuSans-74" d="M 1172 4494 
L 1172 3500 
L 2356 3500 
L 2356 3053 
L 1172 3053 
L 1172 1153 
Q 1172 725 1289 603 
Q 1406 481 1766 481 
L 2356 481 
L 2356 0 
L 1766 0 
Q 1100 0 847 248 
Q 594 497 594 1153 
L 594 3053 
L 172 3053 
L 172 3500 
L 594 3500 
L 594 4494 
L 1172 4494 
z
" transform="scale(0.015625)"/>
      <path id="DejaVuSans-38" d="M 2034 2216 
Q 1584 2216 1326 1975 
Q 1069 1734 1069 1313 
Q 1069 891 1326 650 
Q 1584 409 2034 409 
Q 2484 409 2743 651 
Q 3003 894 3003 1313 
Q 3003 1734 2745 1975 
Q 2488 2216 2034 2216 
z
M 1403 2484 
Q 997 2584 770 2862 
Q 544 3141 544 3541 
Q 544 4100 942 4425 
Q 1341 4750 2034 4750 
Q 2731 4750 3128 4425 
Q 3525 4100 3525 3541 
Q 3525 3141 3298 2862 
Q 3072 2584 2669 2484 
Q 3125 2378 3379 2068 
Q 3634 1759 3634 1313 
Q 3634 634 3220 271 
Q 2806 -91 2034 -91 
Q 1263 -91 848 271 
Q 434 634 434 1313 
Q 434 1759 690 2068 
Q 947 2378 1403 2484 
z
M 1172 3481 
Q 1172 3119 1398 2916 
Q 1625 2713 2034 2713 
Q 2441 2713 2670 2916 
Q 2900 3119 2900 3481 
Q 2900 3844 2670 4047 
Q 2441 4250 2034 4250 
Q 1625 4250 1398 4047 
Q 1172 3844 1172 3481 
z
" transform="scale(0.015625)"/>
     </defs>
     <use xlink:href="#DejaVuSans-4a"/>
     <use xlink:href="#DejaVuSans-61" transform="translate(29.492188 0)"/>
     <use xlink:href="#DejaVuSans-76" transform="translate(90.771484 0)"/>
     <use xlink:href="#DejaVuSans-61" transform="translate(149.951172 0)"/>
     <use xlink:href="#DejaVuSans-53" transform="translate(211.230469 0)"/>
     <use xlink:href="#DejaVuSans-63" transform="translate(274.707031 0)"/>
     <use xlink:href="#DejaVuSans-72" transform="translate(329.6875 0)"/>
     <use xlink:href="#DejaVuSans-69" transform="translate(370.800781 0)"/>
     <use xlink:href="#DejaVuSans-70" transform="translate(398.583984 0)"/>
     <use xlink:href="#DejaVuSans-74" transform="translate(462.060547 0)"/>
     <use xlink:href="#DejaVuSans-20" transform="translate(501.269531 0)"/>
     <use xlink:href="#DejaVuSans-28" transform="translate(533.056641 0)"/>
     <use xlink:href="#DejaVuSans-33" transform="translate(572.070312 0)"/>
     <use xlink:href="#DejaVuSans-30" transform="translate(635.693359 0)"/>
     <use xlink:href="#DejaVuSans-2e" transform="translate(699.316406 0)"/>
     <use xlink:href="#DejaVuSans-38" transform="translate(731.103516 0)"/>
     <use xlink:href="#DejaVuSans-25" transform="translate(794.726562 0)"/>
     <use xlink:href="#DejaVuSans-29" transform="translate(889.746094 0)"/>
    </g>
   </g>
   <g id="text_3">
    <!-- HTML (11.9%) -->
    <g transform="translate(354.354047 82.253785) scale(0.1 -0.1)">
     <defs>
      <path id="DejaVuSans-48" d="M 628 4666 
L 1259 4666 
L 1259 2753 
L 3553 2753 
L 3553 4666 
L 4184 4666 
L 4184 0 
L 3553 0 
L 3553 2222 
L 1259 2222 
L 1259 0 
L 628 0 
L 628 4666 
z
" transform="scale(0.015625)"/>
      <path id="DejaVuSans-54" d="M -19 4666 
L 3928 4666 
L 3928 4134 
L 2272 4134 
L 2272 0 
L 1638 0 
L 1638 4134 
L -19 4134 
L -19 4666 
z
" transform="scale(0.015625)"/>
      <path id="DejaVuSans-4d" d="M 628 4666 
L 1569 4666 
L 2759 1491 
L 3956 4666 
L 4897 4666 
L 4897 0 
L 4281 0 
L 4281 4097 
L 3078 897 
L 2444 897 
L 1241 4097 
L 1241 0 
L 628 0 
L 628 4666 
z
" transform="scale(0.015625)"/>
      <path id="DejaVuSans-4c" d="M 628 4666 
L 1259 4666 
L 1259 531 
L 3531 531 
L 3531 0 
L 628 0 
L 628 4666 
z
" transform="scale(0.015625)"/>
      <path id="DejaVuSans-31" d="M 794 531 
L 1825 531 
L 1825 4091 
L 703 3866 
L 703 4441 
L 1819 4666 
L 2450 4666 
L 2450 531 
L 3481 531 
L 3481 0 
L 794 0 
L 794 531 
z
" transform="scale(0.015625)"/>
      <path id="DejaVuSans-39" d="M 703 97 
L 703 672 
Q 941 559 1184 500 
Q 1428 441 1663 441 
Q 2288 441 2617 861 
Q 2947 1281 2994 2138 
Q 2813 1869 2534 1725 
Q 2256 1581 1919 1581 
Q 1219 1581 811 2004 
Q 403 2428 403 3163 
Q 403 3881 828 4315 
Q 1253 4750 1959 4750 
Q 2769 4750 3195 4129 
Q 3622 3509 3622 2328 
Q 3622 1225 3098 567 
Q 2575 -91 1691 -91 
Q 1453 -91 1209 -44 
Q 966 3 703 97 
z
M 1959 2075 
Q 2384 2075 2632 2365 
Q 2881 2656 2881 3163 
Q 2881 3666 2632 3958 
Q 2384 4250 1959 4250 
Q 1534 4250 1286 3958 
Q 1038 3666 1038 3163 
Q 1038 2656 1286 2365 
Q 1534 2075 1959 2075 
z
" transform="scale(0.015625)"/>
     </defs>
     <use xlink:href="#DejaVuSans-48"/>
     <use xlink:href="#DejaVuSans-54" transform="translate(75.195312 0)"/>
     <use xlink:href="#DejaVuSans-4d" transform="translate(136.279297 0)"/>
     <use xlink:href="#DejaVuSans-4c" transform="translate(222.558594 0)"/>
     <use xlink:href="#DejaVuSans-20" transform="translate(278.271484 0)"/>
     <use xlink:href="#DejaVuSans-28" transform="translate(310.058594 0)"/>
     <use xlink:href="#DejaVuSans-31" transform="translate(349.072266 0)"/>
     <use xlink:href="#DejaVuSans-31" transform="translate(412.695312 0)"/>
     <use xlink:href="#DejaVuSans-2e" transform="translate(476.318359 0)"/>
     <use xlink:href="#DejaVuSans-39" transform="translate(508.105469 0)"/>
     <use xlink:href="#DejaVuSans-25" transform="translate(571.728516 0)"/>
     <use xlink:href="#DejaVuSans-29" transform="translate(666.748047 0)"/>
    </g>
   </g>
   <g id="text_4">
    <!-- CSS (15.6%) -->
    <g transform="translate(161.334391 131.143205) scale(0.1 -0.1)">
     <defs>
      <path id="DejaVuSans-43" d="M 4122 4306 
L 4122 3641 
Q 3803 3938 3442 4084 
Q 3081 4231 2675 4231 
Q 1875 4231 1450 3742 
Q 1025 3253 1025 2328 
Q 1025 1406 1450 917 
Q 1875 428 2675 428 
Q 3081 428 3442 575 
Q 3803 722 4122 1019 
L 4122 359 
Q 3791 134 3420 21 
Q 3050 -91 2638 -91 
Q 1578 -91 968 557 
Q 359 1206 359 2328 
Q 359 3453 968 4101 
Q 1578 4750 2638 4750 
Q 3056 4750 3426 4639 
Q 3797 4528 4122 4306 
z
" transform="scale(0.015625)"/>
      <path id="DejaVuSans-35" d="M 691 4666 
L 3169 4666 
L 3169 4134 
L 1269 4134 
L 1269 2991 
Q 1406 3038 1543 3061 
Q 1681 3084 1819 3084 
Q 2600 3084 3056 2656 
Q 3513 2228 3513 1497 
Q 3513 744 3044 326 
Q 2575 -91 1722 -91 
Q 1428 -91 1123 -41 
Q 819 9 494 109 
L 494 744 
Q 775 591 1075 516 
Q 1375 441 1709 441 
Q 2250 441 2565 725 
Q 2881 1009 2881 1497 
Q 2881 1984 2565 2268 
Q 2250 2553 1709 2553 
Q 1456 2553 1204 2497 
Q 953 2441 691 2322 
L 691 4666 
z
" transform="scale(0.015625)"/>
      <path id="DejaVuSans-36" d="M 2113 2584 
Q 1688 2584 1439 2293 
Q 1191 2003 1191 1497 
Q 1191 994 1439 701 
Q 1688 409 2113 409 
Q 2538 409 2786 701 
Q 3034 994 3034 1497 
Q 3034 2003 2786 2293 
Q 2538 2584 2113 2584 
z
M 3366 4563 
L 3366 3988 
Q 3128 4100 2886 4159 
Q 2644 4219 2406 4219 
Q 1781 4219 1451 3797 
Q 1122 3375 1075 2522 
Q 1259 2794 1537 2939 
Q 1816 3084 2150 3084 
Q 2853 3084 3261 2657 
Q 3669 2231 3669 1497 
Q 3669 778 3244 343 
Q 2819 -91 2113 -91 
Q 1303 -91 875 529 
Q 447 1150 447 2328 
Q 447 3434 972 4092 
Q 1497 4750 2381 4750 
Q 2619 4750 2861 4703 
Q 3103 4656 3366 4563 
z
" transform="scale(0.015625)"/>
     </defs>
     <use xlink:href="#DejaVuSans-43"/>
     <use xlink:href="#DejaVuSans-53" transform="translate(69.824219 0)"/>
     <use xlink:href="#DejaVuSans-53" transform="translate(133.300781 0)"/>
     <use xlink:href="#DejaVuSans-20" transform="translate(196.777344 0)"/>
     <use xlink:href="#DejaVuSans-28" transform="translate(228.564453 0)"/>
     <use xlink:href="#DejaVuSans-31" transform="translate(267.578125 0)"/>
     <use xlink:href="#DejaVuSans-35" transform="translate(331.201172 0)"/>
     <use xlink:href="#DejaVuSans-2e" transform="translate(394.824219 0)"/>
     <use xlink:href="#DejaVuSans-36" transform="translate(426.611328 0)"/>
     <use xlink:href="#DejaVuSans-25" transform="translate(490.234375 0)"/>
     <use xlink:href="#DejaVuSans-29" transform="translate(585.253906 0)"/>
    </g>
   </g>
   <g id="text_5">
    <!-- Sass (0.5%) -->
    <g transform="translate(122.56854 203.233526) scale(0.1 -0.1)">
     <defs>
      <path id="DejaVuSans-73" d="M 2834 3397 
L 2834 2853 
Q 2591 2978 2328 3040 
Q 2066 3103 1784 3103 
Q 1356 3103 1142 2972 
Q 928 2841 928 2578 
Q 928 2378 1081 2264 
Q 1234 2150 1697 2047 
L 1894 2003 
Q 2506 1872 2764 1633 
Q 3022 1394 3022 966 
Q 3022 478 2636 193 
Q 2250 -91 1575 -91 
Q 1294 -91 989 -36 
Q 684 19 347 128 
L 347 722 
Q 666 556 975 473 
Q 1284 391 1588 391 
Q 1994 391 2212 530 
Q 2431 669 2431 922 
Q 2431 1156 2273 1281 
Q 2116 1406 1581 1522 
L 1381 1569 
Q 847 1681 609 1914 
Q 372 2147 372 2553 
Q 372 3047 722 3315 
Q 1072 3584 1716 3584 
Q 2034 3584 2315 3537 
Q 2597 3491 2834 3397 
z
" transform="scale(0.015625)"/>
     </defs>
     <use xlink:href="#DejaVuSans-53"/>
     <use xlink:href="#DejaVuSans-61" transform="translate(63.476562 0)"/>
     <use xlink:href="#DejaVuSans-73" transform="translate(124.755859 0)"/>
     <use xlink:href="#DejaVuSans-73" transform="translate(176.855469 0)"/>
     <use xlink:href="#DejaVuSans-20" transform="translate(228.955078 0)"/>
     <use xlink:href="#DejaVuSans-28" transform="translate(260.742188 0)"/>
     <use xlink:href="#DejaVuSans-30" transform="translate(299.755859 0)"/>
     <use xlink:href="#DejaVuSans-2e" transform="translate(363.378906 0)"/>
     <use xlink:href="#DejaVuSans-35" transform="translate(395.166016 0)"/>
     <use xlink:href="#DejaVuSans-25" transform="translate(458.789062 0)"/>
     <use xlink:href="#DejaVuSans-29" transform="translate(553.808594 0)"/>
    </g>
   </g>
   <g id="text_6">
    <!-- SCSS (1.8%) -->
    <g transform="translate(116.653074 214.718769) scale(0.1 -0.1)">
     <use xlink:href="#DejaVuSans-53"/>
     <use xlink:href="#DejaVuSans-43" transform="translate(63.476562 0)"/>
     <use xlink:href="#DejaVuSans-53" transform="translate(133.300781 0)"/>
     <use xlink:href="#DejaVuSans-53" transform="translate(196.777344 0)"/>
     <use xlink:href="#DejaVuSans-20" transform="translate(260.253906 0)"/>
     <use xlink:href="#DejaVuSans-28" transform="translate(292.041016 0)"/>
     <use xlink:href="#DejaVuSans-31" transform="translate(331.054688 0)"/>
     <use xlink:href="#DejaVuSans-2e" transform="translate(394.677734 0)"/>
     <use xlink:href="#DejaVuSans-38" transform="translate(426.464844 0)"/>
     <use xlink:href="#DejaVuSans-25" transform="translate(490.087891 0)"/>
     <use xlink:href="#DejaVuSans-29" transform="translate(585.107422 0)"/>
    </g>
   </g>
   <g id="text_7">
    <!-- TypeScript (1.9%) -->
    <g transform="translate(87.955329 233.632015) scale(0.1 -0.1)">
     <defs>
      <path id="DejaVuSans-79" d="M 2059 -325 
Q 1816 -950 1584 -1140 
Q 1353 -1331 966 -1331 
L 506 -1331 
L 506 -850 
L 844 -850 
Q 1081 -850 1212 -737 
Q 1344 -625 1503 -206 
L 1606 56 
L 191 3500 
L 800 3500 
L 1894 763 
L 2988 3500 
L 3597 3500 
L 2059 -325 
z
" transform="scale(0.015625)"/>
     </defs>
     <use xlink:href="#DejaVuSans-54"/>
     <use xlink:href="#DejaVuSans-79" transform="translate(45.458984 0)"/>
     <use xlink:href="#DejaVuSans-70" transform="translate(104.638672 0)"/>
     <use xlink:href="#DejaVuSans-65" transform="translate(168.115234 0)"/>
     <use xlink:href="#DejaVuSans-53" transform="translate(229.638672 0)"/>
     <use xlink:href="#DejaVuSans-63" transform="translate(293.115234 0)"/>
     <use xlink:href="#DejaVuSans-72" transform="translate(348.095703 0)"/>
     <use xlink:href="#DejaVuSans-69" transform="translate(389.208984 0)"/>
     <use xlink:href="#DejaVuSans-70" transform="translate(416.992188 0)"/>
     <use xlink:href="#DejaVuSans-74" transform="translate(480.46875 0)"/>
     <use xlink:href="#DejaVuSans-20" transform="translate(519.677734 0)"/>
     <use xlink:href="#DejaVuSans-28" transform="translate(551.464844 0)"/>
     <use xlink:href="#DejaVuSans-31" transform="translate(590.478516 0)"/>
     <use xlink:href="#DejaVuSans-2e" transform="translate(654.101562 0)"/>
     <use xlink:href="#DejaVuSans-39" transform="translate(685.888672 0)"/>
     <use xlink:href="#DejaVuSans-25" transform="translate(749.511719 0)"/>
     <use xlink:href="#DejaVuSans-29" transform="translate(844.53125 0)"/>
    </g>
   </g>
   <g id="text_8">
    <!-- Python (0.4%) -->
    <g transform="translate(104.647867 245.773973) scale(0.1 -0.1)">
     <defs>
      <path id="DejaVuSans-50" d="M 1259 4147 
L 1259 2394 
L 2053 2394 
Q 2494 2394 2734 2622 
Q 2975 2850 2975 3272 
Q 2975 3691 2734 3919 
Q 2494 4147 2053 4147 
L 1259 4147 
z
M 628 4666 
L 2053 4666 
Q 2838 4666 3239 4311 
Q 3641 3956 3641 3272 
Q 3641 2581 3239 2228 
Q 2838 1875 2053 1875 
L 1259 1875 
L 1259 0 
L 628 0 
L 628 4666 
z
" transform="scale(0.015625)"/>
      <path id="DejaVuSans-68" d="M 3513 2113 
L 3513 0 
L 2938 0 
L 2938 2094 
Q 2938 2591 2744 2837 
Q 2550 3084 2163 3084 
Q 1697 3084 1428 2787 
Q 1159 2491 1159 1978 
L 1159 0 
L 581 0 
L 581 4863 
L 1159 4863 
L 1159 2956 
Q 1366 3272 1645 3428 
Q 1925 3584 2291 3584 
Q 2894 3584 3203 3211 
Q 3513 2838 3513 2113 
z
" transform="scale(0.015625)"/>
      <path id="DejaVuSans-6f" d="M 1959 3097 
Q 1497 3097 1228 2736 
Q 959 2375 959 1747 
Q 959 1119 1226 758 
Q 1494 397 1959 397 
Q 2419 397 2687 759 
Q 2956 1122 2956 1747 
Q 2956 2369 2687 2733 
Q 2419 3097 1959 3097 
z
M 1959 3584 
Q 2709 3584 3137 3096 
Q 3566 2609 3566 1747 
Q 3566 888 3137 398 
Q 2709 -91 1959 -91 
Q 1206 -91 779 398 
Q 353 888 353 1747 
Q 353 2609 779 3096 
Q 1206 3584 1959 3584 
z
" transform="scale(0.015625)"/>
      <path id="DejaVuSans-6e" d="M 3513 2113 
L 3513 0 
L 2938 0 
L 2938 2094 
Q 2938 2591 2744 2837 
Q 2550 3084 2163 3084 
Q 1697 3084 1428 2787 
Q 1159 2491 1159 1978 
L 1159 0 
L 581 0 
L 581 3500 
L 1159 3500 
L 1159 2956 
Q 1366 3272 1645 3428 
Q 1925 3584 2291 3584 
Q 2894 3584 3203 3211 
Q 3513 2838 3513 2113 
z
" transform="scale(0.015625)"/>
      <path id="DejaVuSans-34" d="M 2419 4116 
L 825 1625 
L 2419 1625 
L 2419 4116 
z
M 2253 4666 
L 3047 4666 
L 3047 1625 
L 3713 1625 
L 3713 1100 
L 3047 1100 
L 3047 0 
L 2419 0 
L 2419 1100 
L 313 1100 
L 313 1709 
L 2253 4666 
z
" transform="scale(0.015625)"/>
     </defs>
     <use xlink:href="#DejaVuSans-50"/>
     <use xlink:href="#DejaVuSans-79" transform="translate(60.302734 0)"/>
     <use xlink:href="#DejaVuSans-74" transform="translate(119.482422 0)"/>
     <use xlink:href="#DejaVuSans-68" transform="translate(158.691406 0)"/>
     <use xlink:href="#DejaVuSans-6f" transform="translate(222.070312 0)"/>
     <use xlink:href="#DejaVuSans-6e" transform="translate(283.251953 0)"/>
     <use xlink:href="#DejaVuSans-20" transform="translate(346.630859 0)"/>
     <use xlink:href="#DejaVuSans-28" transform="translate(378.417969 0)"/>
     <use xlink:href="#DejaVuSans-30" transform="translate(417.431641 0)"/>
     <use xlink:href="#DejaVuSans-2e" transform="translate(481.054688 0)"/>
     <use xlink:href="#DejaVuSans-34" transform="translate(512.841797 0)"/>
     <use xlink:href="#DejaVuSans-25" transform="translate(576.464844 0)"/>
     <use xlink:href="#DejaVuSans-29" transform="translate(671.484375 0)"/>
    </g>
   </g>
  </g>
  <g id="text_9">
   <!-- STACK-CHART -->
   <g transform="translate(208.21 31.515) scale(0.32 -0.32)">
    <defs>
     <path id="DejaVuSans-Bold-53" d="M 3834 4519 
L 3834 3531 
Q 3450 3703 3084 3790 
Q 2719 3878 2394 3878 
Q 1963 3878 1756 3759 
Q 1550 3641 1550 3391 
Q 1550 3203 1689 3098 
Q 1828 2994 2194 2919 
L 2706 2816 
Q 3484 2659 3812 2340 
Q 4141 2022 4141 1434 
Q 4141 663 3683 286 
Q 3225 -91 2284 -91 
Q 1841 -91 1394 -6 
Q 947 78 500 244 
L 500 1259 
Q 947 1022 1364 901 
Q 1781 781 2169 781 
Q 2563 781 2772 912 
Q 2981 1044 2981 1288 
Q 2981 1506 2839 1625 
Q 2697 1744 2272 1838 
L 1806 1941 
Q 1106 2091 782 2419 
Q 459 2747 459 3303 
Q 459 4000 909 4375 
Q 1359 4750 2203 4750 
Q 2588 4750 2994 4692 
Q 3400 4634 3834 4519 
z
" transform="scale(0.015625)"/>
     <path id="DejaVuSans-Bold-54" d="M 31 4666 
L 4331 4666 
L 4331 3756 
L 2784 3756 
L 2784 0 
L 1581 0 
L 1581 3756 
L 31 3756 
L 31 4666 
z
" transform="scale(0.015625)"/>
     <path id="DejaVuSans-Bold-41" d="M 3419 850 
L 1538 850 
L 1241 0 
L 31 0 
L 1759 4666 
L 3194 4666 
L 4922 0 
L 3713 0 
L 3419 850 
z
M 1838 1716 
L 3116 1716 
L 2478 3572 
L 1838 1716 
z
" transform="scale(0.015625)"/>
     <path id="DejaVuSans-Bold-43" d="M 4288 256 
Q 3956 84 3597 -3 
Q 3238 -91 2847 -91 
Q 1681 -91 1000 561 
Q 319 1213 319 2328 
Q 319 3447 1000 4098 
Q 1681 4750 2847 4750 
Q 3238 4750 3597 4662 
Q 3956 4575 4288 4403 
L 4288 3438 
Q 3953 3666 3628 3772 
Q 3303 3878 2944 3878 
Q 2300 3878 1931 3465 
Q 1563 3053 1563 2328 
Q 1563 1606 1931 1193 
Q 2300 781 2944 781 
Q 3303 781 3628 887 
Q 3953 994 4288 1222 
L 4288 256 
z
" transform="scale(0.015625)"/>
     <path id="DejaVuSans-Bold-4b" d="M 588 4666 
L 1791 4666 
L 1791 2963 
L 3525 4666 
L 4922 4666 
L 2675 2456 
L 5153 0 
L 3647 0 
L 1791 1838 
L 1791 0 
L 588 0 
L 588 4666 
z
" transform="scale(0.015625)"/>
     <path id="DejaVuSans-Bold-2d" d="M 347 2297 
L 2309 2297 
L 2309 1388 
L 347 1388 
L 347 2297 
z
" transform="scale(0.015625)"/>
     <path id="DejaVuSans-Bold-48" d="M 588 4666 
L 1791 4666 
L 1791 2888 
L 3566 2888 
L 3566 4666 
L 4769 4666 
L 4769 0 
L 3566 0 
L 3566 1978 
L 1791 1978 
L 1791 0 
L 588 0 
L 588 4666 
z
" transform="scale(0.015625)"/>
     <path id="DejaVuSans-Bold-52" d="M 2297 2597 
Q 2675 2597 2839 2737 
Q 3003 2878 3003 3200 
Q 3003 3519 2839 3656 
Q 2675 3794 2297 3794 
L 1791 3794 
L 1791 2597 
L 2297 2597 
z
M 1791 1766 
L 1791 0 
L 588 0 
L 588 4666 
L 2425 4666 
Q 3347 4666 3776 4356 
Q 4206 4047 4206 3378 
Q 4206 2916 3982 2619 
Q 3759 2322 3309 2181 
Q 3556 2125 3751 1926 
Q 3947 1728 4147 1325 
L 4800 0 
L 3519 0 
L 2950 1159 
Q 2778 1509 2601 1637 
Q 2425 1766 2131 1766 
L 1791 1766 
z
" transform="scale(0.015625)"/>
    </defs>
    <use xlink:href="#DejaVuSans-Bold-53"/>
    <use xlink:href="#DejaVuSans-Bold-54" transform="translate(72.021484 0)"/>
    <use xlink:href="#DejaVuSans-Bold-41" transform="translate(132.484375 0)"/>
    <use xlink:href="#DejaVuSans-Bold-43" transform="translate(209.876953 0)"/>
    <use xlink:href="#DejaVuSans-Bold-4b" transform="translate(283.265625 0)"/>
    <use xlink:href="#DejaVuSans-Bold-2d" transform="translate(352.005859 0)"/>
    <use xlink:href="#DejaVuSans-Bold-43" transform="translate(393.509766 0)"/>
    <use xlink:href="#DejaVuSans-Bold-48" transform="translate(466.898438 0)"/>
    <use xlink:href="#DejaVuSans-Bold-41" transform="translate(550.589844 0)"/>
    <use xlink:href="#DejaVuSans-Bold-52" transform="translate(627.982422 0)"/>
    <use xlink:href="#DejaVuSans-Bold-54" transform="translate(700.484375 0)"/>
   </g>
  </g>
  <g id="text_10">
   <!-- Automatically updated at: 2025-01-27 06:40:09 UTC -->
   <g style="fill: #808080" transform="translate(121.0975 57.435) scale(0.16 -0.16)">
    <defs>
     <path id="DejaVuSans-41" d="M 2188 4044 
L 1331 1722 
L 3047 1722 
L 2188 4044 
z
M 1831 4666 
L 2547 4666 
L 4325 0 
L 3669 0 
L 3244 1197 
L 1141 1197 
L 716 0 
L 50 0 
L 1831 4666 
z
" transform="scale(0.015625)"/>
     <path id="DejaVuSans-6d" d="M 3328 2828 
Q 3544 3216 3844 3400 
Q 4144 3584 4550 3584 
Q 5097 3584 5394 3201 
Q 5691 2819 5691 2113 
L 5691 0 
L 5113 0 
L 5113 2094 
Q 5113 2597 4934 2840 
Q 4756 3084 4391 3084 
Q 3944 3084 3684 2787 
Q 3425 2491 3425 1978 
L 3425 0 
L 2847 0 
L 2847 2094 
Q 2847 2600 2669 2842 
Q 2491 3084 2119 3084 
Q 1678 3084 1418 2786 
Q 1159 2488 1159 1978 
L 1159 0 
L 581 0 
L 581 3500 
L 1159 3500 
L 1159 2956 
Q 1356 3278 1631 3431 
Q 1906 3584 2284 3584 
Q 2666 3584 2933 3390 
Q 3200 3197 3328 2828 
z
" transform="scale(0.015625)"/>
     <path id="DejaVuSans-6c" d="M 603 4863 
L 1178 4863 
L 1178 0 
L 603 0 
L 603 4863 
z
" transform="scale(0.015625)"/>
     <path id="DejaVuSans-64" d="M 2906 2969 
L 2906 4863 
L 3481 4863 
L 3481 0 
L 2906 0 
L 2906 525 
Q 2725 213 2448 61 
Q 2172 -91 1784 -91 
Q 1150 -91 751 415 
Q 353 922 353 1747 
Q 353 2572 751 3078 
Q 1150 3584 1784 3584 
Q 2172 3584 2448 3432 
Q 2725 3281 2906 2969 
z
M 947 1747 
Q 947 1113 1208 752 
Q 1469 391 1925 391 
Q 2381 391 2643 752 
Q 2906 1113 2906 1747 
Q 2906 2381 2643 2742 
Q 2381 3103 1925 3103 
Q 1469 3103 1208 2742 
Q 947 2381 947 1747 
z
" transform="scale(0.015625)"/>
     <path id="DejaVuSans-3a" d="M 750 794 
L 1409 794 
L 1409 0 
L 750 0 
L 750 794 
z
M 750 3309 
L 1409 3309 
L 1409 2516 
L 750 2516 
L 750 3309 
z
" transform="scale(0.015625)"/>
     <path id="DejaVuSans-32" d="M 1228 531 
L 3431 531 
L 3431 0 
L 469 0 
L 469 531 
Q 828 903 1448 1529 
Q 2069 2156 2228 2338 
Q 2531 2678 2651 2914 
Q 2772 3150 2772 3378 
Q 2772 3750 2511 3984 
Q 2250 4219 1831 4219 
Q 1534 4219 1204 4116 
Q 875 4013 500 3803 
L 500 4441 
Q 881 4594 1212 4672 
Q 1544 4750 1819 4750 
Q 2544 4750 2975 4387 
Q 3406 4025 3406 3419 
Q 3406 3131 3298 2873 
Q 3191 2616 2906 2266 
Q 2828 2175 2409 1742 
Q 1991 1309 1228 531 
z
" transform="scale(0.015625)"/>
     <path id="DejaVuSans-2d" d="M 313 2009 
L 1997 2009 
L 1997 1497 
L 313 1497 
L 313 2009 
z
" transform="scale(0.015625)"/>
     <path id="DejaVuSans-55" d="M 556 4666 
L 1191 4666 
L 1191 1831 
Q 1191 1081 1462 751 
Q 1734 422 2344 422 
Q 2950 422 3222 751 
Q 3494 1081 3494 1831 
L 3494 4666 
L 4128 4666 
L 4128 1753 
Q 4128 841 3676 375 
Q 3225 -91 2344 -91 
Q 1459 -91 1007 375 
Q 556 841 556 1753 
L 556 4666 
z
" transform="scale(0.015625)"/>
    </defs>
    <use xlink:href="#DejaVuSans-41"/>
    <use xlink:href="#DejaVuSans-75" transform="translate(68.408203 0)"/>
    <use xlink:href="#DejaVuSans-74" transform="translate(131.787109 0)"/>
    <use xlink:href="#DejaVuSans-6f" transform="translate(170.996094 0)"/>
    <use xlink:href="#DejaVuSans-6d" transform="translate(232.177734 0)"/>
    <use xlink:href="#DejaVuSans-61" transform="translate(329.589844 0)"/>
    <use xlink:href="#DejaVuSans-74" transform="translate(390.869141 0)"/>
    <use xlink:href="#DejaVuSans-69" transform="translate(430.078125 0)"/>
    <use xlink:href="#DejaVuSans-63" transform="translate(457.861328 0)"/>
    <use xlink:href="#DejaVuSans-61" transform="translate(512.841797 0)"/>
    <use xlink:href="#DejaVuSans-6c" transform="translate(574.121094 0)"/>
    <use xlink:href="#DejaVuSans-6c" transform="translate(601.904297 0)"/>
    <use xlink:href="#DejaVuSans-79" transform="translate(629.6875 0)"/>
    <use xlink:href="#DejaVuSans-20" transform="translate(688.867188 0)"/>
    <use xlink:href="#DejaVuSans-75" transform="translate(720.654297 0)"/>
    <use xlink:href="#DejaVuSans-70" transform="translate(784.033203 0)"/>
    <use xlink:href="#DejaVuSans-64" transform="translate(847.509766 0)"/>
    <use xlink:href="#DejaVuSans-61" transform="translate(910.986328 0)"/>
    <use xlink:href="#DejaVuSans-74" transform="translate(972.265625 0)"/>
    <use xlink:href="#DejaVuSans-65" transform="translate(1011.474609 0)"/>
    <use xlink:href="#DejaVuSans-64" transform="translate(1072.998047 0)"/>
    <use xlink:href="#DejaVuSans-20" transform="translate(1136.474609 0)"/>
    <use xlink:href="#DejaVuSans-61" transform="translate(1168.261719 0)"/>
    <use xlink:href="#DejaVuSans-74" transform="translate(1229.541016 0)"/>
    <use xlink:href="#DejaVuSans-3a" transform="translate(1268.75 0)"/>
    <use xlink:href="#DejaVuSans-20" transform="translate(1302.441406 0)"/>
    <use xlink:href="#DejaVuSans-32" transform="translate(1334.228516 0)"/>
    <use xlink:href="#DejaVuSans-30" transform="translate(1397.851562 0)"/>
    <use xlink:href="#DejaVuSans-32" transform="translate(1461.474609 0)"/>
    <use xlink:href="#DejaVuSans-35" transform="translate(1525.097656 0)"/>
    <use xlink:href="#DejaVuSans-2d" transform="translate(1588.720703 0)"/>
    <use xlink:href="#DejaVuSans-30" transform="translate(1624.804688 0)"/>
    <use xlink:href="#DejaVuSans-31" transform="translate(1688.427734 0)"/>
    <use xlink:href="#DejaVuSans-2d" transform="translate(1752.050781 0)"/>
    <use xlink:href="#DejaVuSans-32" transform="translate(1788.134766 0)"/>
    <use xlink:href="#DejaVuSans-37" transform="translate(1851.757812 0)"/>
    <use xlink:href="#DejaVuSans-20" transform="translate(1915.380859 0)"/>
    <use xlink:href="#DejaVuSans-30" transform="translate(1947.167969 0)"/>
    <use xlink:href="#DejaVuSans-36" transform="translate(2010.791016 0)"/>
    <use xlink:href="#DejaVuSans-3a" transform="translate(2074.414062 0)"/>
    <use xlink:href="#DejaVuSans-34" transform="translate(2108.105469 0)"/>
    <use xlink:href="#DejaVuSans-30" transform="translate(2171.728516 0)"/>
    <use xlink:href="#DejaVuSans-3a" transform="translate(2235.351562 0)"/>
    <use xlink:href="#DejaVuSans-30" transform="translate(2269.042969 0)"/>
    <use xlink:href="#DejaVuSans-39" transform="translate(2332.666016 0)"/>
    <use xlink:href="#DejaVuSans-20" transform="translate(2396.289062 0)"/>
    <use xlink:href="#DejaVuSans-55" transform="translate(2428.076172 0)"/>
    <use xlink:href="#DejaVuSans-54" transform="translate(2501.269531 0)"/>
    <use xlink:href="#DejaVuSans-43" transform="translate(2556.478516 0)"/>
   </g>
  </g>
 </g>
</svg>
