<svg width="1280" height="640" viewBox="0 0 1280 640" xmlns="http://www.w3.org/2000/svg">
     <rect width="100%" height="100%" fill="#ffffff"/>
     <text x="640" y="50" font-size="32" font-weight="bold" text-anchor="middle" fill="#000000">VADIM4WEB's Lang Stack (updated: 2025-03-23 01:41:10)</text>
      <path d="M 890 360 A 250 250 0 0 1 475.8431324160624 548.5537664037225 
              L 521.807055339565 495.7587118106802 
              A 180 180 0 0 0 
              820 360 Z" 
              fill="#41b883" style="filter: drop-shadow(0 0 5px #41b883)" />
    
      <text x="760.1616197975947" y="598.4507664841185" font-size="18" text-anchor="middle" fill="#41b883" style="filter: invert(1)">Vue</text>
    
      <path d="M 475.8431324160624 548.5537664037225 A 250 250 0 0 1 507.1701766319654 148.20708693627938 
              L 544.3625271750151 207.50910259412115 
              A 180 180 0 0 0 
              521.807055339565 495.7587118106802 Z" 
              fill="#f1e05a" style="filter: drop-shadow(0 0 5px #f1e05a)" />
    
      <text x="350.8837828253423" y="339.5610333220277" font-size="18" text-anchor="middle" fill="#f1e05a" style="filter: invert(1)">JavaScript</text>
    
      <path d="M 507.1701766319654 148.20708693627938 A 250 250 0 0 1 716.0405541341842 121.84493680174211 
              L 694.7491989766125 188.52835449725433 
              A 180 180 0 0 0 
              544.3625271750151 207.50910259412115 Z" 
              fill="#e34c26" style="filter: drop-shadow(0 0 5px #e34c26)" />
    
      <text x="603.6863298780331" y="100.06218732783805" font-size="18" text-anchor="middle" fill="#e34c26" style="filter: invert(1)">HTML</text>
    
      <path d="M 716.0405541341842 121.84493680174211 A 250 250 0 0 1 883.1660577012883 301.94598737370785 
              L 815.0795615449276 318.20111090906966 
              A 180 180 0 0 0 
              694.7491989766125 188.52835449725433 Z" 
              fill="#663399" style="filter: drop-shadow(0 0 5px #663399)" />
    
      <text x="852.5755383791909" y="181.7854888029528" font-size="18" text-anchor="middle" fill="#663399" style="filter: invert(1)">CSS</text>
    
      <path d="M 883.1660577012883 301.94598737370785 A 250 250 0 0 1 883.1725113832574 301.97302603478647 
              L 815.0842081959453 318.2205787450462 
              A 180 180 0 0 0 
              815.0795615449276 318.20111090906966 Z" 
              fill="#3B2F63" style="filter: drop-shadow(0 0 5px #3B2F63)" />
    
      <text x="922.0763705049794" y="299.17356293204506" font-size="18" text-anchor="middle" fill="#3B2F63" style="filter: invert(1)">Procfile</text>
    
      <path d="M 883.1725113832574 301.97302603478647 A 250 250 0 0 1 885.0553852745934 310.5241660209697 
              L 816.4398773977073 324.3773995350982 
              A 180 180 0 0 0 
              815.0842081959453 318.2205787450462 Z" 
              fill="#a53b70" style="filter: drop-shadow(0 0 5px #a53b70)" />
    
      <text x="923.2156100922973" y="303.65988909666333" font-size="18" text-anchor="middle" fill="#a53b70" style="filter: invert(1)">Sass</text>
    
      <path d="M 885.0553852745934 310.5241660209697 A 250 250 0 0 1 889.3930609050676 342.59019895572413 
              L 819.5630038516487 347.46494324812136 
              A 180 180 0 0 0 
              816.4398773977073 324.3773995350982 Z" 
              fill="#c6538c" style="filter: drop-shadow(0 0 5px #c6538c)" />
    
      <text x="927.3825356352936" y="324.8783020182994" font-size="18" text-anchor="middle" fill="#c6538c" style="filter: invert(1)">SCSS</text>
    
      <path d="M 889.3930609050676 342.59019895572413 A 250 250 0 0 1 890 359.99999999999994 
              L 820 359.99999999999994 
              A 180 180 0 0 0 
              819.5630038516487 347.46494324812136 Z" 
              fill="#3178c6" style="filter: drop-shadow(0 0 5px #3178c6)" />
    
      <text x="929.8239342156412" y="350.87172226183463" font-size="18" text-anchor="middle" fill="#3178c6" style="filter: invert(1)">TypeScript</text>
    </svg>