<svg width="1280" height="640" viewBox="0 0 1280 640" xmlns="http://www.w3.org/2000/svg">
     <rect width="100%" height="100%" fill="#ffffff"/>
     <text x="640" y="50" font-size="32" font-weight="bold" text-anchor="middle" fill="#000000">VADIM4WEB's Lang Stack (updated: 2025-09-07 01:41:27)</text>
      <path d="M 890 360 A 250 250 0 0 1 527.6612628631926 583.3383266224301 
              L 559.1161092614987 520.8035951681497 
              A 180 180 0 0 0 
              820 360 Z" 
              fill="#41b883" style="filter: drop-shadow(0 0 5px #41b883)" />
    
      <text x="792.1664365541527" y="583.0353347432599" font-size="18" text-anchor="middle" fill="#41b883" style="filter: invert(1)">Vue</text>
    
      <path d="M 527.6612628631926 583.3383266224301 A 250 250 0 0 1 409.19469437390785 263.93277929050834 
              L 473.82017994921364 290.831601089166 
              A 180 180 0 0 0 
              559.1161092614987 520.8035951681497 Z" 
              fill="#f1e05a" style="filter: drop-shadow(0 0 5px #f1e05a)" />
    
      <text x="368.0995274385792" y="451.11011820613805" font-size="18" text-anchor="middle" fill="#f1e05a" style="filter: invert(1)">JavaScript</text>
    
      <path d="M 409.19469437390785 263.93277929050834 A 250 250 0 0 1 652.4263021029367 110.30901695085873 
              L 648.9469375141144 180.22249220461828 
              A 180 180 0 0 0 
              473.82017994921364 290.831601089166 Z" 
              fill="#e34c26" style="filter: drop-shadow(0 0 5px #e34c26)" />
    
      <text x="485.13929451398474" y="138.4834697156099" font-size="18" text-anchor="middle" fill="#e34c26" style="filter: invert(1)">HTML</text>
    
      <path d="M 652.4263021029367 110.30901695085873 A 250 250 0 0 1 860.210455682994 241.64732699305807 
              L 798.5515280917557 274.7860754350018 
              A 180 180 0 0 0 
              648.9469375141144 180.22249220461828 Z" 
              fill="#663399" style="filter: drop-shadow(0 0 5px #663399)" />
    
      <text x="794.9475321899463" y="138.53303359780855" font-size="18" text-anchor="middle" fill="#663399" style="filter: invert(1)">CSS</text>
    
      <path d="M 860.210455682994 241.64732699305807 A 250 250 0 0 1 886.5429498155601 318.56844323173186 
              L 817.5109238672032 330.16927912684696 
              A 180 180 0 0 0 
              798.5515280917557 274.7860754350018 Z" 
              fill="#3178c6" style="filter: drop-shadow(0 0 5px #3178c6)" />
    
      <text x="914.3685691333502" y="275.1437041488001" font-size="18" text-anchor="middle" fill="#3178c6" style="filter: invert(1)">TypeScript</text>
    
      <path d="M 886.5429498155601 318.56844323173186 A 250 250 0 0 1 886.5476064746637 318.5961627187242 
              L 817.5142766617579 330.1892371574814 
              A 180 180 0 0 0 
              817.5109238672032 330.16927912684696 Z" 
              fill="#3B2F63" style="filter: drop-shadow(0 0 5px #3B2F63)" />
    
      <text x="925.9925231002292" y="316.59425344945316" font-size="18" text-anchor="middle" fill="#3B2F63" style="filter: invert(1)">Procfile</text>
    
      <path d="M 886.5476064746637 318.5961627187242 A 250 250 0 0 1 887.8590517249082 327.3520218385695 
              L 818.4585172419339 336.49345572377 
              A 180 180 0 0 0 
              817.5142766617579 330.1892371574814 Z" 
              fill="#a53b70" style="filter: drop-shadow(0 0 5px #a53b70)" />
    
      <text x="926.8008270219434" y="321.1907641104265" font-size="18" text-anchor="middle" fill="#a53b70" style="filter: invert(1)">Sass</text>
    
      <path d="M 887.8590517249082 327.3520218385695 A 250 250 0 0 1 890 359.9999999999997 
              L 820 359.9999999999998 
              A 180 180 0 0 0 
              818.4585172419339 336.49345572377 Z" 
              fill="#c6538c" style="filter: drop-shadow(0 0 5px #c6538c)" />
    
      <text x="929.3784589428342" y="342.85571503996755" font-size="18" text-anchor="middle" fill="#c6538c" style="filter: invert(1)">SCSS</text>
    </svg>