<svg width="1280" height="640" viewBox="0 0 1280 640" xmlns="http://www.w3.org/2000/svg">
     <rect width="100%" height="100%" fill="#ffffff"/>
     <text x="640" y="50" font-size="32" font-weight="bold" text-anchor="middle" fill="#000000">VADIM4WEB's Lang Stack (updated: 2025-07-27 02:04:04)</text>
      <path d="M 890 360 A 250 250 0 0 1 518.0258685876072 578.2253680629095 
              L 552.1786253830771 517.1222650052948 
              A 180 180 0 0 0 
              820 360 Z" 
              fill="#41b883" style="filter: drop-shadow(0 0 5px #41b883)" />
    
      <text x="786.74450959554" y="585.9813809882235" font-size="18" text-anchor="middle" fill="#41b883" style="filter: invert(1)">Vue</text>
    
      <path d="M 518.0258685876072 578.2253680629095 A 250 250 0 0 1 400.5480603623359 288.1475915242887 
              L 467.59460346088184 308.26626589748787 
              A 180 180 0 0 0 
              552.1786253830771 517.1222650052948 Z" 
              fill="#f1e05a" style="filter: drop-shadow(0 0 5px #f1e05a)" />
    
      <text x="371.20649725609525" y="458.34752560002033" font-size="18" text-anchor="middle" fill="#f1e05a" style="filter: invert(1)">JavaScript</text>
    
      <path d="M 400.5480603623359 288.1475915242887 A 250 250 0 0 1 657.8307996327244 110.63668556811001 
              L 652.8381757355615 180.4584136090392 
              A 180 180 0 0 0 
              467.59460346088184 308.26626589748787 Z" 
              fill="#e34c26" style="filter: drop-shadow(0 0 5px #e34c26)" />
    
      <text x="475.3105841251147" y="144.34745236277266" font-size="18" text-anchor="middle" fill="#e34c26" style="filter: invert(1)">HTML</text>
    
      <path d="M 657.8307996327244 110.63668556811001 A 250 250 0 0 1 863.3514484374716 247.68735386928387 
              L 800.8130428749796 279.1348947858844 
              A 180 180 0 0 0 
              652.8381757355615 180.4584136090392 Z" 
              fill="#663399" style="filter: drop-shadow(0 0 5px #663399)" />
    
      <text x="800.8930479963622" y="142.02088891561698" font-size="18" text-anchor="middle" fill="#663399" style="filter: invert(1)">CSS</text>
    
      <path d="M 863.3514484374716 247.68735386928387 A 250 250 0 0 1 886.0617718443414 315.80040230020967 
              L 817.1644757279257 328.17628965615097 
              A 180 180 0 0 0 
              800.8130428749796 279.1348947858844 Z" 
              fill="#3178c6" style="filter: drop-shadow(0 0 5px #3178c6)" />
    
      <text x="915.1109169058429" y="277.12870626516496" font-size="18" text-anchor="middle" fill="#3178c6" style="filter: invert(1)">TypeScript</text>
    
      <path d="M 886.0617718443414 315.80040230020967 A 250 250 0 0 1 886.0670749384283 315.829935122915 
              L 817.1682939556683 328.1975532884988 
              A 180 180 0 0 0 
              817.1644757279257 328.17628965615097 Z" 
              fill="#3B2F63" style="filter: drop-shadow(0 0 5px #3B2F63)" />
    
      <text x="925.4347316479661" y="313.6942967263384" font-size="18" text-anchor="middle" fill="#3B2F63" style="filter: invert(1)">Procfile</text>
    
      <path d="M 886.0670749384283 315.829935122915 A 250 250 0 0 1 887.5607585956224 325.1622216041266 
              L 818.2437461888481 334.9167995549712 
              A 180 180 0 0 0 
              817.1682939556683 328.1975532884988 Z" 
              fill="#a53b70" style="filter: drop-shadow(0 0 5px #a53b70)" />
    
      <text x="926.355304055937" y="318.59249220647683" font-size="18" text-anchor="middle" fill="#a53b70" style="filter: invert(1)">Sass</text>
    
      <path d="M 887.5607585956224 325.1622216041266 A 250 250 0 0 1 890 359.9999999999997 
              L 820 359.9999999999998 
              A 180 180 0 0 0 
              818.2437461888481 334.9167995549712 Z" 
              fill="#c6538c" style="filter: drop-shadow(0 0 5px #c6538c)" />
    
      <text x="929.2917551465712" y="341.7003121905263" font-size="18" text-anchor="middle" fill="#c6538c" style="filter: invert(1)">SCSS</text>
    </svg>