<svg width="1280" height="640" viewBox="0 0 1280 640" xmlns="http://www.w3.org/2000/svg">
     <rect width="100%" height="100%" fill="#ffffff"/>
     <text x="640" y="50" font-size="32" font-weight="bold" text-anchor="middle" fill="#000000">VADIM4WEB's Lang Stack (updated: 2025-07-06 01:56:18)</text>
      <path d="M 890 360 A 250 250 0 0 1 460.4464155023678 533.955483656169 
              L 510.72141916170483 485.2479482324417 
              A 180 180 0 0 0 
              820 360 Z" 
              fill="#41b883" style="filter: drop-shadow(0 0 5px #41b883)" />
    
      <text x="748.8535120586298" y="602.8426496901047" font-size="18" text-anchor="middle" fill="#41b883" style="filter: invert(1)">Vue</text>
    
      <path d="M 460.4464155023678 533.955483656169 A 250 250 0 0 1 422.17093060310634 237.31953486523093 
              L 483.16307003423657 271.6700651029663 
              A 180 180 0 0 0 
              510.72141916170483 485.2479482324417 Z" 
              fill="#f1e05a" style="filter: drop-shadow(0 0 5px #f1e05a)" />
    
      <text x="352.38440373716116" y="393.52838586038786" font-size="18" text-anchor="middle" fill="#f1e05a" style="filter: invert(1)">JavaScript</text>
    
      <path d="M 422.17093060310634 237.31953486523093 A 250 250 0 0 1 653.133689850874 110.34522598015266 
              L 649.4562566926293 180.2485627057099 
              A 180 180 0 0 0 
              483.16307003423657 271.6700651029663 Z" 
              fill="#e34c26" style="filter: drop-shadow(0 0 5px #e34c26)" />
    
      <text x="500.2902030150161" y="130.40826148490686" font-size="18" text-anchor="middle" fill="#e34c26" style="filter: invert(1)">HTML</text>
    
      <path d="M 653.133689850874 110.34522598015266 A 250 250 0 0 1 865.677745979053 252.43813422121204 
              L 802.4879771049182 282.5554566392727 
              A 180 180 0 0 0 
              649.4562566926293 180.2485627057099 Z" 
              fill="#663399" style="filter: drop-shadow(0 0 5px #663399)" />
    
      <text x="801.1745765548903" y="142.19071345688693" font-size="18" text-anchor="middle" fill="#663399" style="filter: invert(1)">CSS</text>
    
      <path d="M 865.677745979053 252.43813422121204 A 250 250 0 0 1 885.3126707593107 311.81604452793397 
              L 816.6251229467036 325.30755206011247 
              A 180 180 0 0 0 
              802.4879771049182 282.5554566392727 Z" 
              fill="#3178c6" style="filter: drop-shadow(0 0 5px #3178c6)" />
    
      <text x="915.3367633847533" y="277.743196492125" font-size="18" text-anchor="middle" fill="#3178c6" style="filter: invert(1)">TypeScript</text>
    
      <path d="M 885.3126707593107 311.81604452793397 A 250 250 0 0 1 885.3189793912226 311.84817396558157 
              L 816.6296651616802 325.3306852552187 
              A 180 180 0 0 0 
              816.6251229467036 325.30755206011247 Z" 
              fill="#3B2F63" style="filter: drop-shadow(0 0 5px #3B2F63)" />
    
      <text x="924.5663576974762" y="309.5200503823631" font-size="18" text-anchor="middle" fill="#3B2F63" style="filter: invert(1)">Procfile</text>
    
      <path d="M 885.3189793912226 311.84817396558157 A 250 250 0 0 1 887.0962273257368 322.0071790809395 
              L 817.9092836745305 332.64516893827647 
              A 180 180 0 0 0 
              816.6296651616802 325.3306852552187 Z" 
              fill="#a53b70" style="filter: drop-shadow(0 0 5px #a53b70)" />
    
      <text x="925.6615945776853" y="314.8505994333361" font-size="18" text-anchor="middle" fill="#a53b70" style="filter: invert(1)">Sass</text>
    
      <path d="M 887.0962273257368 322.0071790809395 A 250 250 0 0 1 890 359.9999999999997 
              L 820 359.9999999999998 
              A 180 180 0 0 0 
              817.9092836745305 332.64516893827647 Z" 
              fill="#c6538c" style="filter: drop-shadow(0 0 5px #c6538c)" />
    
      <text x="929.1566797364171" y="340.0336998193393" font-size="18" text-anchor="middle" fill="#c6538c" style="filter: invert(1)">SCSS</text>
    </svg>