<svg width="1280" height="640" viewBox="0 0 1280 640" xmlns="http://www.w3.org/2000/svg">
     <rect width="100%" height="100%" fill="#ffffff"/>
     <text x="640" y="50" font-size="32" font-weight="bold" text-anchor="middle" fill="#000000">VADIM4WEB's Lang Stack (updated: 2025-03-09 01:15:37)</text>
      <path d="M 890 360 A 250 250 0 0 1 465.3545726798056 538.8825724215377 
              L 514.25529232946 488.7954521435072 
              A 180 180 0 0 0 
              820 360 Z" 
              fill="#41b883" style="filter: drop-shadow(0 0 5px #41b883)" />
    
      <text x="752.5816997772876" y="601.4512816821125" font-size="18" text-anchor="middle" fill="#41b883" style="filter: invert(1)">Vue</text>
    
      <path d="M 465.3545726798056 538.8825724215377 A 250 250 0 0 1 545.3303902702639 128.6179242170659 
              L 571.83788099459 193.40490543628744 
              A 180 180 0 0 0 
              514.25529232946 488.7954521435072 Z" 
              fill="#f1e05a" style="filter: drop-shadow(0 0 5px #f1e05a)" />
    
      <text x="355.3578449360075" y="309.87006925177104" font-size="18" text-anchor="middle" fill="#f1e05a" style="filter: invert(1)">JavaScript</text>
    
      <path d="M 545.3303902702639 128.6179242170659 A 250 250 0 0 1 728.3482751578582 126.13127127246923 
              L 703.610758113658 191.61451531617786 
              A 180 180 0 0 0 
              571.83788099459 193.40490543628744 Z" 
              fill="#e34c26" style="filter: drop-shadow(0 0 5px #e34c26)" />
    
      <text x="636.0601511618701" y="98.02417989772312" font-size="18" text-anchor="middle" fill="#e34c26" style="filter: invert(1)">HTML</text>
    
      <path d="M 728.3482751578582 126.13127127246923 A 250 250 0 0 1 881.2807915788068 294.5509387759885 
              L 813.7221699367409 312.8766759187117 
              A 180 180 0 0 0 
              703.610758113658 191.61451531617786 Z" 
              fill="#663399" style="filter: drop-shadow(0 0 5px #663399)" />
    
      <text x="854.694429903872" y="183.87090662344107" font-size="18" text-anchor="middle" fill="#663399" style="filter: invert(1)">CSS</text>
    
      <path d="M 881.2807915788068 294.5509387759885 A 250 250 0 0 1 881.287064023413 294.5740668009892 
              L 813.7266860968573 312.89332809671225 
              A 180 180 0 0 0 
              813.7221699367409 312.8766759187117 Z" 
              fill="#3B2F63" style="filter: drop-shadow(0 0 5px #3B2F63)" />
    
      <text x="919.8893565707399" y="291.42150284357405" font-size="18" text-anchor="middle" fill="#3B2F63" style="filter: invert(1)">Procfile</text>
    
      <path d="M 881.287064023413 294.5740668009892 A 250 250 0 0 1 883.1522550741913 301.88820384521364 
              L 815.0696236534177 318.1595067685538 
              A 180 180 0 0 0 
              813.7266860968573 312.89332809671225 Z" 
              fill="#a53b70" style="filter: drop-shadow(0 0 5px #a53b70)" />
    
      <text x="921.0068279318409" y="295.2588520747216" font-size="18" text-anchor="middle" fill="#a53b70" style="filter: invert(1)">Sass</text>
    
      <path d="M 883.1522550741913 301.88820384521364 A 250 250 0 0 1 888.1131738744309 329.34297878207354 
              L 818.6414851895903 337.92694472309296 
              A 180 180 0 0 0 
              815.0696236534177 318.1595067685538 Z" 
              fill="#c6538c" style="filter: drop-shadow(0 0 5px #c6538c)" />
    
      <text x="925.3785584221416" y="313.4125581211894" font-size="18" text-anchor="middle" fill="#c6538c" style="filter: invert(1)">SCSS</text>
    
      <path d="M 888.1131738744309 329.34297878207354 A 250 250 0 0 1 890 359.9999999999997 
              L 820 359.9999999999998 
              A 180 180 0 0 0 
              818.6414851895903 337.92694472309296 Z" 
              fill="#3178c6" style="filter: drop-shadow(0 0 5px #3178c6)" />
    
      <text x="929.4523032309111" y="343.9053243236427" font-size="18" text-anchor="middle" fill="#3178c6" style="filter: invert(1)">TypeScript</text>
    </svg>