<svg width="1280" height="640" viewBox="0 0 1280 640" xmlns="http://www.w3.org/2000/svg">
     <rect width="100%" height="100%" fill="#ffffff"/>
     <text x="640" y="50" font-size="32" font-weight="bold" text-anchor="middle" fill="#000000">VADIM4WEB's Lang Stack (updated: 2025-06-01 02:02:04)</text>
      <path d="M 890 360 A 250 250 0 0 1 517.4080322528812 577.8788870998964 
              L 551.7337832220744 516.8727987119254 
              A 180 180 0 0 0 
              820 360 Z" 
              fill="#41b883" style="filter: drop-shadow(0 0 5px #41b883)" />
    
      <text x="786.3899963280778" y="586.1689768028905" font-size="18" text-anchor="middle" fill="#41b883" style="filter: invert(1)">Vue</text>
    
      <path d="M 517.4080322528812 577.8788870998964 A 250 250 0 0 1 421.5169034905338 238.48812181669115 
              L 482.69217051318435 272.5114477080176 
              A 180 180 0 0 0 
              551.7337832220744 516.8727987119254 Z" 
              fill="#f1e05a" style="filter: drop-shadow(0 0 5px #f1e05a)" />
    
      <text x="360.92518369051936" y="431.2364634556919" font-size="18" text-anchor="middle" fill="#f1e05a" style="filter: invert(1)">JavaScript</text>
    
      <path d="M 421.5169034905338 238.48812181669115 A 250 250 0 0 1 675.2203903937234 112.49338574390842 
              L 665.3586810834809 181.79523773561405 
              A 180 180 0 0 0 
              482.69217051318435 272.5114477080176 Z" 
              fill="#e34c26" style="filter: drop-shadow(0 0 5px #e34c26)" />
    
      <text x="511.0104345483096" y="125.34386769654208" font-size="18" text-anchor="middle" fill="#e34c26" style="filter: invert(1)">HTML</text>
    
      <path d="M 675.2203903937234 112.49338574390842 A 250 250 0 0 1 881.3203293100136 294.69687096542305 
              L 813.7506371032098 312.9817470951046 
              A 180 180 0 0 0 
              665.3586810834809 181.79523773561405 Z" 
              fill="#663399" style="filter: drop-shadow(0 0 5px #663399)" />
    
      <text x="832.0779964616752" y="163.70822893285947" font-size="18" text-anchor="middle" fill="#663399" style="filter: invert(1)">CSS</text>
    
      <path d="M 881.3203293100136 294.69687096542305 A 250 250 0 0 1 884.5864399508397 308.2556921761021 
              L 816.1022367646045 322.74409836679354 
              A 180 180 0 0 0 
              813.7506371032098 312.9817470951046 Z" 
              fill="#3178c6" style="filter: drop-shadow(0 0 5px #3178c6)" />
    
      <text x="921.9356256089723" y="298.6432695554093" font-size="18" text-anchor="middle" fill="#3178c6" style="filter: invert(1)">TypeScript</text>
    
      <path d="M 884.5864399508397 308.2556921761021 A 250 250 0 0 1 884.5937224472002 308.29012725385985 
              L 816.1074801619841 322.7688916227791 
              A 180 180 0 0 0 
              816.1022367646045 322.74409836679354 Z" 
              fill="#3B2F63" style="filter: drop-shadow(0 0 5px #3B2F63)" />
    
      <text x="923.7244948938242" y="305.7900092469885" font-size="18" text-anchor="middle" fill="#3B2F63" style="filter: invert(1)">Procfile</text>
    
      <path d="M 884.5937224472002 308.29012725385985 A 250 250 0 0 1 886.6457076762995 319.18462440626763 
              L 817.5849095269356 330.6129295725127 
              A 180 180 0 0 0 
              816.1074801619841 322.7688916227791 Z" 
              fill="#a53b70" style="filter: drop-shadow(0 0 5px #a53b70)" />
    
      <text x="924.9889287673038" y="311.5048482272259" font-size="18" text-anchor="middle" fill="#a53b70" style="filter: invert(1)">Sass</text>
    
      <path d="M 886.6457076762995 319.18462440626763 A 250 250 0 0 1 890 359.9999999999997 
              L 820 359.9999999999998 
              A 180 180 0 0 0 
              817.5849095269356 330.6129295725127 Z" 
              fill="#c6538c" style="filter: drop-shadow(0 0 5px #c6538c)" />
    
      <text x="929.0256182955995" y="338.54064109680326" font-size="18" text-anchor="middle" fill="#c6538c" style="filter: invert(1)">SCSS</text>
    </svg>