<svg width="1280" height="640" viewBox="0 0 1280 640" xmlns="http://www.w3.org/2000/svg">
     <rect width="100%" height="100%" fill="#ffffff"/>
     <text x="640" y="50" font-size="32" font-weight="bold" text-anchor="middle" fill="#000000">VADIM4WEB's Lang Stack (updated: 2026-03-01 02:33:20)</text>
      <path d="M 890 360 A 250 250 0 0 1 476.7740334644799 549.3601960511903 
              L 522.4773040944254 496.3393411568571 
              A 180 180 0 0 0 
              820 360 Z" 
              fill="#41b883" style="filter: drop-shadow(0 0 5px #41b883)" />
    
      <text x="760.811391965847" y="598.1826326450534" font-size="18" text-anchor="middle" fill="#41b883" style="filter: invert(1)">Vue</text>
    
      <path d="M 476.7740334644799 549.3601960511903 A 250 250 0 0 1 448.7267754394516 199.02002122558832 
              L 502.28327831640513 244.0944152824236 
              A 180 180 0 0 0 
              522.4773040944254 496.3393411568571 Z" 
              fill="#f1e05a" style="filter: drop-shadow(0 0 5px #f1e05a)" />
    
      <text x="350.92488438770874" y="380.9080952030256" font-size="18" text-anchor="middle" fill="#f1e05a" style="filter: invert(1)">JavaScript</text>
    
      <path d="M 448.7267754394516 199.02002122558832 A 250 250 0 0 1 638.0817989576855 110.00735909879015 
              L 638.6188952495336 180.0052985511289 
              A 180 180 0 0 0 
              502.28327831640513 244.0944152824236 Z" 
              fill="#e34c26" style="filter: drop-shadow(0 0 5px #e34c26)" />
    
      <text x="516.6273317544719" y="122.89140753497529" font-size="18" text-anchor="middle" fill="#e34c26" style="filter: invert(1)">HTML</text>
    
      <path d="M 638.0817989576855 110.00735909879015 A 250 250 0 0 1 850.9477520085454 225.83202348346592 
              L 791.8823814461526 263.3990569080955 
              A 180 180 0 0 0 
              638.6188952495336 180.0052985511289 Z" 
              fill="#663399" style="filter: drop-shadow(0 0 5px #663399)" />
    
      <text x="778.6050818605279" y="129.86238915444028" font-size="18" text-anchor="middle" fill="#663399" style="filter: invert(1)">CSS</text>
    
      <path d="M 850.9477520085454 225.83202348346592 A 250 250 0 0 1 884.4775789656937 307.743771825045 
              L 816.0238568552995 322.3755157140324 
              A 180 180 0 0 0 
              791.8823814461526 263.3990569080955 Z" 
              fill="#3178c6" style="filter: drop-shadow(0 0 5px #3178c6)" />
    
      <text x="908.3851007179644" y="260.74627557886924" font-size="18" text-anchor="middle" fill="#3178c6" style="filter: invert(1)">TypeScript</text>
    
      <path d="M 884.4775789656937 307.743771825045 A 250 250 0 0 1 885.4897279053446 312.7263975038935 
              L 816.7526040918481 325.96300620280334 
              A 180 180 0 0 0 
              816.0238568552995 322.3755157140324 Z" 
              fill="#3572A5" style="filter: drop-shadow(0 0 5px #3572A5)" />
    
      <text x="924.1957318551401" y="307.8436720717532" font-size="18" text-anchor="middle" fill="#3572A5" style="filter: invert(1)">Python</text>
    
      <path d="M 885.4897279053446 312.7263975038935 A 250 250 0 0 1 885.7158881809019 313.91635544501173 
              L 816.9154394902494 326.81977592040846 
              A 180 180 0 0 0 
              816.7526040918481 325.96300620280334 Z" 
              fill="#89e051" style="filter: drop-shadow(0 0 5px #89e051)" />
    
      <text x="924.9000933126656" y="311.08065900115275" font-size="18" text-anchor="middle" fill="#89e051" style="filter: invert(1)">Shell</text>
    
      <path d="M 885.7158881809019 313.91635544501173 A 250 250 0 0 1 885.7216556902753 313.9471181701968 
              L 816.9195920969983 326.8419250825417 
              A 180 180 0 0 0 
              816.9154394902494 326.81977592040846 Z" 
              fill="#3B2F63" style="filter: drop-shadow(0 0 5px #3B2F63)" />
    
      <text x="925.0337760037263" y="311.720460079779" font-size="18" text-anchor="middle" fill="#3B2F63" style="filter: invert(1)">Procfile</text>
    
      <path d="M 885.7216556902753 313.9471181701968 A 250 250 0 0 1 887.3462920073173 323.67078544434327 
              L 818.0893302452685 333.8429655199272 
              A 180 180 0 0 0 
              816.9195920969983 326.8419250825417 Z" 
              fill="#a53b70" style="filter: drop-shadow(0 0 5px #a53b70)" />
    
      <text x="926.0350140681453" y="316.8233880819031" font-size="18" text-anchor="middle" fill="#a53b70" style="filter: invert(1)">Sass</text>
    
      <path d="M 887.3462920073173 323.67078544434327 A 250 250 0 0 1 890 360.00000000000017 
              L 820 360.0000000000001 
              A 180 180 0 0 0 
              818.0893302452685 333.8429655199272 Z" 
              fill="#c6538c" style="filter: drop-shadow(0 0 5px #c6538c)" />
    
      <text x="929.2294008492753" y="340.9127722573596" font-size="18" text-anchor="middle" fill="#c6538c" style="filter: invert(1)">SCSS</text>
    </svg>