<svg width="1280" height="640" viewBox="0 0 1280 640" xmlns="http://www.w3.org/2000/svg">
     <rect width="100%" height="100%" fill="#ffffff"/>
     <text x="640" y="50" font-size="32" font-weight="bold" text-anchor="middle" fill="#000000">VADIM4WEB's Lang Stack (updated: 2025-04-27 01:45:31)</text>
      <path d="M 890 360 A 250 250 0 0 1 546.6850901747708 591.9317304818583 
              L 572.813264925835 526.990845946938 
              A 180 180 0 0 0 
              820 360 Z" 
              fill="#41b883" style="filter: drop-shadow(0 0 5px #41b883)" />
    
      <text x="802.3404822199209" y="577.1013987520257" font-size="18" text-anchor="middle" fill="#41b883" style="filter: invert(1)">Vue</text>
    
      <path d="M 546.6850901747708 591.9317304818583 A 250 250 0 0 1 425.57336446359443 231.46510990187332 
              L 485.612822413788 267.4548791293488 
              A 180 180 0 0 0 
              572.813264925835 526.990845946938 Z" 
              fill="#f1e05a" style="filter: drop-shadow(0 0 5px #f1e05a)" />
    
      <text x="365.10138784621824" y="443.44435808685984" font-size="18" text-anchor="middle" fill="#f1e05a" style="filter: invert(1)">JavaScript</text>
    
      <path d="M 425.57336446359443 231.46510990187332 A 250 250 0 0 1 663.634683726824 111.11970402393644 
              L 657.0169722833133 180.80618689723423 
              A 180 180 0 0 0 
              485.612822413788 267.4548791293488 Z" 
              fill="#e34c26" style="filter: drop-shadow(0 0 5px #e34c26)" />
    
      <text x="509.16585081527285" y="126.17888455765791" font-size="18" text-anchor="middle" fill="#e34c26" style="filter: invert(1)">HTML</text>
    
      <path d="M 663.634683726824 111.11970402393644 A 250 250 0 0 1 883.6855191326403 304.16660707913564 
              L 815.453573775501 319.79995709697766 
              A 180 180 0 0 0 
              657.0169722833133 180.80618689723423 Z" 
              fill="#663399" style="filter: drop-shadow(0 0 5px #663399)" />
    
      <text x="831.2480830878052" y="163.0479221183747" font-size="18" text-anchor="middle" fill="#663399" style="filter: invert(1)">CSS</text>
    
      <path d="M 883.6855191326403 304.16660707913564 A 250 250 0 0 1 883.6936642121068 304.20216829591936 
              L 815.4594382327169 319.82556117306194 
              A 180 180 0 0 0 
              815.453573775501 319.79995709697766 Z" 
              fill="#3B2F63" style="filter: drop-shadow(0 0 5px #3B2F63)" />
    
      <text x="922.6799270924148" y="301.5052381408225" font-size="18" text-anchor="middle" fill="#3B2F63" style="filter: invert(1)">Procfile</text>
    
      <path d="M 883.6936642121068 304.20216829591936 A 250 250 0 0 1 886.0002261957451 315.45913436357284 
              L 817.1201628609365 327.9305767417725 
              A 180 180 0 0 0 
              815.4594382327169 319.82556117306194 Z" 
              fill="#a53b70" style="filter: drop-shadow(0 0 5px #a53b70)" />
    
      <text x="924.0974905340499" y="307.4086324821537" font-size="18" text-anchor="middle" fill="#a53b70" style="filter: invert(1)">Sass</text>
    
      <path d="M 886.0002261957451 315.45913436357284 A 250 250 0 0 1 889.989568784384 357.7162532982497 
              L 819.9924895247565 358.3557023747398 
              A 180 180 0 0 0 
              817.1201628609365 327.9305767417725 Z" 
              fill="#c6538c" style="filter: drop-shadow(0 0 5px #c6538c)" />
    
      <text x="928.7162522851116" y="335.37501499675346" font-size="18" text-anchor="middle" fill="#c6538c" style="filter: invert(1)">SCSS</text>
    
      <path d="M 889.989568784384 357.7162532982497 A 250 250 0 0 1 890 359.99999999999994 
              L 820 359.99999999999994 
              A 180 180 0 0 0 
              819.9924895247565 358.3557023747398 Z" 
              fill="#3178c6" style="filter: drop-shadow(0 0 5px #3178c6)" />
    
      <text x="929.9969749316937" y="358.8033042452264" font-size="18" text-anchor="middle" fill="#3178c6" style="filter: invert(1)">TypeScript</text>
    </svg>