<svg width="1280" height="640" viewBox="0 0 1280 640" xmlns="http://www.w3.org/2000/svg">
     <rect width="100%" height="100%" fill="#ffffff"/>
     <text x="640" y="50" font-size="32" font-weight="bold" text-anchor="middle" fill="#000000">VADIM4WEB's Lang Stack (updated: 2025-11-23 01:56:20)</text>
      <path d="M 890 360 A 250 250 0 0 1 513.3338948773682 575.5358388135542 
              L 548.800404311705 515.185803945759 
              A 180 180 0 0 0 
              820 360 Z" 
              fill="#41b883" style="filter: drop-shadow(0 0 5px #41b883)" />
    
      <text x="784.0304173373573" y="587.4021465159815" font-size="18" text-anchor="middle" fill="#41b883" style="filter: invert(1)">Vue</text>
    
      <path d="M 513.3338948773682 575.5358388135542 A 250 250 0 0 1 418.03721611579164 244.967297822001 
              L 480.18679560337 277.17645443184074 
              A 180 180 0 0 0 
              548.800404311705 515.185803945759 Z" 
              fill="#f1e05a" style="filter: drop-shadow(0 0 5px #f1e05a)" />
    
      <text x="361.347776467495" y="432.5741654411249" font-size="18" text-anchor="middle" fill="#f1e05a" style="filter: invert(1)">JavaScript</text>
    
      <path d="M 418.03721611579164 244.967297822001 A 250 250 0 0 1 642.7970535022939 110.0156475062783 
              L 642.0138785216516 180.01126620452038 
              A 180 180 0 0 0 
              480.18679560337 277.17645443184074 Z" 
              fill="#e34c26" style="filter: drop-shadow(0 0 5px #e34c26)" />
    
      <text x="490.7183595821806" y="135.37908008586402" font-size="18" text-anchor="middle" fill="#e34c26" style="filter: invert(1)">HTML</text>
    
      <path d="M 642.7970535022939 110.0156475062783 A 250 250 0 0 1 856.7329005927163 235.3932192829468 
              L 796.0476884267557 270.28311788372173 
              A 180 180 0 0 0 
              642.0138785216516 180.01126620452038 Z" 
              fill="#663399" style="filter: drop-shadow(0 0 5px #663399)" />
    
      <text x="786.6298460558273" y="133.95787645587416" font-size="18" text-anchor="middle" fill="#663399" style="filter: invert(1)">CSS</text>
    
      <path d="M 856.7329005927163 235.3932192829468 A 250 250 0 0 1 885.3121642425762 311.8134658371934 
              L 816.6247582546548 325.30569540277924 
              A 180 180 0 0 0 
              796.0476884267557 270.28311788372173 Z" 
              fill="#3178c6" style="filter: drop-shadow(0 0 5px #3178c6)" />
    
      <text x="911.6268840557234" y="268.22621458691765" font-size="18" text-anchor="middle" fill="#3178c6" style="filter: invert(1)">TypeScript</text>
    
      <path d="M 885.3121642425762 311.8134658371934 A 250 250 0 0 1 886.1717452176954 316.4170692073826 
              L 817.2436565567407 328.6202898293155 
              A 180 180 0 0 0 
              816.6247582546548 325.30569540277924 Z" 
              fill="#3572A5" style="filter: drop-shadow(0 0 5px #3572A5)" />
    
      <text x="925.0731722356139" y="311.9106909234609" font-size="18" text-anchor="middle" fill="#3572A5" style="filter: invert(1)">Python</text>
    
      <path d="M 886.1717452176954 316.4170692073826 A 250 250 0 0 1 886.3637905396404 317.51608879893257 
              L 817.3819291885411 329.4115839352314 
              A 180 180 0 0 0 
              817.2436565567407 328.6202898293155 Z" 
              fill="#89e051" style="filter: drop-shadow(0 0 5px #89e051)" />
    
      <text x="925.6713219048798" y="314.9008625230793" font-size="18" text-anchor="middle" fill="#89e051" style="filter: invert(1)">Shell</text>
    
      <path d="M 886.3637905396404 317.51608879893257 A 250 250 0 0 1 886.3686879380172 317.5444985461256 
              L 817.3854553153724 329.43203895321045 
              A 180 180 0 0 0 
              817.3819291885411 329.4115839352314 Z" 
              fill="#3B2F63" style="filter: drop-shadow(0 0 5px #3B2F63)" />
    
      <text x="925.784837992072" y="315.49174769482914" font-size="18" text-anchor="middle" fill="#3B2F63" style="filter: invert(1)">Procfile</text>
    
      <path d="M 886.3686879380172 317.5444985461256 A 250 250 0 0 1 887.7479954244005 326.51969589159575 
              L 818.3785567055684 335.89418104194897 
              A 180 180 0 0 0 
              817.3854553153724 329.43203895321045 Z" 
              fill="#a53b70" style="filter: drop-shadow(0 0 5px #a53b70)" />
    
      <text x="926.6349501678368" y="320.2030743012433" font-size="18" text-anchor="middle" fill="#a53b70" style="filter: invert(1)">Sass</text>
    
      <path d="M 887.7479954244005 326.51969589159575 A 250 250 0 0 1 890 360.00000000000017 
              L 820 360.0000000000001 
              A 180 180 0 0 0 
              818.3785567055684 335.89418104194897 Z" 
              fill="#c6538c" style="filter: drop-shadow(0 0 5px #c6538c)" />
    
      <text x="929.3461816412723" y="342.41667823831636" font-size="18" text-anchor="middle" fill="#c6538c" style="filter: invert(1)">SCSS</text>
    </svg>