<svg width="1280" height="640" viewBox="0 0 1280 640" xmlns="http://www.w3.org/2000/svg">
     <rect width="100%" height="100%" fill="#ffffff"/>
     <text x="640" y="50" font-size="32" font-weight="bold" text-anchor="middle" fill="#000000">VADIM4WEB's Lang Stack (updated: 2025-02-16 01:36:06)</text>
      <path d="M 890 360 A 250 250 0 0 1 513.4463001648373 575.6018577332569 
              L 548.8813361186828 515.233337567945 
              A 180 180 0 0 0 
              820 360 Z" 
              fill="#41b883" style="filter: drop-shadow(0 0 5px #41b883)" />
    
      <text x="784.09603633593" y="587.3682131322886" font-size="18" text-anchor="middle" fill="#41b883" style="filter: invert(1)">Vue</text>
    
      <path d="M 513.4463001648373 575.6018577332569 A 250 250 0 0 1 521.6965264443912 139.76310902876105 
              L 554.8214990399617 201.42943850070796 
              A 180 180 0 0 0 
              548.8813361186828 515.233337567945 Z" 
              fill="#f1e05a" style="filter: drop-shadow(0 0 5px #f1e05a)" />
    
      <text x="350.0519435166794" y="355.04134930009485" font-size="18" text-anchor="middle" fill="#f1e05a" style="filter: invert(1)">JavaScript</text>
    
      <path d="M 521.6965264443912 139.76310902876105 A 250 250 0 0 1 712.3396455074836 120.69480639181356 
              L 692.0845447653882 187.70026060210577 
              A 180 180 0 0 0 
              554.8214990399617 201.42943850070796 Z" 
              fill="#e34c26" style="filter: drop-shadow(0 0 5px #e34c26)" />
    
      <text x="611.1379408686114" y="99.30079653919313" font-size="18" text-anchor="middle" fill="#e34c26" style="filter: invert(1)">HTML</text>
    
      <path d="M 712.3396455074836 120.69480639181356 A 250 250 0 0 1 880.8619297362336 293.0258945282758 
              L 813.4205894100883 311.77864406035854 
              A 180 180 0 0 0 
              692.0845447653882 187.70026060210577 Z" 
              fill="#663399" style="filter: drop-shadow(0 0 5px #663399)" />
    
      <text x="847.3394385989944" y="176.81963561940177" font-size="18" text-anchor="middle" fill="#663399" style="filter: invert(1)">CSS</text>
    
      <path d="M 880.8619297362336 293.0258945282758 A 250 250 0 0 1 880.8685854323472 293.04983531147934 
              L 813.42538151129 311.79588142426513 
              A 180 180 0 0 0 
              813.4205894100883 311.77864406035854 Z" 
              fill="#3B2F63" style="filter: drop-shadow(0 0 5px #3B2F63)" />
    
      <text x="919.4036991428179" y="289.82368234936973" font-size="18" text-anchor="middle" fill="#3B2F63" style="filter: invert(1)">Procfile</text>
    
      <path d="M 880.8685854323472 293.04983531147934 A 250 250 0 0 1 882.8463629582275 300.6228663712972 
              L 814.8493813299237 317.248463787334 
              A 180 180 0 0 0 
              813.42538151129 311.79588142426513 Z" 
              fill="#a53b70" style="filter: drop-shadow(0 0 5px #a53b70)" />
    
      <text x="920.5890512922246" y="293.79638359947313" font-size="18" text-anchor="middle" fill="#a53b70" style="filter: invert(1)">Sass</text>
    
      <path d="M 882.8463629582275 300.6228663712972 A 250 250 0 0 1 888.0798426171958 329.0744169492739 
              L 818.617486684381 337.7335802034772 
              A 180 180 0 0 0 
              814.8493813299237 317.248463787334 Z" 
              fill="#c6538c" style="filter: drop-shadow(0 0 5px #c6538c)" />
    
      <text x="925.2149808638172" y="312.60197703781546" font-size="18" text-anchor="middle" fill="#c6538c" style="filter: invert(1)">SCSS</text>
    
      <path d="M 888.0798426171958 329.0744169492739 A 250 250 0 0 1 890 360.00000000000017 
              L 820 360.0000000000001 
              A 180 180 0 0 0 
              818.617486684381 337.7335802034772 Z" 
              fill="#3178c6" style="filter: drop-shadow(0 0 5px #3178c6)" />
    
      <text x="929.4426187143358" y="343.7637884107647" font-size="18" text-anchor="middle" fill="#3178c6" style="filter: invert(1)">TypeScript</text>
    </svg>