<svg width="1280" height="640" viewBox="0 0 1280 640" xmlns="http://www.w3.org/2000/svg">
     <rect width="100%" height="100%" fill="#ffffff"/>
     <text x="640" y="50" font-size="32" font-weight="bold" text-anchor="middle" fill="#000000">VADIM4WEB's Lang Stack (updated: 2025-06-22 01:55:46)</text>
      <path d="M 890 360 A 250 250 0 0 1 487.122668650464 557.8093060486391 
              L 529.9283214283341 502.4227003550202 
              A 180 180 0 0 0 
              820 360 Z" 
              fill="#41b883" style="filter: drop-shadow(0 0 5px #41b883)" />
    
      <text x="767.8124910445299" y="595.1812557716178" font-size="18" text-anchor="middle" fill="#41b883" style="filter: invert(1)">Vue</text>
    
      <path d="M 487.122668650464 557.8093060486391 A 250 250 0 0 1 424.15924753111904 233.85417337990424 
              L 484.5946582224057 269.17500483353103 
              A 180 180 0 0 0 
              529.9283214283341 502.4227003550202 Z" 
              fill="#f1e05a" style="filter: drop-shadow(0 0 5px #f1e05a)" />
    
      <text x="355.32695193277107" y="409.98654236884363" font-size="18" text-anchor="middle" fill="#f1e05a" style="filter: invert(1)">JavaScript</text>
    
      <path d="M 424.15924753111904 233.85417337990424 A 250 250 0 0 1 656.1601515248981 110.52284773412148 
              L 651.6353090979267 180.37645036856748 
              A 180 180 0 0 0 
              484.5946582224057 269.17500483353103 Z" 
              fill="#e34c26" style="filter: drop-shadow(0 0 5px #e34c26)" />
    
      <text x="503.87539838434543" y="128.6570907773186" font-size="18" text-anchor="middle" fill="#e34c26" style="filter: invert(1)">HTML</text>
    
      <path d="M 656.1601515248981 110.52284773412148 A 250 250 0 0 1 871.3154353034294 265.16767750189297 
              L 806.5471134184692 291.72072780136295 
              A 180 180 0 0 0 
              651.6353090979267 180.37645036856748 Z" 
              fill="#663399" style="filter: drop-shadow(0 0 5px #663399)" />
    
      <text x="809.255875321821" y="147.25289567752856" font-size="18" text-anchor="middle" fill="#663399" style="filter: invert(1)">CSS</text>
    
      <path d="M 871.3154353034294 265.16767750189297 A 250 250 0 0 1 885.4289040806893 312.41162913324547 
              L 816.7088109380963 325.7363729759367 
              A 180 180 0 0 0 
              806.5471134184692 291.72072780136295 Z" 
              fill="#3178c6" style="filter: drop-shadow(0 0 5px #3178c6)" />
    
      <text x="917.8661032084041" y="285.00601793119233" font-size="18" text-anchor="middle" fill="#3178c6" style="filter: invert(1)">TypeScript</text>
    
      <path d="M 885.4289040806893 312.41162913324547 A 250 250 0 0 1 885.4350567564242 312.4433714928101 
              L 816.7132408646254 325.75922747482326 
              A 180 180 0 0 0 
              816.7088109380963 325.7363729759367 Z" 
              fill="#3B2F63" style="filter: drop-shadow(0 0 5px #3B2F63)" />
    
      <text x="924.7010978807975" y="310.14402022381097" font-size="18" text-anchor="middle" fill="#3B2F63" style="filter: invert(1)">Procfile</text>
    
      <path d="M 885.4350567564242 312.4433714928101 A 250 250 0 0 1 887.1683174396444 322.4790344733081 
              L 817.9611885565439 332.9849048207818 
              A 180 180 0 0 0 
              816.7132408646254 325.75922747482326 Z" 
              fill="#a53b70" style="filter: drop-shadow(0 0 5px #a53b70)" />
    
      <text x="925.7692424257594" y="315.4100901495775" font-size="18" text-anchor="middle" fill="#a53b70" style="filter: invert(1)">Sass</text>
    
      <path d="M 887.1683174396444 322.4790344733081 A 250 250 0 0 1 890 359.99999999999994 
              L 820 359.99999999999994 
              A 180 180 0 0 0 
              817.9611885565439 332.9849048207818 Z" 
              fill="#c6538c" style="filter: drop-shadow(0 0 5px #c6538c)" />
    
      <text x="929.1776460816918" y="340.2831027961774" font-size="18" text-anchor="middle" fill="#c6538c" style="filter: invert(1)">SCSS</text>
    </svg>