<svg width="1280" height="640" viewBox="0 0 1280 640" xmlns="http://www.w3.org/2000/svg">
     <rect width="100%" height="100%" fill="#ffffff"/>
     <text x="640" y="50" font-size="32" font-weight="bold" text-anchor="middle" fill="#000000">VADIM4WEB's Lang Stack (updated: 2025-10-26 01:45:09)</text>
      <path d="M 890 360 A 250 250 0 0 1 525.9039165814997 582.4456871880384 
              L 557.8508199386798 520.1608947753876 
              A 180 180 0 0 0 
              820 360 Z" 
              fill="#41b883" style="filter: drop-shadow(0 0 5px #41b883)" />
    
      <text x="791.1920592128047" y="583.5755422678408" font-size="18" text-anchor="middle" fill="#41b883" style="filter: invert(1)">Vue</text>
    
      <path d="M 525.9039165814997 582.4456871880384 A 250 250 0 0 1 407.77174592695496 267.42550021639204 
              L 472.79565706740755 293.3463601558023 
              A 180 180 0 0 0 
              557.8508199386798 520.1608947753876 Z" 
              fill="#f1e05a" style="filter: drop-shadow(0 0 5px #f1e05a)" />
    
      <text x="368.46442530425594" y="451.99406897304056" font-size="18" text-anchor="middle" fill="#f1e05a" style="filter: invert(1)">JavaScript</text>
    
      <path d="M 407.77174592695496 267.42550021639204 A 250 250 0 0 1 649.2127986532273 110.16980898823479 
              L 646.6332150303236 180.12226247152904 
              A 180 180 0 0 0 
              472.79565706740755 293.3463601558023 Z" 
              fill="#e34c26" style="filter: drop-shadow(0 0 5px #e34c26)" />
    
      <text x="481.72773875277665" y="140.46041205564268" font-size="18" text-anchor="middle" fill="#e34c26" style="filter: invert(1)">HTML</text>
    
      <path d="M 649.2127986532273 110.16980898823479 A 250 250 0 0 1 858.4857311925996 238.4928592006417 
              L 797.3097264586718 272.514858624462 
              A 180 180 0 0 0 
              646.6332150303236 180.12226247152904 Z" 
              fill="#663399" style="filter: drop-shadow(0 0 5px #663399)" />
    
      <text x="791.5936555689768" y="136.6465294151106" font-size="18" text-anchor="middle" fill="#663399" style="filter: invert(1)">CSS</text>
    
      <path d="M 858.4857311925996 238.4928592006417 A 250 250 0 0 1 885.5638617035579 313.1130100642415 
              L 816.8059804265616 326.2413672462539 
              A 180 180 0 0 0 
              797.3097264586718 272.514858624462 Z" 
              fill="#3178c6" style="filter: drop-shadow(0 0 5px #3178c6)" />
    
      <text x="912.6062883504036" y="270.6279504756553" font-size="18" text-anchor="middle" fill="#3178c6" style="filter: invert(1)">TypeScript</text>
    
      <path d="M 885.5638617035579 313.1130100642415 A 250 250 0 0 1 886.3774029481802 317.595102682473 
              L 817.3917301226898 329.4684739313805 
              A 180 180 0 0 0 
              816.8059804265616 326.2413672462539 Z" 
              fill="#3572A5" style="filter: drop-shadow(0 0 5px #3572A5)" />
    
      <text x="925.3377758341779" y="313.2091091230905" font-size="18" text-anchor="middle" fill="#3572A5" style="filter: invert(1)">Python</text>
    
      <path d="M 886.3774029481802 317.595102682473 A 250 250 0 0 1 886.5591552659241 318.6649911751079 
              L 817.5225917914654 330.2387936460777 
              A 180 180 0 0 0 
              817.3917301226898 329.4684739313805 Z" 
              fill="#89e051" style="filter: drop-shadow(0 0 5px #89e051)" />
    
      <text x="925.9038771802736" y="316.12018582714956" font-size="18" text-anchor="middle" fill="#89e051" style="filter: invert(1)">Shell</text>
    
      <path d="M 886.5591552659241 318.6649911751079 A 250 250 0 0 1 886.563790146627 318.6926472824741 
              L 817.5259289055714 330.2587060433814 
              A 180 180 0 0 0 
              817.5225917914654 330.2387936460777 Z" 
              fill="#3B2F63" style="filter: drop-shadow(0 0 5px #3B2F63)" />
    
      <text x="926.0113087890852" y="316.6954024836685" font-size="18" text-anchor="middle" fill="#3B2F63" style="filter: invert(1)">Procfile</text>
    
      <path d="M 886.563790146627 318.6926472824741 A 250 250 0 0 1 887.8690965707526 327.42837177544084 
              L 818.4657495309419 336.5484276783174 
              A 180 180 0 0 0 
              817.5259289055714 330.2587060433814 Z" 
              fill="#a53b70" style="filter: drop-shadow(0 0 5px #a53b70)" />
    
      <text x="926.815830641499" y="321.2813721152281" font-size="18" text-anchor="middle" fill="#a53b70" style="filter: invert(1)">Sass</text>
    
      <path d="M 887.8690965707526 327.42837177544084 A 250 250 0 0 1 890 359.99999999999994 
              L 820 359.99999999999994 
              A 180 180 0 0 0 
              818.4657495309419 336.5484276783174 Z" 
              fill="#c6538c" style="filter: drop-shadow(0 0 5px #c6538c)" />
    
      <text x="929.3813781900981" y="342.8959808818361" font-size="18" text-anchor="middle" fill="#c6538c" style="filter: invert(1)">SCSS</text>
    </svg>