<svg width="1280" height="640" viewBox="0 0 1280 640" xmlns="http://www.w3.org/2000/svg">
     <rect width="100%" height="100%" fill="#ffffff"/>
     <text x="640" y="50" font-size="32" font-weight="bold" text-anchor="middle" fill="#000000">VADIM4WEB's Lang Stack (updated: 2025-05-11 01:48:18)</text>
      <path d="M 890 360 A 250 250 0 0 1 561.9115528986331 597.4914618029394 
              L 583.7763180870159 530.9938524981163 
              A 180 180 0 0 0 
              820 360 Z" 
              fill="#41b883" style="filter: drop-shadow(0 0 5px #41b883)" />
    
      <text x="810.045650334109" y="572.2324356116483" font-size="18" text-anchor="middle" fill="#41b883" style="filter: invert(1)">Vue</text>
    
      <path d="M 561.9115528986331 597.4914618029394 A 250 250 0 0 1 414.781605276504 251.47961169360124 
              L 477.8427557990829 281.8653204193929 
              A 180 180 0 0 0 
              583.7763180870159 530.9938524981163 Z" 
              fill="#f1e05a" style="filter: drop-shadow(0 0 5px #f1e05a)" />
    
      <text x="373.1248370939283" y="462.52305965855356" font-size="18" text-anchor="middle" fill="#f1e05a" style="filter: invert(1)">JavaScript</text>
    
      <path d="M 414.781605276504 251.47961169360124 A 250 250 0 0 1 666.8852118191753 111.44983326209965 
              L 659.3573525098062 181.04387994871175 
              A 180 180 0 0 0 
              477.8427557990829 281.8653204193929 Z" 
              fill="#e34c26" style="filter: drop-shadow(0 0 5px #e34c26)" />
    
      <text x="499.18489820668077" y="130.9600796975875" font-size="18" text-anchor="middle" fill="#e34c26" style="filter: invert(1)">HTML</text>
    
      <path d="M 666.8852118191753 111.44983326209965 A 250 250 0 0 1 883.8235848160804 304.772656342753 
              L 815.5529810675779 320.23631256678215 
              A 180 180 0 0 0 
              659.3573525098062 181.04387994871175 Z" 
              fill="#663399" style="filter: drop-shadow(0 0 5px #663399)" />
    
      <text x="832.9378229649628" y="164.39771789058585" font-size="18" text-anchor="middle" fill="#663399" style="filter: invert(1)">CSS</text>
    
      <path d="M 883.8235848160804 304.772656342753 A 250 250 0 0 1 883.8315525468547 304.80784491804616 
              L 815.5587178337354 320.2616483409932 
              A 180 180 0 0 0 
              815.5529810675779 320.23631256678215 Z" 
              fill="#3B2F63" style="filter: drop-shadow(0 0 5px #3B2F63)" />
    
      <text x="922.8399804068596" y="302.14018251002415" font-size="18" text-anchor="middle" fill="#3B2F63" style="filter: invert(1)">Procfile</text>
    
      <path d="M 883.8315525468547 304.80784491804616 A 250 250 0 0 1 886.0878146227263 315.9456302484002 
              L 817.183226528363 328.28085377884815 
              A 180 180 0 0 0 
              815.5587178337354 320.2616483409932 Z" 
              fill="#a53b70" style="filter: drop-shadow(0 0 5px #a53b70)" />
    
      <text x="924.2266530585141" y="307.9813837814819" font-size="18" text-anchor="middle" fill="#a53b70" style="filter: invert(1)">Sass</text>
    
      <path d="M 886.0878146227263 315.9456302484002 A 250 250 0 0 1 889.9897978084114 357.74146248435 
              L 819.9926544220561 358.373852988732 
              A 180 180 0 0 0 
              817.183226528363 328.28085377884815 Z" 
              fill="#c6538c" style="filter: drop-shadow(0 0 5px #c6538c)" />
    
      <text x="928.7444176244408" y="335.64605581454356" font-size="18" text-anchor="middle" fill="#c6538c" style="filter: invert(1)">SCSS</text>
    
      <path d="M 889.9897978084114 357.74146248435 A 250 250 0 0 1 890 359.9999999999997 
              L 820 359.9999999999998 
              A 180 180 0 0 0 
              819.9926544220561 358.373852988732 Z" 
              fill="#3178c6" style="filter: drop-shadow(0 0 5px #3178c6)" />
    
      <text x="929.9970413493469" y="358.81651426758947" font-size="18" text-anchor="middle" fill="#3178c6" style="filter: invert(1)">TypeScript</text>
    </svg>