<svg width="1280" height="640" viewBox="0 0 1280 640" xmlns="http://www.w3.org/2000/svg">
     <rect width="100%" height="100%" fill="#ffffff"/>
     <text x="640" y="50" font-size="32" font-weight="bold" text-anchor="middle" fill="#000000">VADIM4WEB's Lang Stack (updated: 2025-03-30 01:43:30)</text>
      <path d="M 890 360 A 250 250 0 0 1 496.2005811185294 564.5036115313159 
              L 536.4644184053411 507.24260030254743 
              A 180 180 0 0 0 
              820 360 Z" 
              fill="#41b883" style="filter: drop-shadow(0 0 5px #41b883)" />
    
      <text x="773.652301679158" y="592.5165254759311" font-size="18" text-anchor="middle" fill="#41b883" style="filter: invert(1)">Vue</text>
    
      <path d="M 496.2005811185294 564.5036115313159 A 250 250 0 0 1 470.6942839529062 176.05551241262802 
              L 518.0998844460925 227.55996893709218 
              A 180 180 0 0 0 
              536.4644184053411 507.24260030254743 Z" 
              fill="#f1e05a" style="filter: drop-shadow(0 0 5px #f1e05a)" />
    
      <text x="350.6231538064077" y="377.16648930161483" font-size="18" text-anchor="middle" fill="#f1e05a" style="filter: invert(1)">JavaScript</text>
    
      <path d="M 470.6942839529062 176.05551241262802 A 250 250 0 0 1 703.8916131771489 118.30212709744097 
              L 686.0019614875472 185.9775315101575 
              A 180 180 0 0 0 
              518.0998844460925 227.55996893709218 Z" 
              fill="#e34c26" style="filter: drop-shadow(0 0 5px #e34c26)" />
    
      <text x="570.2850939039271" y="105.68319076017187" font-size="18" text-anchor="middle" fill="#e34c26" style="filter: invert(1)">HTML</text>
    
      <path d="M 703.8916131771489 118.30212709744097 A 250 250 0 0 1 885.1417639865458 310.9539446074946 
              L 816.5020700703129 324.6868401173961 
              A 180 180 0 0 0 
              686.0019614875472 185.9775315101575 Z" 
              fill="#663399" style="filter: drop-shadow(0 0 5px #663399)" />
    
      <text x="851.2158622675262" y="180.4708023460787" font-size="18" text-anchor="middle" fill="#663399" style="filter: invert(1)">CSS</text>
    
      <path d="M 885.1417639865458 310.9539446074946 A 250 250 0 0 1 885.1480368055782 310.9853078111174 
              L 816.5065865000163 324.70942162400456 
              A 180 180 0 0 0 
              816.5020700703129 324.6868401173961 Z" 
              fill="#3B2F63" style="filter: drop-shadow(0 0 5px #3B2F63)" />
    
      <text x="924.3680850412483" y="308.6161681622214" font-size="18" text-anchor="middle" fill="#3B2F63" style="filter: invert(1)">Procfile</text>
    
      <path d="M 885.1480368055782 310.9853078111174 A 250 250 0 0 1 886.9237610794455 320.90196661747615 
              L 817.7851079772007 331.8494159645828 
              A 180 180 0 0 0 
              816.5065865000163 324.70942162400456 Z" 
              fill="#a53b70" style="filter: drop-shadow(0 0 5px #a53b70)" />
    
      <text x="925.459593138341" y="313.81955683613006" font-size="18" text-anchor="middle" fill="#a53b70" style="filter: invert(1)">Sass</text>
    
      <path d="M 886.9237610794455 320.90196661747615 A 250 250 0 0 1 889.9919822692897 357.99780094117887 
              L 819.9942272338885 358.5584166776488 
              A 180 180 0 0 0 
              817.7851079772007 331.8494159645828 Z" 
              fill="#c6538c" style="filter: drop-shadow(0 0 5px #c6538c)" />
    
      <text x="929.0131077740177" y="338.40355064990194" font-size="18" text-anchor="middle" fill="#c6538c" style="filter: invert(1)">SCSS</text>
    
      <path d="M 889.9919822692897 357.99780094117887 A 250 250 0 0 1 890 359.99999999999994 
              L 820 359.99999999999994 
              A 180 180 0 0 0 
              819.9942272338885 358.5584166776488 Z" 
              fill="#3178c6" style="filter: drop-shadow(0 0 5px #3178c6)" />
    
      <text x="929.9976748487727" y="358.950839281256" font-size="18" text-anchor="middle" fill="#3178c6" style="filter: invert(1)">TypeScript</text>
    </svg>