<svg width="1280" height="640" viewBox="0 0 1280 640" xmlns="http://www.w3.org/2000/svg">
     <rect width="100%" height="100%" fill="#ffffff"/>
     <text x="640" y="50" font-size="32" font-weight="bold" text-anchor="middle" fill="#000000">VADIM4WEB's Lang Stack (updated: 2025-09-21 01:43:32)</text>
      <path d="M 890 360 A 250 250 0 0 1 515.7228642505423 576.9220909218582 
              L 550.5204622603906 516.1839054637378 
              A 180 180 0 0 0 
              820 360 Z" 
              fill="#41b883" style="filter: drop-shadow(0 0 5px #41b883)" />
    
      <text x="785.4186568736668" y="586.6798610657142" font-size="18" text-anchor="middle" fill="#41b883" style="filter: invert(1)">Vue</text>
    
      <path d="M 515.7228642505423 576.9220909218582 A 250 250 0 0 1 411.95742280698903 257.5471670124753 
              L 475.80934442103205 286.2339602489822 
              A 180 180 0 0 0 
              550.5204622603906 516.1839054637378 Z" 
              fill="#f1e05a" style="filter: drop-shadow(0 0 5px #f1e05a)" />
    
      <text x="364.19214795213713" y="440.95838638550686" font-size="18" text-anchor="middle" fill="#f1e05a" style="filter: invert(1)">JavaScript</text>
    
      <path d="M 411.95742280698903 257.5471670124753 A 250 250 0 0 1 656.7596110514773 110.56240171657521 
              L 652.0669199570636 180.40492923593416 
              A 180 180 0 0 0 
              475.80934442103205 286.2339602489822 Z" 
              fill="#e34c26" style="filter: drop-shadow(0 0 5px #e34c26)" />
    
      <text x="490.71898186043734" y="135.37874252959426" font-size="18" text-anchor="middle" fill="#e34c26" style="filter: invert(1)">HTML</text>
    
      <path d="M 656.7596110514773 110.56240171657521 A 250 250 0 0 1 861.9400037878212 244.9233528527098 
              L 799.7968027272312 277.14481405395105 
              A 180 180 0 0 0 
              652.0669199570636 180.40492923593416 Z" 
              fill="#663399" style="filter: drop-shadow(0 0 5px #663399)" />
    
      <text x="798.8716995258866" y="140.81409542146085" font-size="18" text-anchor="middle" fill="#663399" style="filter: invert(1)">CSS</text>
    
      <path d="M 861.9400037878212 244.9233528527098 A 250 250 0 0 1 886.6524752961276 319.22554193746794 
              L 817.5897822132118 330.64239019497694 
              A 180 180 0 0 0 
              799.7968027272312 277.14481405395105 Z" 
              fill="#3178c6" style="filter: drop-shadow(0 0 5px #3178c6)" />
    
      <text x="915.1791199945901" y="277.3137410084531" font-size="18" text-anchor="middle" fill="#3178c6" style="filter: invert(1)">TypeScript</text>
    
      <path d="M 886.6524752961276 319.22554193746794 A 250 250 0 0 1 886.656984755377 319.2528298972102 
              L 817.5930290238715 330.6620375259913 
              A 180 180 0 0 0 
              817.5897822132118 330.64239019497694 Z" 
              fill="#3B2F63" style="filter: drop-shadow(0 0 5px #3B2F63)" />
    
      <text x="926.1194872676172" y="317.2826667760165" font-size="18" text-anchor="middle" fill="#3B2F63" style="filter: invert(1)">Procfile</text>
    
      <path d="M 886.656984755377 319.2528298972102 A 250 250 0 0 1 887.9269387784897 327.8716164750382 
              L 818.5073959205126 336.8675638620275 
              A 180 180 0 0 0 
              817.5930290238715 330.6620375259913 Z" 
              fill="#a53b70" style="filter: drop-shadow(0 0 5px #a53b70)" />
    
      <text x="926.9022285707043" y="321.80741210942847" font-size="18" text-anchor="middle" fill="#a53b70" style="filter: invert(1)">Sass</text>
    
      <path d="M 887.9269387784897 327.8716164750382 A 250 250 0 0 1 890 359.99999999999994 
              L 820 359.99999999999994 
              A 180 180 0 0 0 
              818.5073959205126 336.8675638620275 Z" 
              fill="#c6538c" style="filter: drop-shadow(0 0 5px #c6538c)" />
    
      <text x="929.3981878010675" y="343.12971757857304" font-size="18" text-anchor="middle" fill="#c6538c" style="filter: invert(1)">SCSS</text>
    </svg>