<svg width="1280" height="640" viewBox="0 0 1280 640" xmlns="http://www.w3.org/2000/svg">
     <rect width="100%" height="100%" fill="#ffffff"/>
     <text x="640" y="50" font-size="32" font-weight="bold" text-anchor="middle" fill="#000000">VADIM4WEB's Lang Stack (updated: 2025-07-20 02:03:03)</text>
      <path d="M 890 360 A 250 250 0 0 1 478.2713783079161 550.6406381797408 
              L 523.5553923816996 497.2612594894133 
              A 180 180 0 0 0 
              820 360 Z" 
              fill="#41b883" style="filter: drop-shadow(0 0 5px #41b883)" />
    
      <text x="761.8492750548459" y="597.7507077063343" font-size="18" text-anchor="middle" fill="#41b883" style="filter: invert(1)">Vue</text>
    
      <path d="M 478.2713783079161 550.6406381797408 A 250 250 0 0 1 417.17244093631035 246.6515155737938 
              L 479.5641574741435 278.38909121313156 
              A 180 180 0 0 0 
              523.5553923816996 497.2612594894133 Z" 
              fill="#f1e05a" style="filter: drop-shadow(0 0 5px #f1e05a)" />
    
      <text x="355.68589144272937" y="411.627050950065" font-size="18" text-anchor="middle" fill="#f1e05a" style="filter: invert(1)">JavaScript</text>
    
      <path d="M 417.17244093631035 246.6515155737938 A 250 250 0 0 1 664.9866430836453 111.25179866497422 
              L 657.9903830202246 180.90129503878143 
              A 180 180 0 0 0 
              479.5641574741435 278.38909121313156 Z" 
              fill="#e34c26" style="filter: drop-shadow(0 0 5px #e34c26)" />
    
      <text x="500.9521986276427" y="130.0804740889765" font-size="18" text-anchor="middle" fill="#e34c26" style="filter: invert(1)">HTML</text>
    
      <path d="M 664.9866430836453 111.25179866497422 A 250 250 0 0 1 861.657960652457 244.3810202458356 
              L 799.5937316697689 276.75433457700166 
              A 180 180 0 0 0 
              657.9903830202246 180.90129503878143 Z" 
              fill="#663399" style="filter: drop-shadow(0 0 5px #663399)" />
    
      <text x="802.5624742805269" y="143.0342265600561" font-size="18" text-anchor="middle" fill="#663399" style="filter: invert(1)">CSS</text>
    
      <path d="M 861.657960652457 244.3810202458356 A 250 250 0 0 1 885.7365057005626 314.0264231750742 
              L 816.9302841044051 326.89902468605345 
              A 180 180 0 0 0 
              799.5937316697689 276.75433457700166 Z" 
              fill="#3178c6" style="filter: drop-shadow(0 0 5px #3178c6)" />
    
      <text x="914.0818026091265" y="274.39063394359533" font-size="18" text-anchor="middle" fill="#3178c6" style="filter: invert(1)">TypeScript</text>
    
      <path d="M 885.7365057005626 314.0264231750742 A 250 250 0 0 1 885.7422455330425 314.05711414834883 
              L 816.9344167837907 326.92112218681115 
              A 180 180 0 0 0 
              816.9302841044051 326.89902468605345 Z" 
              fill="#3B2F63" style="filter: drop-shadow(0 0 5px #3B2F63)" />
    
      <text x="925.0576762712859" y="311.83577346356486" font-size="18" text-anchor="middle" fill="#3B2F63" style="filter: invert(1)">Procfile</text>
    
      <path d="M 885.7422455330425 314.05711414834883 A 250 250 0 0 1 887.3590770518334 323.75793879943967 
              L 818.0985354773201 333.90571593559656 
              A 180 180 0 0 0 
              816.9344167837907 326.92112218681115 Z" 
              fill="#a53b70" style="filter: drop-shadow(0 0 5px #a53b70)" />
    
      <text x="926.054106840493" y="316.9267548377339" font-size="18" text-anchor="middle" fill="#a53b70" style="filter: invert(1)">Sass</text>
    
      <path d="M 887.3590770518334 323.75793879943967 A 250 250 0 0 1 890 359.9999999999997 
              L 820 359.9999999999998 
              A 180 180 0 0 0 
              818.0985354773201 333.90571593559656 Z" 
              fill="#c6538c" style="filter: drop-shadow(0 0 5px #c6538c)" />
    
      <text x="929.2331183666877" y="340.9588070303381" font-size="18" text-anchor="middle" fill="#c6538c" style="filter: invert(1)">SCSS</text>
    </svg>