<svg width="1280" height="640" viewBox="0 0 1280 640" xmlns="http://www.w3.org/2000/svg">
     <rect width="100%" height="100%" fill="#ffffff"/>
     <text x="640" y="50" font-size="32" font-weight="bold" text-anchor="middle" fill="#000000">VADIM4WEB's Lang Stack (updated: 2025-08-10 02:01:49)</text>
      <path d="M 890 360 A 250 250 0 0 1 518.5513383136636 578.5182431162162 
              L 552.5569635858378 517.3331350436757 
              A 180 180 0 0 0 
              820 360 Z" 
              fill="#41b883" style="filter: drop-shadow(0 0 5px #41b883)" />
    
      <text x="787.0453505023474" y="585.8217081362944" font-size="18" text-anchor="middle" fill="#41b883" style="filter: invert(1)">Vue</text>
    
      <path d="M 518.5513383136636 578.5182431162162 A 250 250 0 0 1 398.5778711139695 295.07422942977985 
              L 466.176067202058 313.25344518944144 
              A 180 180 0 0 0 
              552.5569635858378 517.3331350436757 Z" 
              fill="#f1e05a" style="filter: drop-shadow(0 0 5px #f1e05a)" />
    
      <text x="372.9380445382832" y="462.12527498191656" font-size="18" text-anchor="middle" fill="#f1e05a" style="filter: invert(1)">JavaScript</text>
    
      <path d="M 398.5778711139695 295.07422942977985 A 250 250 0 0 1 639.7381987207821 110.00013707985718 
              L 639.8115030789631 180.00009869749718 
              A 180 180 0 0 0 
              466.176067202058 313.25344518944144 Z" 
              fill="#e34c26" style="filter: drop-shadow(0 0 5px #e34c26)" />
    
      <text x="463.44401610872" y="152.15194165470993" font-size="18" text-anchor="middle" fill="#e34c26" style="filter: invert(1)">HTML</text>
    
      <path d="M 639.7381987207821 110.00013707985718 A 250 250 0 0 1 852.622715097215 228.50254365696443 
              L 793.0883548699949 265.3218314330144 
              A 180 180 0 0 0 
              639.8115030789631 180.00009869749718 Z" 
              fill="#663399" style="filter: drop-shadow(0 0 5px #663399)" />
    
      <text x="781.0485328773243" y="131.07734629769138" font-size="18" text-anchor="middle" fill="#663399" style="filter: invert(1)">CSS</text>
    
      <path d="M 852.622715097215 228.50254365696443 A 250 250 0 0 1 886.298003158907 317.13633660155716 
              L 817.3345622744131 329.1381623531211 
              A 180 180 0 0 0 
              793.0883548699949 265.3218314330144 Z" 
              fill="#3178c6" style="filter: drop-shadow(0 0 5px #3178c6)" />
    
      <text x="911.0928778761424" y="266.94635572085514" font-size="18" text-anchor="middle" fill="#3178c6" style="filter: invert(1)">TypeScript</text>
    
      <path d="M 886.298003158907 317.13633660155716 A 250 250 0 0 1 886.3029889422612 317.1649951779112 
              L 817.338152038428 329.15879652809605 
              A 180 180 0 0 0 
              817.3345622744131 329.1381623531211 Z" 
              fill="#3B2F63" style="filter: drop-shadow(0 0 5px #3B2F63)" />
    
      <text x="925.7085759021948" y="315.0938977764448" font-size="18" text-anchor="middle" fill="#3B2F63" style="filter: invert(1)">Procfile</text>
    
      <path d="M 886.3029889422612 317.1649951779112 A 250 250 0 0 1 887.707212933091 326.21928566592595 
              L 818.3491933118255 335.67788567946667 
              A 180 180 0 0 0 
              817.338152038428 329.15879652809605 Z" 
              fill="#a53b70" style="filter: drop-shadow(0 0 5px #a53b70)" />
    
      <text x="926.5740380673685" y="319.84662068136987" font-size="18" text-anchor="middle" fill="#a53b70" style="filter: invert(1)">Sass</text>
    
      <path d="M 887.707212933091 326.21928566592595 A 250 250 0 0 1 890 360.00000000000017 
              L 820 360.0000000000001 
              A 180 180 0 0 0 
              818.3491933118255 335.67788567946667 Z" 
              fill="#c6538c" style="filter: drop-shadow(0 0 5px #c6538c)" />
    
      <text x="929.334327751385" y="342.2581807347218" font-size="18" text-anchor="middle" fill="#c6538c" style="filter: invert(1)">SCSS</text>
    </svg>