<svg width="1280" height="640" viewBox="0 0 1280 640" xmlns="http://www.w3.org/2000/svg">
     <rect width="100%" height="100%" fill="#ffffff"/>
     <text x="640" y="50" font-size="32" font-weight="bold" text-anchor="middle" fill="#000000">VADIM4WEB's Lang Stack (updated: 2025-06-08 01:54:21)</text>
      <path d="M 890 360 A 250 250 0 0 1 485.99533361752026 556.9328889048783 
              L 529.1166402046146 501.7916800115123 
              A 180 180 0 0 0 
              820 360 Z" 
              fill="#41b883" style="filter: drop-shadow(0 0 5px #41b883)" />
    
      <text x="767.0685449451079" y="595.510069080534" font-size="18" text-anchor="middle" fill="#41b883" style="filter: invert(1)">Vue</text>
    
      <path d="M 485.99533361752026 556.9328889048783 A 250 250 0 0 1 431.12206723241223 222.63184793141068 
              L 489.6078884073368 261.09493051061565 
              A 180 180 0 0 0 
              529.1166402046146 501.7916800115123 Z" 
              fill="#f1e05a" style="filter: drop-shadow(0 0 5px #f1e05a)" />
    
      <text x="353.829524201592" y="402.4376378984217" font-size="18" text-anchor="middle" fill="#f1e05a" style="filter: invert(1)">JavaScript</text>
    
      <path d="M 431.12206723241223 222.63184793141068 A 250 250 0 0 1 678.2707299293248 112.94666318651619 
              L 667.5549255491139 182.12159749429165 
              A 180 180 0 0 0 
              489.6078884073368 261.09493051061565 Z" 
              fill="#e34c26" style="filter: drop-shadow(0 0 5px #e34c26)" />
    
      <text x="522.3619621309845" y="120.52435076146443" font-size="18" text-anchor="middle" fill="#e34c26" style="filter: invert(1)">HTML</text>
    
      <path d="M 678.2707299293248 112.94666318651619 A 250 250 0 0 1 878.3977005693978 284.7236002240823 
              L 811.6463444099663 305.80099216133925 
              A 180 180 0 0 0 
              667.5549255491139 182.12159749429165 Z" 
              fill="#663399" style="filter: drop-shadow(0 0 5px #663399)" />
    
      <text x="828.8812869756509" y="161.192394979932" font-size="18" text-anchor="middle" fill="#663399" style="filter: invert(1)">CSS</text>
    
      <path d="M 878.3977005693978 284.7236002240823 A 250 250 0 0 1 885.1262053413108 310.8762434766075 
              L 816.4908678457438 324.63089530315744 
              A 180 180 0 0 0 
              811.6463444099663 305.80099216133925 Z" 
              fill="#3178c6" style="filter: drop-shadow(0 0 5px #3178c6)" />
    
      <text x="920.8537805554905" y="294.71903843578775" font-size="18" text-anchor="middle" fill="#3178c6" style="filter: invert(1)">TypeScript</text>
    
      <path d="M 885.1262053413108 310.8762434766075 A 250 250 0 0 1 885.1327641120724 310.9089829115851 
              L 816.4955901606922 324.65446769634127 
              A 180 180 0 0 0 
              816.4908678457438 324.63089530315744 Z" 
              fill="#3B2F63" style="filter: drop-shadow(0 0 5px #3B2F63)" />
    
      <text x="924.3502029169995" y="308.5354585126584" font-size="18" text-anchor="middle" fill="#3B2F63" style="filter: invert(1)">Procfile</text>
    
      <path d="M 885.1327641120724 310.9089829115851 A 250 250 0 0 1 886.980568940479 321.26243985693856 
              L 817.8260096371448 332.10895669699573 
              A 180 180 0 0 0 
              816.4955901606922 324.65446769634127 Z" 
              fill="#a53b70" style="filter: drop-shadow(0 0 5px #a53b70)" />
    
      <text x="925.4888951278069" y="313.96764126810456" font-size="18" text-anchor="middle" fill="#a53b70" style="filter: invert(1)">Sass</text>
    
      <path d="M 886.980568940479 321.26243985693856 A 250 250 0 0 1 890 360.00000000000017 
              L 820 360.0000000000001 
              A 180 180 0 0 0 
              817.8260096371448 332.10895669699573 Z" 
              fill="#c6538c" style="filter: drop-shadow(0 0 5px #c6538c)" />
    
      <text x="929.1230390262743" y="339.6399496243373" font-size="18" text-anchor="middle" fill="#c6538c" style="filter: invert(1)">SCSS</text>
    </svg>