<svg width="1280" height="640" viewBox="0 0 1280 640" xmlns="http://www.w3.org/2000/svg">
     <rect width="100%" height="100%" fill="#ffffff"/>
     <text x="640" y="50" font-size="32" font-weight="bold" text-anchor="middle" fill="#000000">VADIM4WEB's Lang Stack (updated: 2026-05-03 03:28:29)</text>
      <path d="M 890 360 A 250 250 0 0 1 521.6450036930746 580.2092070036756 
              L 554.7844026590137 518.5506290426465 
              A 180 180 0 0 0 
              820 360 Z" 
              fill="#41b883" style="filter: drop-shadow(0 0 5px #41b883)" />
    
      <text x="788.8041989366401" y="584.8793470574503" font-size="18" text-anchor="middle" fill="#41b883" style="filter: invert(1)">Vue</text>
    
      <path d="M 521.6450036930746 580.2092070036756 A 250 250 0 0 1 459.41700466258715 187.11338456963207 
              L 509.98024335706276 235.52163689013508 
              A 180 180 0 0 0 
              554.7844026590137 518.5506290426465 Z" 
              fill="#f1e05a" style="filter: drop-shadow(0 0 5px #f1e05a)" />
    
      <text x="353.56674986464344" y="400.9651106418673" font-size="18" text-anchor="middle" fill="#f1e05a" style="filter: invert(1)">JavaScript</text>
    
      <path d="M 459.41700466258715 187.11338456963207 A 250 250 0 0 1 647.7130865078941 110.11901173454243 
              L 645.5534222856837 180.08568844887054 
              A 180 180 0 0 0 
              509.98024335706276 235.52163689013508 Z" 
              fill="#e34c26" style="filter: drop-shadow(0 0 5px #e34c26)" />
    
      <text x="530.2402464406871" y="117.49052354714252" font-size="18" text-anchor="middle" fill="#e34c26" style="filter: invert(1)">HTML</text>
    
      <path d="M 647.7130865078941 110.11901173454243 A 250 250 0 0 1 849.7900148309739 224.02886454390494 
              L 791.0488106783012 262.1007824716116 
              A 180 180 0 0 0 
              645.5534222856837 180.08568844887054 Z" 
              fill="#663399" style="filter: drop-shadow(0 0 5px #663399)" />
    
      <text x="782.4051236820969" y="131.76389361342183" font-size="18" text-anchor="middle" fill="#663399" style="filter: invert(1)">CSS</text>
    
      <path d="M 849.7900148309739 224.02886454390494 A 250 250 0 0 1 884.3098400388575 306.96508640350345 
              L 815.9030848279774 321.81486221052245 
              A 180 180 0 0 0 
              791.0488106783012 262.1007824716116 Z" 
              fill="#3178c6" style="filter: drop-shadow(0 0 5px #3178c6)" />
    
      <text x="907.7346185833817" y="259.3225599709521" font-size="18" text-anchor="middle" fill="#3178c6" style="filter: invert(1)">TypeScript</text>
    
      <path d="M 884.3098400388575 306.96508640350345 A 250 250 0 0 1 885.3526357679999 312.0199612161975 
              L 816.6538977529599 325.45437207566215 
              A 180 180 0 0 0 
              815.9030848279774 321.81486221052245 Z" 
              fill="#3572A5" style="filter: drop-shadow(0 0 5px #3572A5)" />
    
      <text x="924.019368458574" y="307.06534460571896" font-size="18" text-anchor="middle" fill="#3572A5" style="filter: invert(1)">Python</text>
    
      <path d="M 885.3526357679999 312.0199612161975 A 250 250 0 0 1 885.5856498687781 313.227266719488 
              L 816.8216679055203 326.32363203803135 
              A 180 180 0 0 0 
              816.6538977529599 325.45437207566215 Z" 
              fill="#89e051" style="filter: drop-shadow(0 0 5px #89e051)" />
    
      <text x="924.7450666725998" y="310.3493973063522" font-size="18" text-anchor="middle" fill="#89e051" style="filter: invert(1)">Shell</text>
    
      <path d="M 885.5856498687781 313.227266719488 A 250 250 0 0 1 885.5915921918061 313.25847836565845 
              L 816.8259463781004 326.3461044232741 
              A 180 180 0 0 0 
              816.8216679055203 326.32363203803135 Z" 
              fill="#3B2F63" style="filter: drop-shadow(0 0 5px #3B2F63)" />
    
      <text x="924.8828009703047" y="310.9985303256848" font-size="18" text-anchor="middle" fill="#3B2F63" style="filter: invert(1)">Procfile</text>
    
      <path d="M 885.5915921918061 313.25847836565845 A 250 250 0 0 1 887.2655273420069 323.1250899895438 
              L 818.031179686245 333.45006479247155 
              A 180 180 0 0 0 
              816.8259463781004 326.3461044232741 Z" 
              fill="#a53b70" style="filter: drop-shadow(0 0 5px #a53b70)" />
    
      <text x="925.9144049133497" y="316.1762108511975" font-size="18" text-anchor="middle" fill="#a53b70" style="filter: invert(1)">Sass</text>
    
      <path d="M 887.2655273420069 323.1250899895438 A 250 250 0 0 1 890 359.99999999999994 
              L 820 359.99999999999994 
              A 180 180 0 0 0 
              818.031179686245 333.45006479247155 Z" 
              fill="#c6538c" style="filter: drop-shadow(0 0 5px #c6538c)" />
    
      <text x="929.2059157398505" y="340.62449272223927" font-size="18" text-anchor="middle" fill="#c6538c" style="filter: invert(1)">SCSS</text>
    </svg>