<svg width="1280" height="640" viewBox="0 0 1280 640" xmlns="http://www.w3.org/2000/svg">
     <rect width="100%" height="100%" fill="#ffffff"/>
     <text x="640" y="50" font-size="32" font-weight="bold" text-anchor="middle" fill="#000000">VADIM4WEB's Lang Stack (updated: 2025-02-23 01:35:50)</text>
      <path d="M 890 360 A 250 250 0 0 1 550.1662765462361 593.3021691507232 
              L 575.31971911329 527.9775617885207 
              A 180 180 0 0 0 
              820 360 Z" 
              fill="#41b883" style="filter: drop-shadow(0 0 5px #41b883)" />
    
      <text x="804.133993173495" y="575.9978986599646" font-size="18" text-anchor="middle" fill="#41b883" style="filter: invert(1)">Vue</text>
    
      <path d="M 550.1662765462361 593.3021691507232 A 250 250 0 0 1 441.15909419494784 208.46685452144015 
              L 496.83454782036245 250.89613525543692 
              A 180 180 0 0 0 
              575.31971911329 527.9775617885207 Z" 
              fill="#f1e05a" style="filter: drop-shadow(0 0 5px #f1e05a)" />
    
      <text x="360.9776421357369" y="431.403992113023" font-size="18" text-anchor="middle" fill="#f1e05a" style="filter: invert(1)">JavaScript</text>
    
      <path d="M 441.15909419494784 208.46685452144015 A 250 250 0 0 1 664.8670541737214 111.23981504927036 
              L 657.9042790050794 180.89266683547467 
              A 180 180 0 0 0 
              496.83454782036245 250.89613525543692 Z" 
              fill="#e34c26" style="filter: drop-shadow(0 0 5px #e34c26)" />
    
      <text x="524.4067155354342" y="119.71300126958462" font-size="18" text-anchor="middle" fill="#e34c26" style="filter: invert(1)">HTML</text>
    
      <path d="M 664.8670541737214 111.23981504927036 A 250 250 0 0 1 879.950064824672 289.82902031013333 
              L 812.7640466737639 309.476894623296 
              A 180 180 0 0 0 
              657.9042790050794 180.89266683547467 Z" 
              fill="#663399" style="filter: drop-shadow(0 0 5px #663399)" />
    
      <text x="825.2573121266911" y="158.4283019344698" font-size="18" text-anchor="middle" fill="#663399" style="filter: invert(1)">CSS</text>
    
      <path d="M 879.950064824672 289.82902031013333 A 250 250 0 0 1 879.9592532864517 289.860447946907 
              L 812.7706623662452 309.49952252177303 
              A 180 180 0 0 0 
              812.7640466737639 309.476894623296 Z" 
              fill="#3B2F63" style="filter: drop-shadow(0 0 5px #3B2F63)" />
    
      <text x="918.3474051012977" y="286.47728120903815" font-size="18" text-anchor="middle" fill="#3B2F63" style="filter: invert(1)">Procfile</text>
    
      <path d="M 879.9592532864517 289.860447946907 A 250 250 0 0 1 882.6479607330623 299.8172188073181 
              L 814.7065317278049 316.66839754126903 
              A 180 180 0 0 0 
              812.7706623662452 309.49952252177303 Z" 
              fill="#a53b70" style="filter: drop-shadow(0 0 5px #a53b70)" />
    
      <text x="919.9717496608616" y="291.69656544785425" font-size="18" text-anchor="middle" fill="#a53b70" style="filter: invert(1)">Sass</text>
    
      <path d="M 882.6479607330623 299.8172188073181 A 250 250 0 0 1 888.97567671827 337.3922048248962 
              L 819.2624872371545 343.72238747392527 
              A 180 180 0 0 0 
              814.7065317278049 316.66839754126903 Z" 
              fill="#c6538c" style="filter: drop-shadow(0 0 5px #c6538c)" />
    
      <text x="925.9733395123114" y="316.49121148700146" font-size="18" text-anchor="middle" fill="#c6538c" style="filter: invert(1)">SCSS</text>
    
      <path d="M 888.97567671827 337.3922048248962 A 250 250 0 0 1 890 360.00000000000017 
              L 820 360.0000000000001 
              A 180 180 0 0 0 
              819.2624872371545 343.72238747392527 Z" 
              fill="#3178c6" style="filter: drop-shadow(0 0 5px #3178c6)" />
    
      <text x="929.7027939527215" y="348.14136202162615" font-size="18" text-anchor="middle" fill="#3178c6" style="filter: invert(1)">TypeScript</text>
    </svg>