<svg width="1280" height="640" viewBox="0 0 1280 640" xmlns="http://www.w3.org/2000/svg">
     <rect width="100%" height="100%" fill="#ffffff"/>
     <text x="640" y="50" font-size="32" font-weight="bold" text-anchor="middle" fill="#000000">VADIM4WEB's Lang Stack (updated: 2025-05-04 01:50:09)</text>
      <path d="M 890 360 A 250 250 0 0 1 561.8685845382677 597.4773292715458 
              L 583.7453808675527 530.983677075513 
              A 180 180 0 0 0 
              820 360 Z" 
              fill="#41b883" style="filter: drop-shadow(0 0 5px #41b883)" />
    
      <text x="810.0243980119812" y="572.2463327502039" font-size="18" text-anchor="middle" fill="#41b883" style="filter: invert(1)">Vue</text>
    
      <path d="M 561.8685845382677 597.4773292715458 A 250 250 0 0 1 416.24403734262114 248.49542980097323 
              L 478.8957068866872 279.71670945670076 
              A 180 180 0 0 0 
              583.7453808675527 530.983677075513 Z" 
              fill="#f1e05a" style="filter: drop-shadow(0 0 5px #f1e05a)" />
    
      <text x="372.36638272083195" y="460.8963935903692" font-size="18" text-anchor="middle" fill="#f1e05a" style="filter: invert(1)">JavaScript</text>
    
      <path d="M 416.24403734262114 248.49542980097323 A 250 250 0 0 1 661.7899502892153 110.95141424534546 
              L 655.688764208235 180.68501825664873 
              A 180 180 0 0 0 
              478.8957068866872 279.71670945670076 Z" 
              fill="#e34c26" style="filter: drop-shadow(0 0 5px #e34c26)" />
    
      <text x="498.27497782720127" y="131.41862672860444" font-size="18" text-anchor="middle" fill="#e34c26" style="filter: invert(1)">HTML</text>
    
      <path d="M 661.7899502892153 110.95141424534546 A 250 250 0 0 1 883.6222386068437 303.8911338896415 
              L 815.4080117969274 319.60161640054184 
              A 180 180 0 0 0 
              655.688764208235 180.68501825664873 Z" 
              fill="#663399" style="filter: drop-shadow(0 0 5px #663399)" />
    
      <text x="830.3154605674329" y="162.3119216608824" font-size="18" text-anchor="middle" fill="#663399" style="filter: invert(1)">CSS</text>
    
      <path d="M 883.6222386068437 303.8911338896415 A 250 250 0 0 1 883.6304649605108 303.9268643366069 
              L 815.4139347715678 319.627342322357 
              A 180 180 0 0 0 
              815.4080117969274 319.60161640054184 Z" 
              fill="#3B2F63" style="filter: drop-shadow(0 0 5px #3B2F63)" />
    
      <text x="922.6065688289029" y="301.21663091250474" font-size="18" text-anchor="middle" fill="#3B2F63" style="filter: invert(1)">Procfile</text>
    
      <path d="M 883.6304649605108 303.9268643366069 A 250 250 0 0 1 885.960079224521 315.23796890368624 
              L 817.0912570416551 327.7713376106541 
              A 180 180 0 0 0 
              815.4139347715678 319.627342322357 Z" 
              fill="#a53b70" style="filter: drop-shadow(0 0 5px #a53b70)" />
    
      <text x="924.0382890789601" y="307.14827325907953" font-size="18" text-anchor="middle" fill="#a53b70" style="filter: invert(1)">Sass</text>
    
      <path d="M 885.960079224521 315.23796890368624 A 250 250 0 0 1 889.9894638001048 357.7047900017402 
              L 819.9924139360754 358.34744880125294 
              A 180 180 0 0 0 
              817.0912570416551 327.7713376106541 Z" 
              fill="#c6538c" style="filter: drop-shadow(0 0 5px #c6538c)" />
    
      <text x="928.7033416372926" y="335.25177412356464" font-size="18" text-anchor="middle" fill="#c6538c" style="filter: invert(1)">SCSS</text>
    
      <path d="M 889.9894638001048 357.7047900017402 A 250 250 0 0 1 890 359.99999999999994 
              L 820 359.99999999999994 
              A 180 180 0 0 0 
              819.9924139360754 358.34744880125294 Z" 
              fill="#3178c6" style="filter: drop-shadow(0 0 5px #3178c6)" />
    
      <text x="929.9969444859335" y="358.7972972889288" font-size="18" text-anchor="middle" fill="#3178c6" style="filter: invert(1)">TypeScript</text>
    </svg>