<svg width="1280" height="640" viewBox="0 0 1280 640" xmlns="http://www.w3.org/2000/svg">
     <rect width="100%" height="100%" fill="#ffffff"/>
     <text x="640" y="50" font-size="32" font-weight="bold" text-anchor="middle" fill="#000000">VADIM4WEB's Lang Stack (updated: 2025-03-02 01:37:01)</text>
      <path d="M 890 360 A 250 250 0 0 1 480.8689049798878 552.8141452220248 
              L 525.4256115855193 498.8261845598578 
              A 180 180 0 0 0 
              820 360 Z" 
              fill="#41b883" style="filter: drop-shadow(0 0 5px #41b883)" />
    
      <text x="763.6290816014466" y="596.9995564829629" font-size="18" text-anchor="middle" fill="#41b883" style="filter: invert(1)">Vue</text>
    
      <path d="M 480.8689049798878 552.8141452220248 A 250 250 0 0 1 507.18651745444424 148.19683936701665 
              L 544.3742925671999 207.50172434425198 
              A 180 180 0 0 0 
              525.4256115855193 498.8261845598578 Z" 
              fill="#f1e05a" style="filter: drop-shadow(0 0 5px #f1e05a)" />
    
      <text x="350.6115003825128" y="342.99461004810047" font-size="18" text-anchor="middle" fill="#f1e05a" style="filter: invert(1)">JavaScript</text>
    
      <path d="M 507.18651745444424 148.19683936701665 A 250 250 0 0 1 714.9023994712688 121.48452764349548 
              L 693.9297276193136 188.26885990331675 
              A 180 180 0 0 0 
              544.3742925671999 207.50172434425198 Z" 
              fill="#e34c26" style="filter: drop-shadow(0 0 5px #e34c26)" />
    
      <text x="603.0105431285091" y="100.1399738385694" font-size="18" text-anchor="middle" fill="#e34c26" style="filter: invert(1)">HTML</text>
    
      <path d="M 714.9023994712688 121.48452764349548 A 250 250 0 0 1 882.7659370629443 300.2948929994212 
              L 814.7914746853199 317.0123229595833 
              A 180 180 0 0 0 
              693.9297276193136 188.26885990331675 Z" 
              fill="#663399" style="filter: drop-shadow(0 0 5px #663399)" />
    
      <text x="851.4307395878919" y="180.67736860477603" font-size="18" text-anchor="middle" fill="#663399" style="filter: invert(1)">CSS</text>
    
      <path d="M 882.7659370629443 300.2948929994212 A 250 250 0 0 1 882.7725636913433 300.32184387288174 
              L 814.7962458577672 317.0317275884749 
              A 180 180 0 0 0 
              814.7914746853199 317.0123229595833 Z" 
              fill="#3B2F63" style="filter: drop-shadow(0 0 5px #3B2F63)" />
    
      <text x="921.6123308713172" y="297.4431700247164" font-size="18" text-anchor="middle" fill="#3B2F63" style="filter: invert(1)">Procfile</text>
    
      <path d="M 882.7725636913433 300.32184387288174 A 250 250 0 0 1 884.7106308679404 308.8462402142853 
              L 816.1916542249171 323.1692929542854 
              A 180 180 0 0 0 
              814.7962458577672 317.0317275884749 Z" 
              fill="#a53b70" style="filter: drop-shadow(0 0 5px #a53b70)" />
    
      <text x="922.7834775875754" y="301.91519753492696" font-size="18" text-anchor="middle" fill="#a53b70" style="filter: invert(1)">Sass</text>
    
      <path d="M 884.7106308679404 308.8462402142853 A 250 250 0 0 1 889.263938891838 340.83000343959185 
              L 819.4700360021234 346.1976024765061 
              A 180 180 0 0 0 
              816.1916542249171 323.1692929542854 Z" 
              fill="#c6538c" style="filter: drop-shadow(0 0 5px #c6538c)" />
    
      <text x="927.1051769978274" y="323.0731904991219" font-size="18" text-anchor="middle" fill="#c6538c" style="filter: invert(1)">SCSS</text>
    
      <path d="M 889.263938891838 340.83000343959185 A 250 250 0 0 1 890 359.9999999999997 
              L 820 359.9999999999998 
              A 180 180 0 0 0 
              819.4700360021234 346.1976024765061 Z" 
              fill="#3178c6" style="filter: drop-shadow(0 0 5px #3178c6)" />
    
      <text x="929.7864636617921" y="349.9475198375051" font-size="18" text-anchor="middle" fill="#3178c6" style="filter: invert(1)">TypeScript</text>
    </svg>