<svg width="1280" height="640" viewBox="0 0 1280 640" xmlns="http://www.w3.org/2000/svg">
     <rect width="100%" height="100%" fill="#ffffff"/>
     <text x="640" y="50" font-size="32" font-weight="bold" text-anchor="middle" fill="#000000">VADIM4WEB's Lang Stack (updated: 2025-06-29 01:57:52)</text>
      <path d="M 890 360 A 250 250 0 0 1 467.7057025855106 541.1482130147782 
              L 515.9481058615677 490.4267133706403 
              A 180 180 0 0 0 
              820 360 Z" 
              fill="#41b883" style="filter: drop-shadow(0 0 5px #41b883)" />
    
      <text x="754.3245344398257" y="600.7819335071475" font-size="18" text-anchor="middle" fill="#41b883" style="filter: invert(1)">Vue</text>
    
      <path d="M 467.7057025855106 541.1482130147782 A 250 250 0 0 1 420.7725251604705 239.83630217289647 
              L 482.15621811553876 273.48213756448547 
              A 180 180 0 0 0 
              515.9481058615677 490.4267133706403 Z" 
              fill="#f1e05a" style="filter: drop-shadow(0 0 5px #f1e05a)" />
    
      <text x="353.4552478877899" y="400.323610418124" font-size="18" text-anchor="middle" fill="#f1e05a" style="filter: invert(1)">JavaScript</text>
    
      <path d="M 420.7725251604705 239.83630217289647 A 250 250 0 0 1 656.6650800134397 110.55606820741127 
              L 651.9988576096766 180.4003691093361 
              A 180 180 0 0 0 
              482.15621811553876 273.48213756448547 Z" 
              fill="#e34c26" style="filter: drop-shadow(0 0 5px #e34c26)" />
    
      <text x="500.62501922676796" y="130.24222407395604" font-size="18" text-anchor="middle" fill="#e34c26" style="filter: invert(1)">HTML</text>
    
      <path d="M 656.6650800134397 110.55606820741127 A 250 250 0 0 1 869.2063196352673 260.17784294428566 
              L 805.0285501373924 288.12804691988566 
              A 180 180 0 0 0 
              651.9988576096766 180.4003691093361 Z" 
              fill="#663399" style="filter: drop-shadow(0 0 5px #663399)" />
    
      <text x="806.9346611806747" y="145.76115376015622" font-size="18" text-anchor="middle" fill="#663399" style="filter: invert(1)">CSS</text>
    
      <path d="M 869.2063196352673 260.17784294428566 A 250 250 0 0 1 885.0941920802792 310.7167674709215 
              L 816.4678182978009 324.5160725790635 
              A 180 180 0 0 0 
              805.0285501373924 288.12804691988566 Z" 
              fill="#3178c6" style="filter: drop-shadow(0 0 5px #3178c6)" />
    
      <text x="916.6515845863125" y="281.42648096853037" font-size="18" text-anchor="middle" fill="#3178c6" style="filter: invert(1)">TypeScript</text>
    
      <path d="M 885.0941920802792 310.7167674709215 A 250 250 0 0 1 885.100793789696 310.74961031970497 
              L 816.4725715285812 324.5397194301876 
              A 180 180 0 0 0 
              816.4678182978009 324.5160725790635 Z" 
              fill="#3B2F63" style="filter: drop-shadow(0 0 5px #3B2F63)" />
    
      <text x="924.313092442718" y="308.36838184640266" font-size="18" text-anchor="middle" fill="#3B2F63" style="filter: invert(1)">Procfile</text>
    
      <path d="M 885.100793789696 310.74961031970497 A 250 250 0 0 1 886.9607110497993 321.13604243289745 
              L 817.8117119558555 332.01795055168617 
              A 180 180 0 0 0 
              816.4725715285812 324.5397194301876 Z" 
              fill="#a53b70" style="filter: drop-shadow(0 0 5px #a53b70)" />
    
      <text x="925.4592443882352" y="313.8177972969481" font-size="18" text-anchor="middle" fill="#a53b70" style="filter: invert(1)">Sass</text>
    
      <path d="M 886.9607110497993 321.13604243289745 A 250 250 0 0 1 890 360.00000000000017 
              L 820 360.0000000000001 
              A 180 180 0 0 0 
              817.8117119558555 332.01795055168617 Z" 
              fill="#c6538c" style="filter: drop-shadow(0 0 5px #c6538c)" />
    
      <text x="929.1172627128589" y="339.57310837657496" font-size="18" text-anchor="middle" fill="#c6538c" style="filter: invert(1)">SCSS</text>
    </svg>