<svg width="1280" height="640" viewBox="0 0 1280 640" xmlns="http://www.w3.org/2000/svg">
     <rect width="100%" height="100%" fill="#ffffff"/>
     <text x="640" y="50" font-size="32" font-weight="bold" text-anchor="middle" fill="#000000">VADIM4WEB's Lang Stack (updated: 2025-08-03 02:05:31)</text>
      <path d="M 890 360 A 250 250 0 0 1 523.4338130156609 581.1613077641116 
              L 556.0723453712758 519.2361415901604 
              A 180 180 0 0 0 
              820 360 Z" 
              fill="#41b883" style="filter: drop-shadow(0 0 5px #41b883)" />
    
      <text x="789.8117730661852" y="584.3326518336239" font-size="18" text-anchor="middle" fill="#41b883" style="filter: invert(1)">Vue</text>
    
      <path d="M 523.4338130156609 581.1613077641116 A 250 250 0 0 1 397.8503668555787 297.84249708987494 
              L 465.6522641360167 315.24659790471 
              A 180 180 0 0 0 
              556.0723453712758 519.2361415901604 Z" 
              fill="#f1e05a" style="filter: drop-shadow(0 0 5px #f1e05a)" />
    
      <text x="374.87808043407387" y="466.1710018221083" font-size="18" text-anchor="middle" fill="#f1e05a" style="filter: invert(1)">JavaScript</text>
    
      <path d="M 397.8503668555787 297.84249708987494 A 250 250 0 0 1 639.5267677228816 110.00044789797744 
              L 639.6592727604747 180.00032248654375 
              A 180 180 0 0 0 
              465.6522641360167 315.24659790471 Z" 
              fill="#e34c26" style="filter: drop-shadow(0 0 5px #e34c26)" />
    
      <text x="462.0330791219395" y="153.1364338902745" font-size="18" text-anchor="middle" fill="#e34c26" style="filter: invert(1)">HTML</text>
    
      <path d="M 639.5267677228816 110.00044789797744 A 250 250 0 0 1 852.4048334512211 228.1508941002668 
              L 792.9314800848791 265.0686437521921 
              A 180 180 0 0 0 
              639.6592727604747 180.00032248654375 Z" 
              fill="#663399" style="filter: drop-shadow(0 0 5px #663399)" />
    
      <text x="780.7316325540066" y="130.91820972629284" font-size="18" text-anchor="middle" fill="#663399" style="filter: invert(1)">CSS</text>
    
      <path d="M 852.4048334512211 228.1508941002668 A 250 250 0 0 1 886.237845844557 316.7920924617704 
              L 817.291249008081 328.8903065724747 
              A 180 180 0 0 0 
              792.9314800848791 265.0686437521921 Z" 
              fill="#3178c6" style="filter: drop-shadow(0 0 5px #3178c6)" />
    
      <text x="910.935358044623" y="266.5726505032738" font-size="18" text-anchor="middle" fill="#3178c6" style="filter: invert(1)">TypeScript</text>
    
      <path d="M 886.237845844557 316.7920924617704 A 250 250 0 0 1 886.2429124420546 316.8209764809964 
              L 817.2948969582793 328.9111030663174 
              A 180 180 0 0 0 
              817.291249008081 328.8903065724747 Z" 
              fill="#3B2F63" style="filter: drop-shadow(0 0 5px #3B2F63)" />
    
      <text x="925.638840297509" y="314.73324804815485" font-size="18" text-anchor="middle" fill="#3B2F63" style="filter: invert(1)">Procfile</text>
    
      <path d="M 886.2429124420546 316.8209764809964 A 250 250 0 0 1 887.6699193928903 325.94693805368973 
              L 818.322341962881 335.4817953986566 
              A 180 180 0 0 0 
              817.2948969582793 328.9111030663174 Z" 
              fill="#a53b70" style="filter: drop-shadow(0 0 5px #a53b70)" />
    
      <text x="926.5183378524537" y="319.5234797519455" font-size="18" text-anchor="middle" fill="#a53b70" style="filter: invert(1)">Sass</text>
    
      <path d="M 887.6699193928903 325.94693805368973 A 250 250 0 0 1 890 360.00000000000017 
              L 820 360.0000000000001 
              A 180 180 0 0 0 
              818.322341962881 335.4817953986566 Z" 
              fill="#c6538c" style="filter: drop-shadow(0 0 5px #c6538c)" />
    
      <text x="929.3234875392666" y="342.1144721523551" font-size="18" text-anchor="middle" fill="#c6538c" style="filter: invert(1)">SCSS</text>
    </svg>