<svg width="1280" height="640" viewBox="0 0 1280 640" xmlns="http://www.w3.org/2000/svg">
     <rect width="100%" height="100%" fill="#ffffff"/>
     <text x="640" y="50" font-size="32" font-weight="bold" text-anchor="middle" fill="#000000">VADIM4WEB's Lang Stack (updated: 2025-03-16 01:40:27)</text>
      <path d="M 890 360 A 250 250 0 0 1 466.66309425327023 540.1508176671683 
              L 515.1974278623545 489.70858872036115 
              A 180 180 0 0 0 
              820 360 Z" 
              fill="#41b883" style="filter: drop-shadow(0 0 5px #41b883)" />
    
      <text x="753.5549754673922" y="601.0789852230116" font-size="18" text-anchor="middle" fill="#41b883" style="filter: invert(1)">Vue</text>
    
      <path d="M 466.66309425327023 540.1508176671683 A 250 250 0 0 1 552.4180753446874 125.84320109449916 
              L 576.941014248175 191.4071047880394 
              A 180 180 0 0 0 
              515.1974278623545 489.70858872036115 Z" 
              fill="#f1e05a" style="filter: drop-shadow(0 0 5px #f1e05a)" />
    
      <text x="356.019397357957" y="306.8958565737086" font-size="18" text-anchor="middle" fill="#f1e05a" style="filter: invert(1)">JavaScript</text>
    
      <path d="M 552.4180753446874 125.84320109449916 A 250 250 0 0 1 742.9923265488752 132.20056920165527 
              L 714.1544751151902 195.9844098251918 
              A 180 180 0 0 0 
              576.941014248175 191.4071047880394 Z" 
              fill="#e34c26" style="filter: drop-shadow(0 0 5px #e34c26)" />
    
      <text x="649.6687342266384" y="98.14565831587203" font-size="18" text-anchor="middle" fill="#e34c26" style="filter: invert(1)">HTML</text>
    
      <path d="M 742.9923265488752 132.20056920165527 A 250 250 0 0 1 884.9135889544306 309.8269599739041 
              L 816.33778404719 323.8754111812109 
              A 180 180 0 0 0 
              714.1544751151902 195.9844098251918 Z" 
              fill="#663399" style="filter: drop-shadow(0 0 5px #663399)" />
    
      <text x="866.5638141302843" y="196.45630152039587" font-size="18" text-anchor="middle" fill="#663399" style="filter: invert(1)">CSS</text>
    
      <path d="M 884.9135889544306 309.8269599739041 A 250 250 0 0 1 884.9183980134213 309.8504405349424 
              L 816.3412465696633 323.8923171851585 
              A 180 180 0 0 0 
              816.33778404719 323.8754111812109 Z" 
              fill="#3B2F63" style="filter: drop-shadow(0 0 5px #3B2F63)" />
    
      <text x="924.1025527677673" y="307.43095780623753" font-size="18" text-anchor="middle" fill="#3B2F63" style="filter: invert(1)">Procfile</text>
    
      <path d="M 884.9183980134213 309.8504405349424 A 250 250 0 0 1 886.3209902497607 317.2686325707064 
              L 817.3511129798277 329.23341545090864 
              A 180 180 0 0 0 
              816.3412465696633 323.8923171851585 Z" 
              fill="#a53b70" style="filter: drop-shadow(0 0 5px #a53b70)" />
    
      <text x="924.9513296938526" y="311.3248453312515" font-size="18" text-anchor="middle" fill="#a53b70" style="filter: invert(1)">Sass</text>
    
      <path d="M 886.3209902497607 317.2686325707064 A 250 250 0 0 1 889.5487471682977 344.9859137230064 
              L 819.6750979611744 349.1898578805646 
              A 180 180 0 0 0 
              817.3511129798277 329.23341545090864 Z" 
              fill="#c6538c" style="filter: drop-shadow(0 0 5px #c6538c)" />
    
      <text x="928.0533923701275" y="329.69414917373604" font-size="18" text-anchor="middle" fill="#c6538c" style="filter: invert(1)">SCSS</text>
    
      <path d="M 889.5487471682977 344.9859137230064 A 250 250 0 0 1 890 359.9999999999997 
              L 820 359.9999999999998 
              A 180 180 0 0 0 
              819.6750979611744 349.1898578805646 Z" 
              fill="#3178c6" style="filter: drop-shadow(0 0 5px #3178c6)" />
    
      <text x="929.869107139253" y="352.12906620795593" font-size="18" text-anchor="middle" fill="#3178c6" style="filter: invert(1)">TypeScript</text>
    </svg>