<svg width="1280" height="640" viewBox="0 0 1280 640" xmlns="http://www.w3.org/2000/svg">
     <rect width="100%" height="100%" fill="#ffffff"/>
     <text x="640" y="50" font-size="32" font-weight="bold" text-anchor="middle" fill="#000000">VADIM4WEB's Lang Stack (updated: 2025-05-18 01:49:40)</text>
      <path d="M 890 360 A 250 250 0 0 1 562.5419012432225 597.6977975013342 
              L 584.2301688951202 531.1424142009606 
              A 180 180 0 0 0 
              820 360 Z" 
              fill="#41b883" style="filter: drop-shadow(0 0 5px #41b883)" />
    
      <text x="810.357118398704" y="572.0284590853796" font-size="18" text-anchor="middle" fill="#41b883" style="filter: invert(1)">Vue</text>
    
      <path d="M 562.5419012432225 597.6977975013342 A 250 250 0 0 1 414.2014798615776 252.69190010396022 
              L 477.42506550033585 282.7381680748514 
              A 180 180 0 0 0 
              584.2301688951202 531.1424142009606 Z" 
              fill="#f1e05a" style="filter: drop-shadow(0 0 5px #f1e05a)" />
    
      <text x="373.5825408078337" y="463.49013777514097" font-size="18" text-anchor="middle" fill="#f1e05a" style="filter: invert(1)">JavaScript</text>
    
      <path d="M 414.2014798615776 252.69190010396022 A 250 250 0 0 1 667.3960205690556 111.50561765508687 
              L 659.7251348097201 181.08404471166253 
              A 180 180 0 0 0 
              477.42506550033585 282.7381680748514 Z" 
              fill="#e34c26" style="filter: drop-shadow(0 0 5px #e34c26)" />
    
      <text x="498.764202278097" y="131.17160474133175" font-size="18" text-anchor="middle" fill="#e34c26" style="filter: invert(1)">HTML</text>
    
      <path d="M 667.3960205690556 111.50561765508687 A 250 250 0 0 1 883.840855121932 304.84895854650676 
              L 815.5654156877911 320.29125015348484 
              A 180 180 0 0 0 
              659.7251348097201 181.08404471166253 Z" 
              fill="#663399" style="filter: drop-shadow(0 0 5px #663399)" />
    
      <text x="833.1940649808886" y="164.60426448668878" font-size="18" text-anchor="middle" fill="#663399" style="filter: invert(1)">CSS</text>
    
      <path d="M 883.840855121932 304.84895854650676 A 250 250 0 0 1 883.8488006662342 304.88410017391374 
              L 815.5711364796887 320.31655212521787 
              A 180 180 0 0 0 
              815.5654156877911 320.29125015348484 Z" 
              fill="#3B2F63" style="filter: drop-shadow(0 0 5px #3B2F63)" />
    
      <text x="922.8600010914781" y="302.2201226194962" font-size="18" text-anchor="middle" fill="#3B2F63" style="filter: invert(1)">Procfile</text>
    
      <path d="M 883.8488006662342 304.88410017391374 A 250 250 0 0 1 886.0987704265838 316.0068733263521 
              L 817.1911147071403 328.3249487949735 
              A 180 180 0 0 0 
              815.5711364796887 320.31655212521787 Z" 
              fill="#a53b70" style="filter: drop-shadow(0 0 5px #a53b70)" />
    
      <text x="924.2428093588146" y="308.05348920882113" font-size="18" text-anchor="middle" fill="#a53b70" style="filter: invert(1)">Sass</text>
    
      <path d="M 886.0987704265838 316.0068733263521 A 250 250 0 0 1 889.9898264534822 357.7446353381681 
              L 819.9926750465072 358.376137443481 
              A 180 180 0 0 0 
              817.1911147071403 328.3249487949735 Z" 
              fill="#c6538c" style="filter: drop-shadow(0 0 5px #c6538c)" />
    
      <text x="928.747940454487" y="335.68017113911253" font-size="18" text-anchor="middle" fill="#c6538c" style="filter: invert(1)">SCSS</text>
    
      <path d="M 889.9898264534822 357.7446353381681 A 250 250 0 0 1 890 359.99999999999994 
              L 820 359.99999999999994 
              A 180 180 0 0 0 
              819.9926750465072 358.376137443481 Z" 
              fill="#3178c6" style="filter: drop-shadow(0 0 5px #3178c6)" />
    
      <text x="929.997049656502" y="358.81817689380654" font-size="18" text-anchor="middle" fill="#3178c6" style="filter: invert(1)">TypeScript</text>
    </svg>