<svg width="1280" height="640" viewBox="0 0 1280 640" xmlns="http://www.w3.org/2000/svg">
     <rect width="100%" height="100%" fill="#ffffff"/>
     <text x="640" y="50" font-size="32" font-weight="bold" text-anchor="middle" fill="#000000">VADIM4WEB's Lang Stack (updated: 2025-05-25 01:51:57)</text>
      <path d="M 890 360 A 250 250 0 0 1 530.1980324847597 584.596366688738 
              L 560.9425833890269 521.7093840158914 
              A 180 180 0 0 0 
              820 360 Z" 
              fill="#41b883" style="filter: drop-shadow(0 0 5px #41b883)" />
    
      <text x="793.562069092392" y="582.2532171110968" font-size="18" text-anchor="middle" fill="#41b883" style="filter: invert(1)">Vue</text>
    
      <path d="M 530.1980324847597 584.596366688738 A 250 250 0 0 1 417.57180181200056 245.86982585293205 
              L 479.8516973046404 277.82627461411107 
              A 180 180 0 0 0 
              560.9425833890269 521.7093840158914 Z" 
              fill="#f1e05a" style="filter: drop-shadow(0 0 5px #f1e05a)" />
    
      <text x="364.813040550904" y="442.6649610963078" font-size="18" text-anchor="middle" fill="#f1e05a" style="filter: invert(1)">JavaScript</text>
    
      <path d="M 417.57180181200056 245.86982585293205 A 250 250 0 0 1 671.5595213848444 112.00000683475906 
              L 662.722855397088 181.4400049210265 
              A 180 180 0 0 0 
              479.8516973046404 277.82627461411107 Z" 
              fill="#e34c26" style="filter: drop-shadow(0 0 5px #e34c26)" />
    
      <text x="504.78163531205246" y="128.22370553318694" font-size="18" text-anchor="middle" fill="#e34c26" style="filter: invert(1)">HTML</text>
    
      <path d="M 671.5595213848444 112.00000683475906 A 250 250 0 0 1 881.0796727916957 293.81396396029646 
              L 813.5773644100209 312.3460540514135 
              A 180 180 0 0 0 
              662.722855397088 181.4400049210265 Z" 
              fill="#663399" style="filter: drop-shadow(0 0 5px #663399)" />
    
      <text x="830.0670223042241" y="162.11692778593783" font-size="18" text-anchor="middle" fill="#663399" style="filter: invert(1)">CSS</text>
    
      <path d="M 881.0796727916957 293.81396396029646 A 250 250 0 0 1 884.4176453437146 307.464158476007 
              L 815.9807046474746 322.17419410272504 
              A 180 180 0 0 0 
              813.5773644100209 312.3460540514135 Z" 
              fill="#3178c6" style="filter: drop-shadow(0 0 5px #3178c6)" />
    
      <text x="921.6997209117544" y="297.7651522863816" font-size="18" text-anchor="middle" fill="#3178c6" style="filter: invert(1)">TypeScript</text>
    
      <path d="M 884.4176453437146 307.464158476007 A 250 250 0 0 1 884.4251540535499 307.4991041419442 
              L 815.9861109185559 322.19935498219985 
              A 180 180 0 0 0 
              815.9807046474746 322.17419410272504 Z" 
              fill="#3B2F63" style="filter: drop-shadow(0 0 5px #3B2F63)" />
    
      <text x="923.5288243748751" y="304.96074947117245" font-size="18" text-anchor="middle" fill="#3B2F63" style="filter: invert(1)">Procfile</text>
    
      <path d="M 884.4251540535499 307.4991041419442 A 250 250 0 0 1 886.5409712924 318.55667153569806 
              L 817.509499330528 330.16080350570263 
              A 180 180 0 0 0 
              815.9861109185559 322.19935498219985 Z" 
              fill="#a53b70" style="filter: drop-shadow(0 0 5px #a53b70)" />
    
      <text x="924.8325649040116" y="310.76074306774393" font-size="18" text-anchor="middle" fill="#a53b70" style="filter: invert(1)">Sass</text>
    
      <path d="M 886.5409712924 318.55667153569806 A 250 250 0 0 1 890 359.99999999999994 
              L 820 359.99999999999994 
              A 180 180 0 0 0 
              817.509499330528 330.16080350570263 Z" 
              fill="#c6538c" style="filter: drop-shadow(0 0 5px #c6538c)" />
    
      <text x="928.9951407400852" y="338.2081865552911" font-size="18" text-anchor="middle" fill="#c6538c" style="filter: invert(1)">SCSS</text>
    </svg>