<svg width="1280" height="640" viewBox="0 0 1280 640" xmlns="http://www.w3.org/2000/svg">
     <rect width="100%" height="100%" fill="#ffffff"/>
     <text x="640" y="50" font-size="32" font-weight="bold" text-anchor="middle" fill="#000000">VADIM4WEB's Lang Stack (updated: 2026-04-19 02:53:27)</text>
      <path d="M 890 360 A 250 250 0 0 1 484.71627980199503 555.9259202899599 
              L 528.1957214574364 501.06666260877114 
              A 180 180 0 0 0 
              820 360 Z" 
              fill="#41b883" style="filter: drop-shadow(0 0 5px #41b883)" />
    
      <text x="766.2191675725029" y="595.882579641956" font-size="18" text-anchor="middle" fill="#41b883" style="filter: invert(1)">Vue</text>
    
      <path d="M 484.71627980199503 555.9259202899599 A 250 250 0 0 1 456.2042643094094 190.53281278679773 
              L 507.66707030277473 237.98362520649437 
              A 180 180 0 0 0 
              528.1957214574364 501.06666260877114 Z" 
              fill="#f1e05a" style="filter: drop-shadow(0 0 5px #f1e05a)" />
    
      <text x="350.87887150863827" y="380.3821827494667" font-size="18" text-anchor="middle" fill="#f1e05a" style="filter: invert(1)">JavaScript</text>
    
      <path d="M 456.2042643094094 190.53281278679773 A 250 250 0 0 1 644.2300327625298 110.03578891603718 
              L 643.0456235890215 180.02576801954677 
              A 180 180 0 0 0 
              507.66707030277473 237.98362520649437 Z" 
              fill="#e34c26" style="filter: drop-shadow(0 0 5px #e34c26)" />
    
      <text x="525.8657665213407" y="119.14438896159913" font-size="18" text-anchor="middle" fill="#e34c26" style="filter: invert(1)">HTML</text>
    
      <path d="M 644.2300327625298 110.03578891603718 A 250 250 0 0 1 851.5347684640269 226.75945913172464 
              L 792.3050332940993 264.0668105748417 
              A 180 180 0 0 0 
              643.0456235890215 180.02576801954677 Z" 
              fill="#663399" style="filter: drop-shadow(0 0 5px #663399)" />
    
      <text x="782.2820089254859" y="131.70123070098882" font-size="18" text-anchor="middle" fill="#663399" style="filter: invert(1)">CSS</text>
    
      <path d="M 851.5347684640269 226.75945913172464 A 250 250 0 0 1 884.5625366854381 308.1428341501028 
              L 816.0850264135154 322.662840588074 
              A 180 180 0 0 0 
              792.3050332940993 264.0668105748417 Z" 
              fill="#3178c6" style="filter: drop-shadow(0 0 5px #3178c6)" />
    
      <text x="908.7146982362092" y="261.4768593502863" font-size="18" text-anchor="middle" fill="#3178c6" style="filter: invert(1)">TypeScript</text>
    
      <path d="M 884.5625366854381 308.1428341501028 A 250 250 0 0 1 885.559161221978 313.08839866345846 
              L 816.8025960798242 326.2236470376901 
              A 180 180 0 0 0 
              816.0850264135154 322.662840588074 Z" 
              fill="#3572A5" style="filter: drop-shadow(0 0 5px #3572A5)" />
    
      <text x="924.2850563265622" y="308.242531278637" font-size="18" text-anchor="middle" fill="#3572A5" style="filter: invert(1)">Python</text>
    
      <path d="M 885.559161221978 313.08839866345846 A 250 250 0 0 1 885.7818497659174 314.26945959597674 
              L 816.9629318314605 327.07401090910327 
              A 180 180 0 0 0 
              816.8025960798242 326.2236470376901 Z" 
              fill="#89e051" style="filter: drop-shadow(0 0 5px #89e051)" />
    
      <text x="924.9786096745871" y="311.4553774828014" font-size="18" text-anchor="middle" fill="#89e051" style="filter: invert(1)">Shell</text>
    
      <path d="M 885.7818497659174 314.26945959597674 A 250 250 0 0 1 885.7875287259506 314.29999209201384 
              L 816.9670206826845 327.09599430624996 
              A 180 180 0 0 0 
              816.9629318314605 327.07401090910327 Z" 
              fill="#3B2F63" style="filter: drop-shadow(0 0 5px #3B2F63)" />
    
      <text x="925.110240075252" y="312.0903925920911" font-size="18" text-anchor="middle" fill="#3B2F63" style="filter: invert(1)">Procfile</text>
    
      <path d="M 885.7875287259506 314.29999209201384 A 250 250 0 0 1 887.3871946960949 323.95036892842785 
              L 818.1187801811883 334.04426562846805 
              A 180 180 0 0 0 
              816.9670206826845 327.09599430624996 Z" 
              fill="#a53b70" style="filter: drop-shadow(0 0 5px #a53b70)" />
    
      <text x="926.0960971546533" y="317.15498882274477" font-size="18" text-anchor="middle" fill="#a53b70" style="filter: invert(1)">Sass</text>
    
      <path d="M 887.3871946960949 323.95036892842785 A 250 250 0 0 1 890 359.9999999999997 
              L 820 359.9999999999998 
              A 180 180 0 0 0 
              818.1187801811883 334.04426562846805 Z" 
              fill="#c6538c" style="filter: drop-shadow(0 0 5px #c6538c)" />
    
      <text x="929.2412939880528" y="341.060443126553" font-size="18" text-anchor="middle" fill="#c6538c" style="filter: invert(1)">SCSS</text>
    </svg>