<svg width="1280" height="640" viewBox="0 0 1280 640" xmlns="http://www.w3.org/2000/svg">
     <rect width="100%" height="100%" fill="#ffffff"/>
     <text x="640" y="50" font-size="32" font-weight="bold" text-anchor="middle" fill="#000000">VADIM4WEB's Lang Stack (updated: 2025-04-06 01:42:09)</text>
      <path d="M 890 360 A 250 250 0 0 1 595.8958005133578 606.0788889515768 
              L 608.2449763696176 537.1768000451353 
              A 180 180 0 0 0 
              820 360 Z" 
              fill="#41b883" style="filter: drop-shadow(0 0 5px #41b883)" />
    
      <text x="826.0958721905104" y="560.9402332513878" font-size="18" text-anchor="middle" fill="#41b883" style="filter: invert(1)">Vue</text>
    
      <path d="M 595.8958005133578 606.0788889515768 A 250 250 0 0 1 402.8714457748778 280.816360458089 
              L 469.2674409579121 302.987779529824 
              A 180 180 0 0 0 
              608.2449763696176 537.1768000451353 Z" 
              fill="#f1e05a" style="filter: drop-shadow(0 0 5px #f1e05a)" />
    
      <text x="390.60838032995855" y="493.70979554929795" font-size="18" text-anchor="middle" fill="#f1e05a" style="filter: invert(1)">JavaScript</text>
    
      <path d="M 402.8714457748778 280.816360458089 A 250 250 0 0 1 634.6211118436196 110.05787157383583 
              L 636.1272005274061 180.04166753316179 
              A 180 180 0 0 0 
              469.2674409579121 302.987779529824 Z" 
              fill="#e34c26" style="filter: drop-shadow(0 0 5px #e34c26)" />
    
      <text x="467.9751668208852" y="149.0734481966822" font-size="18" text-anchor="middle" fill="#e34c26" style="filter: invert(1)">HTML</text>
    
      <path d="M 634.6211118436196 110.05787157383583 A 250 250 0 0 1 882.4981368260015 299.2163374259348 
              L 814.5986585147211 316.23576294667305 
              A 180 180 0 0 0 
              636.1272005274061 180.04166753316179 Z" 
              fill="#663399" style="filter: drop-shadow(0 0 5px #663399)" />
    
      <text x="815.9288897589615" y="151.71837974795807" font-size="18" text-anchor="middle" fill="#663399" style="filter: invert(1)">CSS</text>
    
      <path d="M 882.4981368260015 299.2163374259348 A 250 250 0 0 1 882.5078057471917 299.2549248771362 
              L 814.605620137978 316.2635459115381 
              A 180 180 0 0 0 
              814.5986585147211 316.23576294667305 Z" 
              fill="#3B2F63" style="filter: drop-shadow(0 0 5px #3B2F63)" />
    
      <text x="921.3034475827658" y="296.31894124526116" font-size="18" text-anchor="middle" fill="#3B2F63" style="filter: invert(1)">Procfile</text>
    
      <path d="M 882.5078057471917 299.2549248771362 A 250 250 0 0 1 885.2467063194265 311.4814155248425 
              L 816.577628549987 325.06661917788654 
              A 180 180 0 0 0 
              814.605620137978 316.2635459115381 Z" 
              fill="#a53b70" style="filter: drop-shadow(0 0 5px #a53b70)" />
    
      <text x="922.9864822832592" y="302.72785739406675" font-size="18" text-anchor="middle" fill="#a53b70" style="filter: invert(1)">Sass</text>
    
      <path d="M 885.2467063194265 311.4814155248425 A 250 250 0 0 1 889.9875973883649 357.50978876542416 
              L 819.9910701196227 358.2070479111054 
              A 180 180 0 0 0 
              816.577628549987 325.06661917788654 Z" 
              fill="#c6538c" style="filter: drop-shadow(0 0 5px #c6538c)" />
    
      <text x="928.4738477331273" y="333.156194012505" font-size="18" text-anchor="middle" fill="#c6538c" style="filter: invert(1)">SCSS</text>
    
      <path d="M 889.9875973883649 357.50978876542416 A 250 250 0 0 1 890 359.9999999999997 
              L 820 359.9999999999998 
              A 180 180 0 0 0 
              819.9910701196227 358.2070479111054 Z" 
              fill="#3178c6" style="filter: drop-shadow(0 0 5px #3178c6)" />
    
      <text x="929.9964032203209" y="358.69511312897674" font-size="18" text-anchor="middle" fill="#3178c6" style="filter: invert(1)">TypeScript</text>
    </svg>