<svg width="1280" height="640" viewBox="0 0 1280 640" xmlns="http://www.w3.org/2000/svg">
     <rect width="100%" height="100%" fill="#ffffff"/>
     <text x="640" y="50" font-size="32" font-weight="bold" text-anchor="middle" fill="#000000">VADIM4WEB's Lang Stack (updated: 2026-06-07 04:08:24)</text>
      <path d="M 890 360 A 250 250 0 0 1 508.17363677675155 572.4189491531586 
              L 545.0850184792612 512.9416433902742 
              A 180 180 0 0 0 
              820 360 Z" 
              fill="#41b883" style="filter: drop-shadow(0 0 5px #41b883)" />
    
      <text x="780.9851258319459" y="588.9545320673808" font-size="18" text-anchor="middle" fill="#41b883" style="filter: invert(1)">Vue</text>
    
      <path d="M 508.17363677675155 572.4189491531586 A 250 250 0 0 1 466.89879264283877 179.6226954090591 
              L 515.367130702844 230.12834069452256 
              A 180 180 0 0 0 
              545.0850184792612 512.9416433902742 Z" 
              fill="#f1e05a" style="filter: drop-shadow(0 0 5px #f1e05a)" />
    
      <text x="351.5879095912586" y="387.3800893193238" font-size="18" text-anchor="middle" fill="#f1e05a" style="filter: invert(1)">JavaScript</text>
    
      <path d="M 466.89879264283877 179.6226954090591 A 250 250 0 0 1 654.5154717077443 110.42175358997795 
              L 650.4511396295759 180.30366258478412 
              A 180 180 0 0 0 
              515.367130702844 230.12834069452256 Z" 
              fill="#e34c26" style="filter: drop-shadow(0 0 5px #e34c26)" />
    
      <text x="539.6445693308101" y="114.18769929726847" font-size="18" text-anchor="middle" fill="#e34c26" style="filter: invert(1)">HTML</text>
    
      <path d="M 654.5154717077443 110.42175358997795 A 250 250 0 0 1 851.188947092751 226.21200118898858 
              L 792.0560419067808 263.6726408560718 
              A 180 180 0 0 0 
              650.4511396295759 180.30366258478412 Z" 
              fill="#663399" style="filter: drop-shadow(0 0 5px #663399)" />
    
      <text x="787.130197300754" y="134.22340430344985" font-size="18" text-anchor="middle" fill="#663399" style="filter: invert(1)">CSS</text>
    
      <path d="M 851.188947092751 226.21200118898858 A 250 250 0 0 1 884.5124941497006 307.90738819474825 
              L 816.0489957877844 322.4933195002187 
              A 180 180 0 0 0 
              792.0560419067808 263.6726408560718 Z" 
              fill="#3178c6" style="filter: drop-shadow(0 0 5px #3178c6)" />
    
      <text x="908.520544747639" y="261.04573865087974" font-size="18" text-anchor="middle" fill="#3178c6" style="filter: invert(1)">TypeScript</text>
    
      <path d="M 884.5124941497006 307.90738819474825 A 250 250 0 0 1 885.5182631825613 312.87482155133443 
              L 816.7731494914441 326.0698715169608 
              A 180 180 0 0 0 
              816.0489957877844 322.4933195002187 Z" 
              fill="#3572A5" style="filter: drop-shadow(0 0 5px #3572A5)" />
    
      <text x="924.2324417656667" y="308.00720676416" font-size="18" text-anchor="middle" fill="#3572A5" style="filter: invert(1)">Python</text>
    
      <path d="M 885.5182631825613 312.87482155133443 A 250 250 0 0 1 885.742996704789 314.0611322456673 
              L 816.9349576274481 326.92401521688043 
              A 180 180 0 0 0 
              816.7731494914441 326.0698715169608 Z" 
              fill="#89e051" style="filter: drop-shadow(0 0 5px #89e051)" />
    
      <text x="924.9323615064475" y="311.2342976044121" font-size="18" text-anchor="middle" fill="#89e051" style="filter: invert(1)">Shell</text>
    
      <path d="M 885.742996704789 314.0611322456673 A 250 250 0 0 1 885.7487278236055 314.09180058987835 
              L 816.9390840329959 326.94609642471244 
              A 180 180 0 0 0 
              816.9349576274481 326.92401521688043 Z" 
              fill="#3B2F63" style="filter: drop-shadow(0 0 5px #3B2F63)" />
    
      <text x="925.0652007814298" y="311.87213671213135" font-size="18" text-anchor="middle" fill="#3B2F63" style="filter: invert(1)">Procfile</text>
    
      <path d="M 885.7487278236055 314.09180058987835 A 250 250 0 0 1 887.3631021335192 323.7854214040512 
              L 818.1014335361338 333.92550341091686 
              A 180 180 0 0 0 
              816.9390840329959 326.94609642471244 Z" 
              fill="#a53b70" style="filter: drop-shadow(0 0 5px #a53b70)" />
    
      <text x="926.0601177869972" y="316.95935043654407" font-size="18" text-anchor="middle" fill="#a53b70" style="filter: invert(1)">Sass</text>
    
      <path d="M 887.3631021335192 323.7854214040512 A 250 250 0 0 1 890 359.99999999999994 
              L 820 359.99999999999994 
              A 180 180 0 0 0 
              818.1014335361338 333.92550341091686 Z" 
              fill="#c6538c" style="filter: drop-shadow(0 0 5px #c6538c)" />
    
      <text x="929.2342887329542" y="340.97332308853134" font-size="18" text-anchor="middle" fill="#c6538c" style="filter: invert(1)">SCSS</text>
    </svg>