<svg width="1280" height="640" viewBox="0 0 1280 640" xmlns="http://www.w3.org/2000/svg">
     <rect width="100%" height="100%" fill="#ffffff"/>
     <text x="640" y="50" font-size="32" font-weight="bold" text-anchor="middle" fill="#000000">VADIM4WEB's Lang Stack (updated: 2026-05-24 03:50:14)</text>
      <path d="M 890 360 A 250 250 0 0 1 521.6835123063926 580.2298997408127 
              L 554.8121288606026 518.5655278133852 
              A 180 180 0 0 0 
              820 360 Z" 
              fill="#41b883" style="filter: drop-shadow(0 0 5px #41b883)" />
    
      <text x="788.8259613438973" y="584.8675920680435" font-size="18" text-anchor="middle" fill="#41b883" style="filter: invert(1)">Vue</text>
    
      <path d="M 521.6835123063926 580.2298997408127 A 250 250 0 0 1 459.40120510478977 187.1298889848283 
              L 509.9688676754486 235.5335200690764 
              A 180 180 0 0 0 
              554.8121288606026 518.5655278133852 Z" 
              fill="#f1e05a" style="filter: drop-shadow(0 0 5px #f1e05a)" />
    
      <text x="353.57278882991017" y="400.99956080356066" font-size="18" text-anchor="middle" fill="#f1e05a" style="filter: invert(1)">JavaScript</text>
    
      <path d="M 459.40120510478977 187.1298889848283 A 250 250 0 0 1 647.6982976032053 110.11855568287493 
              L 645.5427742743078 180.08536009166994 
              A 180 180 0 0 0 
              509.9688676754486 235.5335200690764 Z" 
              fill="#e34c26" style="filter: drop-shadow(0 0 5px #e34c26)" />
    
      <text x="530.2200376009079" y="117.49798990912379" font-size="18" text-anchor="middle" fill="#e34c26" style="filter: invert(1)">HTML</text>
    
      <path d="M 647.6982976032053 110.11855568287493 A 250 250 0 0 1 849.787009684766 224.02422801276725 
              L 791.0466469730316 262.09744416919244 
              A 180 180 0 0 0 
              645.5427742743078 180.08536009166994 Z" 
              fill="#663399" style="filter: drop-shadow(0 0 5px #663399)" />
    
      <text x="782.3948561769453" y="131.7586649323745" font-size="18" text-anchor="middle" fill="#663399" style="filter: invert(1)">CSS</text>
    
      <path d="M 849.787009684766 224.02422801276725 A 250 250 0 0 1 884.3094043230002 306.96307928111946 
              L 815.9027711125601 321.813417082406 
              A 180 180 0 0 0 
              791.0466469730316 262.09744416919244 Z" 
              fill="#3178c6" style="filter: drop-shadow(0 0 5px #3178c6)" />
    
      <text x="907.732929366847" y="259.31889344301555" font-size="18" text-anchor="middle" fill="#3178c6" style="filter: invert(1)">TypeScript</text>
    
      <path d="M 884.3094043230002 306.96307928111946 A 250 250 0 0 1 885.352279652299 312.01814020465577 
              L 816.6536413496553 325.4530609473522 
              A 180 180 0 0 0 
              815.9027711125601 321.813417082406 Z" 
              fill="#3572A5" style="filter: drop-shadow(0 0 5px #3572A5)" />
    
      <text x="924.0189103350313" y="307.06333833985207" font-size="18" text-anchor="middle" fill="#3572A5" style="filter: invert(1)">Python</text>
    
      <path d="M 885.352279652299 312.01814020465577 A 250 250 0 0 1 885.5853115552558 313.22549040013376 
              L 816.8214243197841 326.3223530880963 
              A 180 180 0 0 0 
              816.6536413496553 325.4530609473522 Z" 
              fill="#89e051" style="filter: drop-shadow(0 0 5px #89e051)" />
    
      <text x="924.7446639686149" y="310.3475122877226" font-size="18" text-anchor="middle" fill="#89e051" style="filter: invert(1)">Shell</text>
    
      <path d="M 885.5853115552558 313.22549040013376 A 250 250 0 0 1 885.5912543323482 313.2567032028775 
              L 816.8257031192907 326.3448263060718 
              A 180 180 0 0 0 
              816.8214243197841 326.3223530880963 Z" 
              fill="#3B2F63" style="filter: drop-shadow(0 0 5px #3B2F63)" />
    
      <text x="924.8824087900196" y="310.99666934903473" font-size="18" text-anchor="middle" fill="#3B2F63" style="filter: invert(1)">Procfile</text>
    
      <path d="M 885.5912543323482 313.2567032028775 A 250 250 0 0 1 887.2653175366618 323.12368316257914 
              L 818.0310286263964 333.449051877057 
              A 180 180 0 0 0 
              816.8257031192907 326.3448263060718 Z" 
              fill="#a53b70" style="filter: drop-shadow(0 0 5px #a53b70)" />
    
      <text x="925.9140916074239" y="316.17454247954385" font-size="18" text-anchor="middle" fill="#a53b70" style="filter: invert(1)">Sass</text>
    
      <path d="M 887.2653175366618 323.12368316257914 A 250 250 0 0 1 890 359.9999999999997 
              L 820 359.9999999999998 
              A 180 180 0 0 0 
              818.0310286263964 333.449051877057 Z" 
              fill="#c6538c" style="filter: drop-shadow(0 0 5px #c6538c)" />
    
      <text x="929.2058547292335" y="340.6237494332162" font-size="18" text-anchor="middle" fill="#c6538c" style="filter: invert(1)">SCSS</text>
    </svg>