<svg width="1280" height="640" viewBox="0 0 1280 640" xmlns="http://www.w3.org/2000/svg">
     <rect width="100%" height="100%" fill="#ffffff"/>
     <text x="640" y="50" font-size="32" font-weight="bold" text-anchor="middle" fill="#000000">VADIM4WEB's Lang Stack (updated: 2025-08-24 01:51:05)</text>
      <path d="M 890 360 A 250 250 0 0 1 535.0898103253312 586.9225685171597 
              L 564.4646634342384 523.384249332355 
              A 180 180 0 0 0 
              820 360 Z" 
              fill="#41b883" style="filter: drop-shadow(0 0 5px #41b883)" />
    
      <text x="796.218136260553" y="580.737196956145" font-size="18" text-anchor="middle" fill="#41b883" style="filter: invert(1)">Vue</text>
    
      <path d="M 535.0898103253312 586.9225685171597 A 250 250 0 0 1 406.033821729666 271.9101173483907 
              L 471.54435164535954 296.5752844908413 
              A 180 180 0 0 0 
              564.4646634342384 523.384249332355 Z" 
              fill="#f1e05a" style="filter: drop-shadow(0 0 5px #f1e05a)" />
    
      <text x="371.64732068621083" y="459.3252509759555" font-size="18" text-anchor="middle" fill="#f1e05a" style="filter: invert(1)">JavaScript</text>
    
      <path d="M 406.033821729666 271.9101173483907 A 250 250 0 0 1 641.8916913747335 110.00715709496248 
              L 641.3620177898081 180.00515310837298 
              A 180 180 0 0 0 
              471.54435164535954 296.5752844908413 Z" 
              fill="#e34c26" style="filter: drop-shadow(0 0 5px #e34c26)" />
    
      <text x="475.87830687978214" y="143.9944728488875" font-size="18" text-anchor="middle" fill="#e34c26" style="filter: invert(1)">HTML</text>
    
      <path d="M 641.8916913747335 110.00715709496248 A 250 250 0 0 1 855.5914874681458 233.42863463139727 
              L 795.225870977065 268.86861693460605 
              A 180 180 0 0 0 
              641.3620177898081 180.00515310837298 Z" 
              fill="#663399" style="filter: drop-shadow(0 0 5px #663399)" />
    
      <text x="785.0368765791327" y="133.12058251882488" font-size="18" text-anchor="middle" fill="#663399" style="filter: invert(1)">CSS</text>
    
      <path d="M 855.5914874681458 233.42863463139727 A 250 250 0 0 1 886.5984725641895 318.9002028106134 
              L 817.5509002462164 330.4081460236417 
              A 180 180 0 0 0 
              795.225870977065 268.86861693460605 Z" 
              fill="#3178c6" style="filter: drop-shadow(0 0 5px #3178c6)" />
    
      <text x="912.6153930872979" y="270.65062146531494" font-size="18" text-anchor="middle" fill="#3178c6" style="filter: invert(1)">TypeScript</text>
    
      <path d="M 886.5984725641895 318.9002028106134 A 250 250 0 0 1 886.6030546046487 318.92770447544183 
              L 817.5541993153471 330.4279472223181 
              A 180 180 0 0 0 
              817.5509002462164 330.4081460236417 Z" 
              fill="#3B2F63" style="filter: drop-shadow(0 0 5px #3B2F63)" />
    
      <text x="926.0568862026512" y="316.94182335095155" font-size="18" text-anchor="middle" fill="#3B2F63" style="filter: invert(1)">Procfile</text>
    
      <path d="M 886.6030546046487 318.92770447544183 A 250 250 0 0 1 887.8934668027194 327.61436867175485 
              L 818.483296097958 336.68234544366345 
              A 180 180 0 0 0 
              817.5541993153471 330.4279472223181 Z" 
              fill="#a53b70" style="filter: drop-shadow(0 0 5px #a53b70)" />
    
      <text x="926.8522318097948" y="321.5021077022107" font-size="18" text-anchor="middle" fill="#a53b70" style="filter: invert(1)">Sass</text>
    
      <path d="M 887.8934668027194 327.61436867175485 A 250 250 0 0 1 890 359.99999999999994 
              L 820 359.99999999999994 
              A 180 180 0 0 0 
              818.483296097958 336.68234544366345 Z" 
              fill="#c6538c" style="filter: drop-shadow(0 0 5px #c6538c)" />
    
      <text x="929.388460578886" y="342.9940678118415" font-size="18" text-anchor="middle" fill="#c6538c" style="filter: invert(1)">SCSS</text>
    </svg>