<svg width="1280" height="640" viewBox="0 0 1280 640" xmlns="http://www.w3.org/2000/svg">
     <rect width="100%" height="100%" fill="#ffffff"/>
     <text x="640" y="50" font-size="32" font-weight="bold" text-anchor="middle" fill="#000000">VADIM4WEB's Lang Stack (updated: 2025-07-13 02:01:36)</text>
      <path d="M 890 360 A 250 250 0 0 1 479.0508548352027 551.2991705960092 
              L 524.1166154813459 497.7354028291266 
              A 180 180 0 0 0 
              820 360 Z" 
              fill="#41b883" style="filter: drop-shadow(0 0 5px #41b883)" />
    
      <text x="762.3860849250482" y="597.5255486076912" font-size="18" text-anchor="middle" fill="#41b883" style="filter: invert(1)">Vue</text>
    
      <path d="M 479.0508548352027 551.2991705960092 A 250 250 0 0 1 433.7876205824454 218.66191392639237 
              L 491.5270868193607 258.2365780270025 
              A 180 180 0 0 0 
              524.1166154813459 497.7354028291266 Z" 
              fill="#f1e05a" style="filter: drop-shadow(0 0 5px #f1e05a)" />
    
      <text x="352.6481153410323" y="395.3258024528194" font-size="18" text-anchor="middle" fill="#f1e05a" style="filter: invert(1)">JavaScript</text>
    
      <path d="M 433.7876205824454 218.66191392639237 A 250 250 0 0 1 661.7648083458421 110.9492157858788 
              L 655.6706620090064 180.68343536583274 
              A 180 180 0 0 0 
              491.5270868193607 258.2365780270025 Z" 
              fill="#e34c26" style="filter: drop-shadow(0 0 5px #e34c26)" />
    
      <text x="516.1147536526086" y="123.10965010373582" font-size="18" text-anchor="middle" fill="#e34c26" style="filter: invert(1)">HTML</text>
    
      <path d="M 661.7648083458421 110.9492157858788 A 250 250 0 0 1 861.7576401262295 244.57232114589806 
              L 799.6655008908853 276.8920712250466 
              A 180 180 0 0 0 
              655.6706620090064 180.68343536583274 Z" 
              fill="#663399" style="filter: drop-shadow(0 0 5px #663399)" />
    
      <text x="801.1088386920363" y="142.1510204347471" font-size="18" text-anchor="middle" fill="#663399" style="filter: invert(1)">CSS</text>
    
      <path d="M 861.7576401262295 244.57232114589806 A 250 250 0 0 1 885.7517516451921 314.1079902017812 
              L 816.9412611845383 326.95775294528244 
              A 180 180 0 0 0 
              799.6655008908853 276.8920712250466 Z" 
              fill="#3178c6" style="filter: drop-shadow(0 0 5px #3178c6)" />
    
      <text x="914.1383609783309" y="274.538572917249" font-size="18" text-anchor="middle" fill="#3178c6" style="filter: invert(1)">TypeScript</text>
    
      <path d="M 885.7517516451921 314.1079902017812 A 250 250 0 0 1 885.7574710110674 314.13862799430933 
              L 816.9453791279685 326.9798121559027 
              A 180 180 0 0 0 
              816.9412611845383 326.95775294528244 Z" 
              fill="#3B2F63" style="filter: drop-shadow(0 0 5px #3B2F63)" />
    
      <text x="925.0753496944667" y="311.9212278413453" font-size="18" text-anchor="middle" fill="#3B2F63" style="filter: invert(1)">Procfile</text>
    
      <path d="M 885.7574710110674 314.13862799430933 A 250 250 0 0 1 887.3685310642684 323.8225230411778 
              L 818.1053423662732 333.952216589648 
              A 180 180 0 0 0 
              816.9453791279685 326.9798121559027 Z" 
              fill="#a53b70" style="filter: drop-shadow(0 0 5px #a53b70)" />
    
      <text x="926.0682252180103" y="317.00335488334514" font-size="18" text-anchor="middle" fill="#a53b70" style="filter: invert(1)">Sass</text>
    
      <path d="M 887.3685310642684 323.8225230411778 A 250 250 0 0 1 890 359.9999999999997 
              L 820 359.9999999999998 
              A 180 180 0 0 0 
              818.1053423662732 333.952216589648 Z" 
              fill="#c6538c" style="filter: drop-shadow(0 0 5px #c6538c)" />
    
      <text x="929.2358672865623" y="340.9929195495801" font-size="18" text-anchor="middle" fill="#c6538c" style="filter: invert(1)">SCSS</text>
    </svg>