<svg width="1280" height="640" viewBox="0 0 1280 640" xmlns="http://www.w3.org/2000/svg">
     <rect width="100%" height="100%" fill="#ffffff"/>
     <text x="640" y="50" font-size="32" font-weight="bold" text-anchor="middle" fill="#000000">VADIM4WEB's Lang Stack (updated: 2026-04-12 02:48:36)</text>
      <path d="M 890 360 A 250 250 0 0 1 473.930851596416 546.8717152179762 
              L 520.4302131494195 494.5476349569429 
              A 180 180 0 0 0 
              820 360 Z" 
              fill="#41b883" style="filter: drop-shadow(0 0 5px #41b883)" />
    
      <text x="758.8156944116272" y="599.0006302209918" font-size="18" text-anchor="middle" fill="#41b883" style="filter: invert(1)">Vue</text>
    
      <path d="M 473.930851596416 546.8717152179762 A 250 250 0 0 1 450.1628846972227 197.32895262671963 
              L 503.3172769820003 242.87684589123813 
              A 180 180 0 0 0 
              520.4302131494195 494.5476349569429 Z" 
              fill="#f1e05a" style="filter: drop-shadow(0 0 5px #f1e05a)" />
    
      <text x="350.66811098068086" y="377.77425127743" font-size="18" text-anchor="middle" fill="#f1e05a" style="filter: invert(1)">JavaScript</text>
    
      <path d="M 450.1628846972227 197.32895262671963 A 250 250 0 0 1 639.5158536333839 110.00046879584815 
              L 639.6514146160364 180.00033753301065 
              A 180 180 0 0 0 
              503.3172769820003 242.87684589123813 Z" 
              fill="#e34c26" style="filter: drop-shadow(0 0 5px #e34c26)" />
    
      <text x="518.5478798846235" y="122.0834833597794" font-size="18" text-anchor="middle" fill="#e34c26" style="filter: invert(1)">HTML</text>
    
      <path d="M 639.5158536333839 110.00046879584815 A 250 250 0 0 1 851.2235118301487 226.2665784101109 
              L 792.0809285177071 263.71193645527984 
              A 180 180 0 0 0 
              639.6514146160364 180.00033753301065 Z" 
              fill="#663399" style="filter: drop-shadow(0 0 5px #663399)" />
    
      <text x="779.5968411463234" y="130.3521880390329" font-size="18" text-anchor="middle" fill="#663399" style="filter: invert(1)">CSS</text>
    
      <path d="M 851.2235118301487 226.2665784101109 A 250 250 0 0 1 884.5174968526211 307.9308754353559 
              L 816.0525977338872 322.51023031345625 
              A 180 180 0 0 0 
              792.0809285177071 263.71193645527984 Z" 
              fill="#3178c6" style="filter: drop-shadow(0 0 5px #3178c6)" />
    
      <text x="908.5399526503342" y="261.0887356622219" font-size="18" text-anchor="middle" fill="#3178c6" style="filter: invert(1)">TypeScript</text>
    
      <path d="M 884.5174968526211 307.9308754353559 A 250 250 0 0 1 885.5223517420636 312.8961276003088 
              L 816.7760932542858 326.0852118722223 
              A 180 180 0 0 0 
              816.0525977338872 322.51023031345625 Z" 
              fill="#3572A5" style="filter: drop-shadow(0 0 5px #3572A5)" />
    
      <text x="924.2377016064834" y="308.0306820969565" font-size="18" text-anchor="middle" fill="#3572A5" style="filter: invert(1)">Python</text>
    
      <path d="M 885.5223517420636 312.8961276003088 A 250 250 0 0 1 885.7468808335312 314.08191466763685 
              L 816.9377542001425 326.93897856069856 
              A 180 180 0 0 0 
              816.7760932542858 326.0852118722223 Z" 
              fill="#89e051" style="filter: drop-shadow(0 0 5px #89e051)" />
    
      <text x="924.9369849189312" y="311.2563521575331" font-size="18" text-anchor="middle" fill="#89e051" style="filter: invert(1)">Shell</text>
    
      <path d="M 885.7468808335312 314.08191466763685 A 250 250 0 0 1 885.7526067381733 314.1125694618589 
              L 816.9418768514848 326.9610500125384 
              A 180 180 0 0 0 
              816.9377542001425 326.93897856069856 Z" 
              fill="#3B2F63" style="filter: drop-shadow(0 0 5px #3B2F63)" />
    
      <text x="925.0697033460506" y="311.8939095902891" font-size="18" text-anchor="middle" fill="#3B2F63" style="filter: invert(1)">Procfile</text>
    
      <path d="M 885.7526067381733 314.1125694618589 A 250 250 0 0 1 887.3655106813039 323.8018767699526 
              L 818.1031676905388 333.9373512743659 
              A 180 180 0 0 0 
              816.9418768514848 326.9610500125384 Z" 
              fill="#a53b70" style="filter: drop-shadow(0 0 5px #a53b70)" />
    
      <text x="926.0637146506303" y="316.9788673107618" font-size="18" text-anchor="middle" fill="#a53b70" style="filter: invert(1)">Sass</text>
    
      <path d="M 887.3655106813039 323.8018767699526 A 250 250 0 0 1 890 359.99999999999994 
              L 820 359.99999999999994 
              A 180 180 0 0 0 
              818.1031676905388 333.9373512743659 Z" 
              fill="#c6538c" style="filter: drop-shadow(0 0 5px #c6538c)" />
    
      <text x="929.2349890600985" y="340.9820145760615" font-size="18" text-anchor="middle" fill="#c6538c" style="filter: invert(1)">SCSS</text>
    </svg>